<?xml version="1.0" encoding="UTF-8"?>
<svg xmlns="http://www.w3.org/2000/svg" width="1280" height="490" viewBox="0 0 1280 490">
  <style>text { font-family: 'PingFang SC','Microsoft YaHei',Arial,sans-serif; }</style>

  <!-- Background -->
  <rect width="1280" height="490" fill="#f7f8fa"/>

  <!-- Title bar -->
  <rect x="0" y="0" width="1280" height="48" fill="#1d1d1f"/>
  <text x="20" y="19" font-size="13" fill="white" font-weight="bold">GRP01 — 84" (7-ft) · S1 · 单组对比 — A系列多设备组 vs B系列完整组</text>
  <text x="20" y="37" font-size="11" fill="#aaa">对比展示桌 · 全竖放 · 每组一块 2×3 标牌 · Y=3" @key84"</text>
  <rect x="1200" y="7" width="62" height="26" rx="5" fill="#2a9d2a"/>
  <text x="1231" y="25" text-anchor="middle" font-size="14" font-weight="bold" fill="white">PASS</text>

  <!-- Table surface -->
  <rect x="60" y="82" width="1160" height="266" rx="4"
        fill="white" stroke="#ccc" stroke-width="1.5"/>

  <!-- Table width ruler -->
  <line x1="60" y1="72" x2="1220" y2="72" stroke="#bbb" stroke-width="1"/>
  <line x1="60" y1="67" x2="60" y2="77" stroke="#bbb" stroke-width="1"/>
  <line x1="1220" y1="67" x2="1220" y2="77" stroke="#bbb" stroke-width="1"/>
  <text x="640" y="85" text-anchor="middle" font-size="11" fill="#555">84"</text>

  <!-- Top rail -->
  <rect x="60" y="100" width="1160" height="90" rx="3" fill="#f4f6ff" stroke="#dde" stroke-width="1"/>
<text x="60" y="95" font-size="10" fill="#555" font-family="monospace">上排：A16×4+mini×2 — B=59.88" · C=1 · X=24.120" · edge=12.060"</text>
<rect x="226.5" y="104" width="826.9" height="82" rx="4" fill="#4A90D9" opacity="0.07" stroke="#4A90D9" stroke-width="1.5"/>
<rect x="226.5" y="110.0" width="41.4" height="70" rx="2" fill="#5CB85C" opacity="0.9"/>
<text x="247.3" y="149.0" text-anchor="middle" font-size="8" font-weight="bold" fill="white" font-family="monospace">S</text>
<text x="640.0" y="92.0" text-anchor="middle" font-size="9" fill="#4A90D9" font-weight="bold" font-family="monospace">A6 [59.88"]</text>
<rect x="281.8" y="110.0" width="97.6" height="70" rx="2" fill="#4A90D9" opacity="0.82"/>
<text x="330.6" y="126.0" text-anchor="middle" font-size="8" fill="white" font-weight="bold" font-family="monospace">A16</text>
<text x="330.6" y="136.0" text-anchor="middle" font-size="7" fill="white" font-family="monospace">7.07"</text>
<line x1="379.4" y1="145.0" x2="420.8" y2="145.0" stroke="#888" stroke-width="1" stroke-dasharray="3,2"/>
<text x="400.1" y="142.0" text-anchor="middle" font-size="8" fill="#888" font-family="monospace">Y=3.00"</text>
<rect x="420.8" y="110.0" width="97.6" height="70" rx="2" fill="#4A90D9" opacity="0.82"/>
<text x="469.7" y="126.0" text-anchor="middle" font-size="8" fill="white" font-weight="bold" font-family="monospace">A16</text>
<text x="469.7" y="136.0" text-anchor="middle" font-size="7" fill="white" font-family="monospace">7.07"</text>
<line x1="518.5" y1="145.0" x2="559.9" y2="145.0" stroke="#888" stroke-width="1" stroke-dasharray="3,2"/>
<text x="539.2" y="142.0" text-anchor="middle" font-size="8" fill="#888" font-family="monospace">Y=3.00"</text>
<rect x="559.9" y="110.0" width="97.6" height="70" rx="2" fill="#4A90D9" opacity="0.82"/>
<text x="608.7" y="126.0" text-anchor="middle" font-size="8" fill="white" font-weight="bold" font-family="monospace">A16</text>
<text x="608.7" y="136.0" text-anchor="middle" font-size="7" fill="white" font-family="monospace">7.07"</text>
<line x1="657.5" y1="145.0" x2="699.0" y2="145.0" stroke="#888" stroke-width="1" stroke-dasharray="3,2"/>
<text x="678.3" y="142.0" text-anchor="middle" font-size="8" fill="#888" font-family="monospace">Y=3.00"</text>
<rect x="699.0" y="110.0" width="97.6" height="70" rx="2" fill="#4A90D9" opacity="0.82"/>
<text x="747.8" y="126.0" text-anchor="middle" font-size="8" fill="white" font-weight="bold" font-family="monospace">A16</text>
<text x="747.8" y="136.0" text-anchor="middle" font-size="7" fill="white" font-family="monospace">7.07"</text>
<line x1="796.6" y1="145.0" x2="865.6" y2="145.0" stroke="#888" stroke-width="1" stroke-dasharray="3,2"/>
<text x="831.1" y="142.0" text-anchor="middle" font-size="8" fill="#888" font-family="monospace">Y=5.00"</text>
<rect x="865.6" y="110.0" width="73.2" height="70" rx="2" fill="#4A90D9" opacity="0.82"/>
<text x="902.2" y="126.0" text-anchor="middle" font-size="8" fill="white" font-weight="bold" font-family="monospace">mini</text>
<text x="902.2" y="136.0" text-anchor="middle" font-size="7" fill="white" font-family="monospace">5.30"</text>
<line x1="938.8" y1="145.0" x2="980.3" y2="145.0" stroke="#888" stroke-width="1" stroke-dasharray="3,2"/>
<text x="959.6" y="142.0" text-anchor="middle" font-size="8" fill="#888" font-family="monospace">Y=3.00"</text>
<rect x="980.3" y="110.0" width="73.2" height="70" rx="2" fill="#4A90D9" opacity="0.82"/>
<text x="1016.9" y="126.0" text-anchor="middle" font-size="8" fill="white" font-weight="bold" font-family="monospace">mini</text>
<text x="1016.9" y="136.0" text-anchor="middle" font-size="7" fill="white" font-family="monospace">5.30"</text>
<text x="143.3" y="198.0" text-anchor="middle" font-size="9" fill="#E84393" font-family="monospace">12.060"</text>
<text x="1136.7" y="198.0" text-anchor="middle" font-size="9" fill="#E84393" font-family="monospace">12.060"</text>


  <!-- Bottom rail -->
  <rect x="60" y="240" width="1160" height="90" rx="3" fill="#f4f6ff" stroke="#dde" stroke-width="1"/>
<text x="60" y="235" font-size="10" fill="#555" font-family="monospace">下排：Pro13+Air13+Pro11+Air11 — B=49.95" · C=1 · X=34.050" · edge=17.025"</text>
<rect x="295.1" y="244" width="689.8" height="82" rx="4" fill="#9B59B6" opacity="0.07" stroke="#9B59B6" stroke-width="1.5"/>
<rect x="295.1" y="250.0" width="41.4" height="70" rx="2" fill="#5CB85C" opacity="0.9"/>
<text x="315.8" y="289.0" text-anchor="middle" font-size="8" font-weight="bold" fill="white" font-family="monospace">S</text>
<text x="640.0" y="232.0" text-anchor="middle" font-size="9" fill="#9B59B6" font-weight="bold" font-family="monospace">B4 [49.95"]</text>
<rect x="350.3" y="250.0" width="117.1" height="70" rx="2" fill="#9B59B6" opacity="0.82"/>
<text x="408.9" y="266.0" text-anchor="middle" font-size="8" fill="white" font-weight="bold" font-family="monospace">Pro13</text>
<text x="408.9" y="276.0" text-anchor="middle" font-size="7" fill="white" font-family="monospace">8.48"</text>
<line x1="467.4" y1="285.0" x2="536.5" y2="285.0" stroke="#888" stroke-width="1" stroke-dasharray="3,2"/>
<text x="502.0" y="282.0" text-anchor="middle" font-size="8" fill="#888" font-family="monospace">Y=5.00"</text>
<rect x="536.5" y="250.0" width="116.8" height="70" rx="2" fill="#9B59B6" opacity="0.82"/>
<text x="594.9" y="266.0" text-anchor="middle" font-size="8" fill="white" font-weight="bold" font-family="monospace">Air13</text>
<text x="594.9" y="276.0" text-anchor="middle" font-size="7" fill="white" font-family="monospace">8.46"</text>
<line x1="653.3" y1="285.0" x2="722.4" y2="285.0" stroke="#888" stroke-width="1" stroke-dasharray="3,2"/>
<text x="687.9" y="282.0" text-anchor="middle" font-size="8" fill="#888" font-family="monospace">Y=5.00"</text>
<rect x="722.4" y="250.0" width="96.5" height="70" rx="2" fill="#9B59B6" opacity="0.82"/>
<text x="770.6" y="266.0" text-anchor="middle" font-size="8" fill="white" font-weight="bold" font-family="monospace">Pro11</text>
<text x="770.6" y="276.0" text-anchor="middle" font-size="7" fill="white" font-family="monospace">6.99"</text>
<line x1="818.9" y1="285.0" x2="888.0" y2="285.0" stroke="#888" stroke-width="1" stroke-dasharray="3,2"/>
<text x="853.4" y="282.0" text-anchor="middle" font-size="8" fill="#888" font-family="monospace">Y=5.00"</text>
<rect x="888.0" y="250.0" width="96.9" height="70" rx="2" fill="#9B59B6" opacity="0.82"/>
<text x="936.4" y="266.0" text-anchor="middle" font-size="8" fill="white" font-weight="bold" font-family="monospace">Air11</text>
<text x="936.4" y="276.0" text-anchor="middle" font-size="7" fill="white" font-family="monospace">7.02"</text>
<text x="177.6" y="338.0" text-anchor="middle" font-size="9" fill="#E84393" font-family="monospace">17.025"</text>
<text x="1102.4" y="338.0" text-anchor="middle" font-size="9" fill="#E84393" font-family="monospace">17.025"</text>


  <!-- Center alignment guides -->
  <line x1="640.0" y1="190.0" x2="640.0" y2="240" stroke="#2a9d2a" stroke-width="1.5" stroke-dasharray="5,3" opacity="0.8"/>
<text x="640.0" y="215.0" text-anchor="middle" font-size="8" fill="#2a9d2a" font-family="monospace">Δ=0.000"</text>


  <!-- Centre rail divider -->
  <line x1="60" y1="215" x2="1220" y2="215"
        stroke="#eee" stroke-width="1" stroke-dasharray="6,4"/>
  <text x="640" y="219.0" text-anchor="middle" font-size="9" fill="#ccc">← 展台中心 →</text>

  <!-- Info panel -->
  <rect x="20" y="372" width="1240" height="44" rx="4" fill="white" stroke="#ddd" stroke-width="1"/>
  <text font-size="10" fill="#444" font-family="monospace">
    <tspan x="28" y="388">
      验算：Y(组内)=3" · 通用间距原则 X=(A-B)÷C，边缘=X÷2 · mode=对比(comparison)
    </tspan>
    <tspan x="28" dy="14" fill="#2a9d2a">✓ 上下两排计算均正确，组宽、X间距、边缘、Y组内间距全部通过</tspan>
  </text>
  <!-- Note -->
  <text x="28" y="448" font-size="9" fill="#999" font-family="monospace">备注：1 vs 1，数量相同 → 对比模式，中心核查</text>

  <!-- Legend -->
  <rect x="20" y="466" width="12" height="12" rx="2" fill="#4A90D9"/>
  <text x="36" y="477" font-size="10" fill="#555">A系列组（A16/mini）</text>
  <rect x="170" y="466" width="12" height="12" rx="2" fill="#9B59B6"/>
  <text x="186" y="477" font-size="10" fill="#555">B系列组（Pro/Air）</text>
  <rect x="330" y="466" width="12" height="12" rx="2" fill="#5CB85C"/>
  <text x="346" y="477" font-size="10" fill="#555">2×3 Lead Sign (3"+1"gap)</text>
  <text x="1260" y="477" text-anchor="end" font-size="9" fill="#ccc">Generated 2026-03-07</text>
</svg>