<?xml version="1.0" encoding="UTF-8"?>
<svg xmlns="http://www.w3.org/2000/svg" width="1280" height="490" viewBox="0 0 1280 490">
  <style>text { font-family: 'PingFang SC','Microsoft YaHei',Arial,sans-serif; }</style>

  <!-- Background -->
  <rect width="1280" height="490" fill="#f7f8fa"/>

  <!-- Title bar -->
  <rect x="0" y="0" width="1280" height="48" fill="#1d1d1f"/>
  <text x="20" y="19" font-size="13" fill="white" font-weight="bold">GRP14 — 96" (8-ft) · S7 · 三个 A2 小组 vs B大组+B2大屏</text>
  <text x="20" y="37" font-size="11" fill="#aaa">系列展示桌 · 全竖放 · 每组一块 2×3 标牌 · Y=4" @key96"</text>
  <rect x="1200" y="7" width="62" height="26" rx="5" fill="#2a9d2a"/>
  <text x="1231" y="25" text-anchor="middle" font-size="14" font-weight="bold" fill="white">PASS</text>

  <!-- Table surface -->
  <rect x="60" y="82" width="1160" height="266" rx="4"
        fill="white" stroke="#ccc" stroke-width="1.5"/>

  <!-- Table width ruler -->
  <line x1="60" y1="72" x2="1220" y2="72" stroke="#bbb" stroke-width="1"/>
  <line x1="60" y1="67" x2="60" y2="77" stroke="#bbb" stroke-width="1"/>
  <line x1="1220" y1="67" x2="1220" y2="77" stroke="#bbb" stroke-width="1"/>
  <text x="640" y="85" text-anchor="middle" font-size="11" fill="#555">96"</text>

  <!-- Top rail -->
  <rect x="60" y="100" width="1160" height="90" rx="3" fill="#f4f6ff" stroke="#dde" stroke-width="1"/>
<text x="60" y="95" font-size="10" fill="#555" font-family="monospace">上排：A16+mini | A16+mini | A16+mini — B=67.11" · C=3 · X=9.630" · edge=4.815"</text>
<rect x="118.2" y="104" width="270.3" height="82" rx="4" fill="#4A90D9" opacity="0.07" stroke="#4A90D9" stroke-width="1.5"/>
<rect x="118.2" y="110.0" width="36.3" height="70" rx="2" fill="#5CB85C" opacity="0.9"/>
<text x="136.3" y="149.0" text-anchor="middle" font-size="8" font-weight="bold" fill="white" font-family="monospace">S</text>
<text x="253.3" y="92.0" text-anchor="middle" font-size="9" fill="#4A90D9" font-weight="bold" font-family="monospace">A2 [22.37"]</text>
<rect x="166.5" y="110.0" width="85.4" height="70" rx="2" fill="#4A90D9" opacity="0.82"/>
<text x="209.2" y="126.0" text-anchor="middle" font-size="8" fill="white" font-weight="bold" font-family="monospace">A16</text>
<text x="209.2" y="136.0" text-anchor="middle" font-size="7" fill="white" font-family="monospace">7.07"</text>
<line x1="251.9" y1="145.0" x2="324.4" y2="145.0" stroke="#888" stroke-width="1" stroke-dasharray="3,2"/>
<text x="288.2" y="142.0" text-anchor="middle" font-size="8" fill="#888" font-family="monospace">Y=6.00"</text>
<rect x="324.4" y="110.0" width="64.0" height="70" rx="2" fill="#4A90D9" opacity="0.82"/>
<text x="356.5" y="126.0" text-anchor="middle" font-size="8" fill="white" font-weight="bold" font-family="monospace">mini</text>
<text x="356.5" y="136.0" text-anchor="middle" font-size="7" fill="white" font-family="monospace">5.30"</text>
<rect x="504.8" y="104" width="270.3" height="82" rx="4" fill="#4A90D9" opacity="0.07" stroke="#4A90D9" stroke-width="1.5"/>
<rect x="504.8" y="110.0" width="36.3" height="70" rx="2" fill="#5CB85C" opacity="0.9"/>
<text x="523.0" y="149.0" text-anchor="middle" font-size="8" font-weight="bold" fill="white" font-family="monospace">S</text>
<text x="640.0" y="92.0" text-anchor="middle" font-size="9" fill="#4A90D9" font-weight="bold" font-family="monospace">A2 [22.37"]</text>
<rect x="553.2" y="110.0" width="85.4" height="70" rx="2" fill="#4A90D9" opacity="0.82"/>
<text x="595.9" y="126.0" text-anchor="middle" font-size="8" fill="white" font-weight="bold" font-family="monospace">A16</text>
<text x="595.9" y="136.0" text-anchor="middle" font-size="7" fill="white" font-family="monospace">7.07"</text>
<line x1="638.6" y1="145.0" x2="711.1" y2="145.0" stroke="#888" stroke-width="1" stroke-dasharray="3,2"/>
<text x="674.9" y="142.0" text-anchor="middle" font-size="8" fill="#888" font-family="monospace">Y=6.00"</text>
<rect x="711.1" y="110.0" width="64.0" height="70" rx="2" fill="#4A90D9" opacity="0.82"/>
<text x="743.1" y="126.0" text-anchor="middle" font-size="8" fill="white" font-weight="bold" font-family="monospace">mini</text>
<text x="743.1" y="136.0" text-anchor="middle" font-size="7" fill="white" font-family="monospace">5.30"</text>
<rect x="891.5" y="104" width="270.3" height="82" rx="4" fill="#4A90D9" opacity="0.07" stroke="#4A90D9" stroke-width="1.5"/>
<rect x="891.5" y="110.0" width="36.3" height="70" rx="2" fill="#5CB85C" opacity="0.9"/>
<text x="909.6" y="149.0" text-anchor="middle" font-size="8" font-weight="bold" fill="white" font-family="monospace">S</text>
<text x="1026.7" y="92.0" text-anchor="middle" font-size="9" fill="#4A90D9" font-weight="bold" font-family="monospace">A2 [22.37"]</text>
<rect x="939.8" y="110.0" width="85.4" height="70" rx="2" fill="#4A90D9" opacity="0.82"/>
<text x="982.6" y="126.0" text-anchor="middle" font-size="8" fill="white" font-weight="bold" font-family="monospace">A16</text>
<text x="982.6" y="136.0" text-anchor="middle" font-size="7" fill="white" font-family="monospace">7.07"</text>
<line x1="1025.3" y1="145.0" x2="1097.8" y2="145.0" stroke="#888" stroke-width="1" stroke-dasharray="3,2"/>
<text x="1061.5" y="142.0" text-anchor="middle" font-size="8" fill="#888" font-family="monospace">Y=6.00"</text>
<rect x="1097.8" y="110.0" width="64.0" height="70" rx="2" fill="#4A90D9" opacity="0.82"/>
<text x="1129.8" y="126.0" text-anchor="middle" font-size="8" fill="white" font-weight="bold" font-family="monospace">mini</text>
<text x="1129.8" y="136.0" text-anchor="middle" font-size="7" fill="white" font-family="monospace">5.30"</text>
<line x1="388.5" y1="200.0" x2="504.8" y2="200.0" stroke="#aaa" stroke-width="1.5" stroke-dasharray="4,3"/>
<text x="446.7" y="198.0" text-anchor="middle" font-size="9" fill="#555" font-family="monospace">X=9.630"</text>
<line x1="775.2" y1="200.0" x2="891.5" y2="200.0" stroke="#aaa" stroke-width="1.5" stroke-dasharray="4,3"/>
<text x="833.3" y="198.0" text-anchor="middle" font-size="9" fill="#555" font-family="monospace">X=9.630"</text>
<text x="89.1" y="198.0" text-anchor="middle" font-size="9" fill="#E84393" font-family="monospace">4.815"</text>
<text x="1190.9" y="198.0" text-anchor="middle" font-size="9" fill="#E84393" font-family="monospace">4.815"</text>


  <!-- Bottom rail -->
  <rect x="60" y="240" width="1160" height="90" rx="3" fill="#f4f6ff" stroke="#dde" stroke-width="1"/>
<text x="60" y="235" font-size="10" fill="#555" font-family="monospace">下排：Pro13+Air13+Pro11+Air11 | Pro13+Air13 — B=79.89" · C=2 · X=8.055" · edge=4.027"</text>
<rect x="108.7" y="244" width="639.8" height="82" rx="4" fill="#9B59B6" opacity="0.07" stroke="#9B59B6" stroke-width="1.5"/>
<rect x="108.7" y="250.0" width="36.3" height="70" rx="2" fill="#5CB85C" opacity="0.9"/>
<text x="126.8" y="289.0" text-anchor="middle" font-size="8" font-weight="bold" fill="white" font-family="monospace">S</text>
<text x="428.6" y="232.0" text-anchor="middle" font-size="9" fill="#9B59B6" font-weight="bold" font-family="monospace">B4 [52.95"]</text>
<rect x="157.0" y="250.0" width="102.5" height="70" rx="2" fill="#9B59B6" opacity="0.82"/>
<text x="208.2" y="266.0" text-anchor="middle" font-size="8" fill="white" font-weight="bold" font-family="monospace">Pro13</text>
<text x="208.2" y="276.0" text-anchor="middle" font-size="7" fill="white" font-family="monospace">8.48"</text>
<line x1="259.5" y1="285.0" x2="332.0" y2="285.0" stroke="#888" stroke-width="1" stroke-dasharray="3,2"/>
<text x="295.7" y="282.0" text-anchor="middle" font-size="8" fill="#888" font-family="monospace">Y=6.00"</text>
<rect x="332.0" y="250.0" width="102.2" height="70" rx="2" fill="#9B59B6" opacity="0.82"/>
<text x="383.1" y="266.0" text-anchor="middle" font-size="8" fill="white" font-weight="bold" font-family="monospace">Air13</text>
<text x="383.1" y="276.0" text-anchor="middle" font-size="7" fill="white" font-family="monospace">8.46"</text>
<line x1="434.2" y1="285.0" x2="506.7" y2="285.0" stroke="#888" stroke-width="1" stroke-dasharray="3,2"/>
<text x="470.4" y="282.0" text-anchor="middle" font-size="8" fill="#888" font-family="monospace">Y=6.00"</text>
<rect x="506.7" y="250.0" width="84.5" height="70" rx="2" fill="#9B59B6" opacity="0.82"/>
<text x="548.9" y="266.0" text-anchor="middle" font-size="8" fill="white" font-weight="bold" font-family="monospace">Pro11</text>
<text x="548.9" y="276.0" text-anchor="middle" font-size="7" fill="white" font-family="monospace">6.99"</text>
<line x1="591.2" y1="285.0" x2="663.7" y2="285.0" stroke="#888" stroke-width="1" stroke-dasharray="3,2"/>
<text x="627.4" y="282.0" text-anchor="middle" font-size="8" fill="#888" font-family="monospace">Y=6.00"</text>
<rect x="663.7" y="250.0" width="84.8" height="70" rx="2" fill="#9B59B6" opacity="0.82"/>
<text x="706.1" y="266.0" text-anchor="middle" font-size="8" fill="white" font-weight="bold" font-family="monospace">Air11</text>
<text x="706.1" y="276.0" text-anchor="middle" font-size="7" fill="white" font-family="monospace">7.02"</text>
<rect x="845.8" y="244" width="325.5" height="82" rx="4" fill="#9B59B6" opacity="0.07" stroke="#9B59B6" stroke-width="1.5"/>
<rect x="845.8" y="250.0" width="36.3" height="70" rx="2" fill="#5CB85C" opacity="0.9"/>
<text x="863.9" y="289.0" text-anchor="middle" font-size="8" font-weight="bold" fill="white" font-family="monospace">S</text>
<text x="1008.6" y="232.0" text-anchor="middle" font-size="9" fill="#9B59B6" font-weight="bold" font-family="monospace">B2big [26.94"]</text>
<rect x="894.1" y="250.0" width="102.5" height="70" rx="2" fill="#9B59B6" opacity="0.82"/>
<text x="945.4" y="266.0" text-anchor="middle" font-size="8" fill="white" font-weight="bold" font-family="monospace">Pro13</text>
<text x="945.4" y="276.0" text-anchor="middle" font-size="7" fill="white" font-family="monospace">8.48"</text>
<line x1="996.6" y1="285.0" x2="1069.1" y2="285.0" stroke="#888" stroke-width="1" stroke-dasharray="3,2"/>
<text x="1032.9" y="282.0" text-anchor="middle" font-size="8" fill="#888" font-family="monospace">Y=6.00"</text>
<rect x="1069.1" y="250.0" width="102.2" height="70" rx="2" fill="#9B59B6" opacity="0.82"/>
<text x="1120.2" y="266.0" text-anchor="middle" font-size="8" fill="white" font-weight="bold" font-family="monospace">Air13</text>
<text x="1120.2" y="276.0" text-anchor="middle" font-size="7" fill="white" font-family="monospace">8.46"</text>
<line x1="748.5" y1="340.0" x2="845.8" y2="340.0" stroke="#aaa" stroke-width="1.5" stroke-dasharray="4,3"/>
<text x="797.1" y="338.0" text-anchor="middle" font-size="9" fill="#555" font-family="monospace">X=8.055"</text>
<text x="84.3" y="338.0" text-anchor="middle" font-size="9" fill="#E84393" font-family="monospace">4.027"</text>
<text x="1195.7" y="338.0" text-anchor="middle" font-size="9" fill="#E84393" font-family="monospace">4.028"</text>


  <!-- Center alignment guides -->
  <line x1="253.3" y1="190.0" x2="428.6" y2="240" stroke="#ccc" stroke-width="1.5" stroke-dasharray="2,5" opacity="0.8"/>
<line x1="640.0" y1="190.0" x2="1008.6" y2="240" stroke="#ccc" stroke-width="1.5" stroke-dasharray="2,5" opacity="0.8"/>


  <!-- Centre rail divider -->
  <line x1="60" y1="215" x2="1220" y2="215"
        stroke="#eee" stroke-width="1" stroke-dasharray="6,4"/>
  <text x="640" y="219.0" text-anchor="middle" font-size="9" fill="#ccc">← 展台中心 →</text>

  <!-- Info panel -->
  <rect x="20" y="372" width="1240" height="44" rx="4" fill="white" stroke="#ddd" stroke-width="1"/>
  <text font-size="10" fill="#444" font-family="monospace">
    <tspan x="28" y="388">
      验算：Y(组内)=4" · 通用间距原则 X=(A-B)÷C，边缘=X÷2 · mode=系列(assortment)
    </tspan>
    <tspan x="28" dy="14" fill="#2a9d2a">✓ 上下两排计算均正确，组宽、X间距、边缘、Y组内间距全部通过</tspan>
  </text>
  <!-- Note -->
  <text x="28" y="448" font-size="9" fill="#999" font-family="monospace">备注：3 vs 2 → 系列展示，双侧独立计算</text>

  <!-- Legend -->
  <rect x="20" y="466" width="12" height="12" rx="2" fill="#4A90D9"/>
  <text x="36" y="477" font-size="10" fill="#555">A系列组（A16/mini）</text>
  <rect x="170" y="466" width="12" height="12" rx="2" fill="#9B59B6"/>
  <text x="186" y="477" font-size="10" fill="#555">B系列组（Pro/Air）</text>
  <rect x="330" y="466" width="12" height="12" rx="2" fill="#5CB85C"/>
  <text x="346" y="477" font-size="10" fill="#555">2×3 Lead Sign (3"+1"gap)</text>
  <text x="1260" y="477" text-anchor="end" font-size="9" fill="#ccc">Generated 2026-03-07</text>
</svg>