<?xml version="1.0" encoding="UTF-8"?>
<svg xmlns="http://www.w3.org/2000/svg" width="1280" height="490" viewBox="0 0 1280 490">
  <style>text { font-family: 'PingFang SC','Microsoft YaHei',Arial,sans-serif; }</style>

  <!-- Background -->
  <rect width="1280" height="490" fill="#f7f8fa"/>

  <!-- Title bar -->
  <rect x="0" y="0" width="1280" height="48" fill="#1d1d1f"/>
  <text x="20" y="19" font-size="13" fill="white" font-weight="bold">GRP18 — 120" (10-ft) · S4 · 三小组 vs 一大一小</text>
  <text x="20" y="37" font-size="11" fill="#aaa">系列展示桌 · 全竖放 · 每组一块 2×3 标牌 · Y=5" @key120"</text>
  <rect x="1200" y="7" width="62" height="26" rx="5" fill="#2a9d2a"/>
  <text x="1231" y="25" text-anchor="middle" font-size="14" font-weight="bold" fill="white">PASS</text>

  <!-- Table surface -->
  <rect x="60" y="82" width="1160" height="266" rx="4"
        fill="white" stroke="#ccc" stroke-width="1.5"/>

  <!-- Table width ruler -->
  <line x1="60" y1="72" x2="1220" y2="72" stroke="#bbb" stroke-width="1"/>
  <line x1="60" y1="67" x2="60" y2="77" stroke="#bbb" stroke-width="1"/>
  <line x1="1220" y1="67" x2="1220" y2="77" stroke="#bbb" stroke-width="1"/>
  <text x="640" y="85" text-anchor="middle" font-size="11" fill="#555">120"</text>

  <!-- Top rail -->
  <rect x="60" y="100" width="1160" height="90" rx="3" fill="#f4f6ff" stroke="#dde" stroke-width="1"/>
<text x="60" y="95" font-size="10" fill="#555" font-family="monospace">上排：A16+mini | A16+mini | Air13+Air11 — B=70.22" · C=3 · X=16.593" · edge=8.297"</text>
<rect x="140.2" y="104" width="216.2" height="82" rx="4" fill="#4A90D9" opacity="0.07" stroke="#4A90D9" stroke-width="1.5"/>
<rect x="140.2" y="110.0" width="29.0" height="70" rx="2" fill="#5CB85C" opacity="0.9"/>
<text x="154.7" y="149.0" text-anchor="middle" font-size="8" font-weight="bold" fill="white" font-family="monospace">S</text>
<text x="248.3" y="92.0" text-anchor="middle" font-size="9" fill="#4A90D9" font-weight="bold" font-family="monospace">A2 [22.37"]</text>
<rect x="178.9" y="110.0" width="68.3" height="70" rx="2" fill="#4A90D9" opacity="0.82"/>
<text x="213.0" y="126.0" text-anchor="middle" font-size="8" fill="white" font-weight="bold" font-family="monospace">A16</text>
<text x="213.0" y="136.0" text-anchor="middle" font-size="7" fill="white" font-family="monospace">7.07"</text>
<line x1="247.2" y1="145.0" x2="305.2" y2="145.0" stroke="#888" stroke-width="1" stroke-dasharray="3,2"/>
<text x="276.2" y="142.0" text-anchor="middle" font-size="8" fill="#888" font-family="monospace">Y=6.00"</text>
<rect x="305.2" y="110.0" width="51.2" height="70" rx="2" fill="#4A90D9" opacity="0.82"/>
<text x="330.8" y="126.0" text-anchor="middle" font-size="8" fill="white" font-weight="bold" font-family="monospace">mini</text>
<text x="330.8" y="136.0" text-anchor="middle" font-size="7" fill="white" font-family="monospace">5.30"</text>
<rect x="516.8" y="104" width="216.2" height="82" rx="4" fill="#4A90D9" opacity="0.07" stroke="#4A90D9" stroke-width="1.5"/>
<rect x="516.8" y="110.0" width="29.0" height="70" rx="2" fill="#5CB85C" opacity="0.9"/>
<text x="531.3" y="149.0" text-anchor="middle" font-size="8" font-weight="bold" fill="white" font-family="monospace">S</text>
<text x="625.0" y="92.0" text-anchor="middle" font-size="9" fill="#4A90D9" font-weight="bold" font-family="monospace">A2 [22.37"]</text>
<rect x="555.5" y="110.0" width="68.3" height="70" rx="2" fill="#4A90D9" opacity="0.82"/>
<text x="589.7" y="126.0" text-anchor="middle" font-size="8" fill="white" font-weight="bold" font-family="monospace">A16</text>
<text x="589.7" y="136.0" text-anchor="middle" font-size="7" fill="white" font-family="monospace">7.07"</text>
<line x1="623.9" y1="145.0" x2="681.9" y2="145.0" stroke="#888" stroke-width="1" stroke-dasharray="3,2"/>
<text x="652.9" y="142.0" text-anchor="middle" font-size="8" fill="#888" font-family="monospace">Y=6.00"</text>
<rect x="681.9" y="110.0" width="51.2" height="70" rx="2" fill="#4A90D9" opacity="0.82"/>
<text x="707.5" y="126.0" text-anchor="middle" font-size="8" fill="white" font-weight="bold" font-family="monospace">mini</text>
<text x="707.5" y="136.0" text-anchor="middle" font-size="7" fill="white" font-family="monospace">5.30"</text>
<rect x="893.5" y="104" width="246.3" height="82" rx="4" fill="#9B59B6" opacity="0.07" stroke="#9B59B6" stroke-width="1.5"/>
<rect x="893.5" y="110.0" width="29.0" height="70" rx="2" fill="#5CB85C" opacity="0.9"/>
<text x="908.0" y="149.0" text-anchor="middle" font-size="8" font-weight="bold" fill="white" font-family="monospace">S</text>
<text x="1016.6" y="92.0" text-anchor="middle" font-size="9" fill="#9B59B6" font-weight="bold" font-family="monospace">Bair [25.48"]</text>
<rect x="932.2" y="110.0" width="81.8" height="70" rx="2" fill="#9B59B6" opacity="0.82"/>
<text x="973.0" y="126.0" text-anchor="middle" font-size="8" fill="white" font-weight="bold" font-family="monospace">Air13</text>
<text x="973.0" y="136.0" text-anchor="middle" font-size="7" fill="white" font-family="monospace">8.46"</text>
<line x1="1013.9" y1="145.0" x2="1071.9" y2="145.0" stroke="#888" stroke-width="1" stroke-dasharray="3,2"/>
<text x="1042.9" y="142.0" text-anchor="middle" font-size="8" fill="#888" font-family="monospace">Y=6.00"</text>
<rect x="1071.9" y="110.0" width="67.9" height="70" rx="2" fill="#9B59B6" opacity="0.82"/>
<text x="1105.9" y="126.0" text-anchor="middle" font-size="8" fill="white" font-weight="bold" font-family="monospace">Air11</text>
<text x="1105.9" y="136.0" text-anchor="middle" font-size="7" fill="white" font-family="monospace">7.02"</text>
<line x1="356.4" y1="200.0" x2="516.8" y2="200.0" stroke="#aaa" stroke-width="1.5" stroke-dasharray="4,3"/>
<text x="436.6" y="198.0" text-anchor="middle" font-size="9" fill="#555" font-family="monospace">X=16.593"</text>
<line x1="733.1" y1="200.0" x2="893.5" y2="200.0" stroke="#aaa" stroke-width="1.5" stroke-dasharray="4,3"/>
<text x="813.3" y="198.0" text-anchor="middle" font-size="9" fill="#555" font-family="monospace">X=16.593"</text>
<text x="100.1" y="198.0" text-anchor="middle" font-size="9" fill="#E84393" font-family="monospace">8.297"</text>
<text x="1179.9" y="198.0" text-anchor="middle" font-size="9" fill="#E84393" font-family="monospace">8.297"</text>


  <!-- Bottom rail -->
  <rect x="60" y="240" width="1160" height="90" rx="3" fill="#f4f6ff" stroke="#dde" stroke-width="1"/>
<text x="60" y="235" font-size="10" fill="#555" font-family="monospace">下排：Pro13+Air13+Pro11+Air11 | A16+mini — B=75.32" · C=2 · X=22.340" · edge=11.170"</text>
<rect x="168.0" y="244" width="511.9" height="82" rx="4" fill="#9B59B6" opacity="0.07" stroke="#9B59B6" stroke-width="1.5"/>
<rect x="168.0" y="250.0" width="29.0" height="70" rx="2" fill="#5CB85C" opacity="0.9"/>
<text x="182.5" y="289.0" text-anchor="middle" font-size="8" font-weight="bold" fill="white" font-family="monospace">S</text>
<text x="423.9" y="232.0" text-anchor="middle" font-size="9" fill="#9B59B6" font-weight="bold" font-family="monospace">B4 [52.95"]</text>
<rect x="206.6" y="250.0" width="82.0" height="70" rx="2" fill="#9B59B6" opacity="0.82"/>
<text x="247.6" y="266.0" text-anchor="middle" font-size="8" fill="white" font-weight="bold" font-family="monospace">Pro13</text>
<text x="247.6" y="276.0" text-anchor="middle" font-size="7" fill="white" font-family="monospace">8.48"</text>
<line x1="288.6" y1="285.0" x2="346.6" y2="285.0" stroke="#888" stroke-width="1" stroke-dasharray="3,2"/>
<text x="317.6" y="282.0" text-anchor="middle" font-size="8" fill="#888" font-family="monospace">Y=6.00"</text>
<rect x="346.6" y="250.0" width="81.8" height="70" rx="2" fill="#9B59B6" opacity="0.82"/>
<text x="387.5" y="266.0" text-anchor="middle" font-size="8" fill="white" font-weight="bold" font-family="monospace">Air13</text>
<text x="387.5" y="276.0" text-anchor="middle" font-size="7" fill="white" font-family="monospace">8.46"</text>
<line x1="428.4" y1="285.0" x2="486.4" y2="285.0" stroke="#888" stroke-width="1" stroke-dasharray="3,2"/>
<text x="457.4" y="282.0" text-anchor="middle" font-size="8" fill="#888" font-family="monospace">Y=6.00"</text>
<rect x="486.4" y="250.0" width="67.6" height="70" rx="2" fill="#9B59B6" opacity="0.82"/>
<text x="520.2" y="266.0" text-anchor="middle" font-size="8" fill="white" font-weight="bold" font-family="monospace">Pro11</text>
<text x="520.2" y="276.0" text-anchor="middle" font-size="7" fill="white" font-family="monospace">6.99"</text>
<line x1="554.0" y1="285.0" x2="612.0" y2="285.0" stroke="#888" stroke-width="1" stroke-dasharray="3,2"/>
<text x="583.0" y="282.0" text-anchor="middle" font-size="8" fill="#888" font-family="monospace">Y=6.00"</text>
<rect x="612.0" y="250.0" width="67.9" height="70" rx="2" fill="#9B59B6" opacity="0.82"/>
<text x="645.9" y="266.0" text-anchor="middle" font-size="8" fill="white" font-weight="bold" font-family="monospace">Air11</text>
<text x="645.9" y="276.0" text-anchor="middle" font-size="7" fill="white" font-family="monospace">7.02"</text>
<rect x="895.8" y="244" width="216.2" height="82" rx="4" fill="#4A90D9" opacity="0.07" stroke="#4A90D9" stroke-width="1.5"/>
<rect x="895.8" y="250.0" width="29.0" height="70" rx="2" fill="#5CB85C" opacity="0.9"/>
<text x="910.3" y="289.0" text-anchor="middle" font-size="8" font-weight="bold" fill="white" font-family="monospace">S</text>
<text x="1003.9" y="232.0" text-anchor="middle" font-size="9" fill="#4A90D9" font-weight="bold" font-family="monospace">A2 [22.37"]</text>
<rect x="934.4" y="250.0" width="68.3" height="70" rx="2" fill="#4A90D9" opacity="0.82"/>
<text x="968.6" y="266.0" text-anchor="middle" font-size="8" fill="white" font-weight="bold" font-family="monospace">A16</text>
<text x="968.6" y="276.0" text-anchor="middle" font-size="7" fill="white" font-family="monospace">7.07"</text>
<line x1="1002.8" y1="285.0" x2="1060.8" y2="285.0" stroke="#888" stroke-width="1" stroke-dasharray="3,2"/>
<text x="1031.8" y="282.0" text-anchor="middle" font-size="8" fill="#888" font-family="monospace">Y=6.00"</text>
<rect x="1060.8" y="250.0" width="51.2" height="70" rx="2" fill="#4A90D9" opacity="0.82"/>
<text x="1086.4" y="266.0" text-anchor="middle" font-size="8" fill="white" font-weight="bold" font-family="monospace">mini</text>
<text x="1086.4" y="276.0" text-anchor="middle" font-size="7" fill="white" font-family="monospace">5.30"</text>
<line x1="679.8" y1="340.0" x2="895.8" y2="340.0" stroke="#aaa" stroke-width="1.5" stroke-dasharray="4,3"/>
<text x="787.8" y="338.0" text-anchor="middle" font-size="9" fill="#555" font-family="monospace">X=22.340"</text>
<text x="114.0" y="338.0" text-anchor="middle" font-size="9" fill="#E84393" font-family="monospace">11.170"</text>
<text x="1166.0" y="338.0" text-anchor="middle" font-size="9" fill="#E84393" font-family="monospace">11.170"</text>


  <!-- Center alignment guides -->
  <line x1="248.3" y1="190.0" x2="423.9" y2="240" stroke="#ccc" stroke-width="1.5" stroke-dasharray="2,5" opacity="0.8"/>
<line x1="625.0" y1="190.0" x2="1003.9" y2="240" stroke="#ccc" stroke-width="1.5" stroke-dasharray="2,5" opacity="0.8"/>


  <!-- Centre rail divider -->
  <line x1="60" y1="215" x2="1220" y2="215"
        stroke="#eee" stroke-width="1" stroke-dasharray="6,4"/>
  <text x="640" y="219.0" text-anchor="middle" font-size="9" fill="#ccc">← 展台中心 →</text>

  <!-- Info panel -->
  <rect x="20" y="372" width="1240" height="44" rx="4" fill="white" stroke="#ddd" stroke-width="1"/>
  <text font-size="10" fill="#444" font-family="monospace">
    <tspan x="28" y="388">
      验算：Y(组内)=5" · 通用间距原则 X=(A-B)÷C，边缘=X÷2 · mode=系列(assortment)
    </tspan>
    <tspan x="28" dy="14" fill="#2a9d2a">✓ 上下两排计算均正确，组宽、X间距、边缘、Y组内间距全部通过</tspan>
  </text>
  <!-- Note -->
  <text x="28" y="448" font-size="9" fill="#999" font-family="monospace">备注：3 vs 2 → 系列展示，双侧独立计算</text>

  <!-- Legend -->
  <rect x="20" y="466" width="12" height="12" rx="2" fill="#4A90D9"/>
  <text x="36" y="477" font-size="10" fill="#555">A系列组（A16/mini）</text>
  <rect x="170" y="466" width="12" height="12" rx="2" fill="#9B59B6"/>
  <text x="186" y="477" font-size="10" fill="#555">B系列组（Pro/Air）</text>
  <rect x="330" y="466" width="12" height="12" rx="2" fill="#5CB85C"/>
  <text x="346" y="477" font-size="10" fill="#555">2×3 Lead Sign (3"+1"gap)</text>
  <text x="1260" y="477" text-anchor="end" font-size="9" fill="#ccc">Generated 2026-03-07</text>
</svg>