<?xml version="1.0" encoding="UTF-8"?>
<svg xmlns="http://www.w3.org/2000/svg" width="1280" height="490" viewBox="0 0 1280 490">
  <style>text { font-family: 'PingFang SC','Microsoft YaHei',Arial,sans-serif; }</style>

  <!-- Background -->
  <rect width="1280" height="490" fill="#f7f8fa"/>

  <!-- Title bar -->
  <rect x="0" y="0" width="1280" height="48" fill="#1d1d1f"/>
  <text x="20" y="19" font-size="13" fill="white" font-weight="bold">GRP12 — 96" (8-ft) · S5 · A全组+Pro对比 vs 两个中等 A 组</text>
  <text x="20" y="37" font-size="11" fill="#aaa">对比展示桌 · 全竖放 · 每组一块 2×3 标牌 · Y=4" @key96"</text>
  <rect x="1200" y="7" width="62" height="26" rx="5" fill="#2a9d2a"/>
  <text x="1231" y="25" text-anchor="middle" font-size="14" font-weight="bold" fill="white">PASS</text>

  <!-- Table surface -->
  <rect x="60" y="82" width="1160" height="266" rx="4"
        fill="white" stroke="#ccc" stroke-width="1.5"/>

  <!-- Table width ruler -->
  <line x1="60" y1="72" x2="1220" y2="72" stroke="#bbb" stroke-width="1"/>
  <line x1="60" y1="67" x2="60" y2="77" stroke="#bbb" stroke-width="1"/>
  <line x1="1220" y1="67" x2="1220" y2="77" stroke="#bbb" stroke-width="1"/>
  <text x="640" y="85" text-anchor="middle" font-size="11" fill="#555">96"</text>

  <!-- Top rail -->
  <rect x="60" y="100" width="1160" height="90" rx="3" fill="#f4f6ff" stroke="#dde" stroke-width="1"/>
<text x="60" y="95" font-size="10" fill="#555" font-family="monospace">上排：A16×4+mini×2 | Pro13+Pro11 — B=90.35" · C=2 · X=2.825" · edge=1.413"</text>
<rect x="77.1" y="104" width="784.0" height="82" rx="4" fill="#4A90D9" opacity="0.07" stroke="#4A90D9" stroke-width="1.5"/>
<rect x="77.1" y="110.0" width="36.3" height="70" rx="2" fill="#5CB85C" opacity="0.9"/>
<text x="95.2" y="149.0" text-anchor="middle" font-size="8" font-weight="bold" fill="white" font-family="monospace">S</text>
<text x="469.1" y="92.0" text-anchor="middle" font-size="9" fill="#4A90D9" font-weight="bold" font-family="monospace">A6 [64.88"]</text>
<rect x="125.4" y="110.0" width="85.4" height="70" rx="2" fill="#4A90D9" opacity="0.82"/>
<text x="168.1" y="126.0" text-anchor="middle" font-size="8" fill="white" font-weight="bold" font-family="monospace">A16</text>
<text x="168.1" y="136.0" text-anchor="middle" font-size="7" fill="white" font-family="monospace">7.07"</text>
<line x1="210.8" y1="145.0" x2="259.2" y2="145.0" stroke="#888" stroke-width="1" stroke-dasharray="3,2"/>
<text x="235.0" y="142.0" text-anchor="middle" font-size="8" fill="#888" font-family="monospace">Y=4.00"</text>
<rect x="259.2" y="110.0" width="85.4" height="70" rx="2" fill="#4A90D9" opacity="0.82"/>
<text x="301.9" y="126.0" text-anchor="middle" font-size="8" fill="white" font-weight="bold" font-family="monospace">A16</text>
<text x="301.9" y="136.0" text-anchor="middle" font-size="7" fill="white" font-family="monospace">7.07"</text>
<line x1="344.6" y1="145.0" x2="392.9" y2="145.0" stroke="#888" stroke-width="1" stroke-dasharray="3,2"/>
<text x="368.8" y="142.0" text-anchor="middle" font-size="8" fill="#888" font-family="monospace">Y=4.00"</text>
<rect x="392.9" y="110.0" width="85.4" height="70" rx="2" fill="#4A90D9" opacity="0.82"/>
<text x="435.6" y="126.0" text-anchor="middle" font-size="8" fill="white" font-weight="bold" font-family="monospace">A16</text>
<text x="435.6" y="136.0" text-anchor="middle" font-size="7" fill="white" font-family="monospace">7.07"</text>
<line x1="478.4" y1="145.0" x2="526.7" y2="145.0" stroke="#888" stroke-width="1" stroke-dasharray="3,2"/>
<text x="502.5" y="142.0" text-anchor="middle" font-size="8" fill="#888" font-family="monospace">Y=4.00"</text>
<rect x="526.7" y="110.0" width="85.4" height="70" rx="2" fill="#4A90D9" opacity="0.82"/>
<text x="569.4" y="126.0" text-anchor="middle" font-size="8" fill="white" font-weight="bold" font-family="monospace">A16</text>
<text x="569.4" y="136.0" text-anchor="middle" font-size="7" fill="white" font-family="monospace">7.07"</text>
<line x1="612.1" y1="145.0" x2="684.6" y2="145.0" stroke="#888" stroke-width="1" stroke-dasharray="3,2"/>
<text x="648.4" y="142.0" text-anchor="middle" font-size="8" fill="#888" font-family="monospace">Y=6.00"</text>
<rect x="684.6" y="110.0" width="64.0" height="70" rx="2" fill="#4A90D9" opacity="0.82"/>
<text x="716.6" y="126.0" text-anchor="middle" font-size="8" fill="white" font-weight="bold" font-family="monospace">mini</text>
<text x="716.6" y="136.0" text-anchor="middle" font-size="7" fill="white" font-family="monospace">5.30"</text>
<line x1="748.7" y1="145.0" x2="797.0" y2="145.0" stroke="#888" stroke-width="1" stroke-dasharray="3,2"/>
<text x="772.8" y="142.0" text-anchor="middle" font-size="8" fill="#888" font-family="monospace">Y=4.00"</text>
<rect x="797.0" y="110.0" width="64.0" height="70" rx="2" fill="#4A90D9" opacity="0.82"/>
<text x="829.0" y="126.0" text-anchor="middle" font-size="8" fill="white" font-weight="bold" font-family="monospace">mini</text>
<text x="829.0" y="136.0" text-anchor="middle" font-size="7" fill="white" font-family="monospace">5.30"</text>
<rect x="895.2" y="104" width="307.8" height="82" rx="4" fill="#9B59B6" opacity="0.07" stroke="#9B59B6" stroke-width="1.5"/>
<rect x="895.2" y="110.0" width="36.3" height="70" rx="2" fill="#5CB85C" opacity="0.9"/>
<text x="913.3" y="149.0" text-anchor="middle" font-size="8" font-weight="bold" fill="white" font-family="monospace">S</text>
<text x="1049.1" y="92.0" text-anchor="middle" font-size="9" fill="#9B59B6" font-weight="bold" font-family="monospace">B2pro [25.47"]</text>
<rect x="943.5" y="110.0" width="102.5" height="70" rx="2" fill="#9B59B6" opacity="0.82"/>
<text x="994.7" y="126.0" text-anchor="middle" font-size="8" fill="white" font-weight="bold" font-family="monospace">Pro13</text>
<text x="994.7" y="136.0" text-anchor="middle" font-size="7" fill="white" font-family="monospace">8.48"</text>
<line x1="1046.0" y1="145.0" x2="1118.5" y2="145.0" stroke="#888" stroke-width="1" stroke-dasharray="3,2"/>
<text x="1082.2" y="142.0" text-anchor="middle" font-size="8" fill="#888" font-family="monospace">Y=6.00"</text>
<rect x="1118.5" y="110.0" width="84.5" height="70" rx="2" fill="#9B59B6" opacity="0.82"/>
<text x="1160.7" y="126.0" text-anchor="middle" font-size="8" fill="white" font-weight="bold" font-family="monospace">Pro11</text>
<text x="1160.7" y="136.0" text-anchor="middle" font-size="7" fill="white" font-family="monospace">6.99"</text>
<line x1="861.0" y1="200.0" x2="895.2" y2="200.0" stroke="#aaa" stroke-width="1.5" stroke-dasharray="4,3"/>
<text x="878.1" y="198.0" text-anchor="middle" font-size="9" fill="#555" font-family="monospace">X=2.825"</text>
<text x="68.5" y="198.0" text-anchor="middle" font-size="9" fill="#E84393" font-family="monospace">1.413"</text>
<text x="1211.5" y="198.0" text-anchor="middle" font-size="9" fill="#E84393" font-family="monospace">1.412"</text>


  <!-- Bottom rail -->
  <rect x="60" y="240" width="1160" height="90" rx="3" fill="#f4f6ff" stroke="#dde" stroke-width="1"/>
<text x="60" y="235" font-size="10" fill="#555" font-family="monospace">下排：A16×2+mini | A16×2+mini — B=66.88" · C=2 · X=14.560" · edge=7.280"</text>
<rect x="148.0" y="244" width="404.1" height="82" rx="4" fill="#4A90D9" opacity="0.07" stroke="#4A90D9" stroke-width="1.5"/>
<rect x="148.0" y="250.0" width="36.3" height="70" rx="2" fill="#5CB85C" opacity="0.9"/>
<text x="166.1" y="289.0" text-anchor="middle" font-size="8" font-weight="bold" fill="white" font-family="monospace">S</text>
<text x="350.0" y="232.0" text-anchor="middle" font-size="9" fill="#4A90D9" font-weight="bold" font-family="monospace">A3 [33.44"]</text>
<rect x="196.3" y="250.0" width="85.4" height="70" rx="2" fill="#4A90D9" opacity="0.82"/>
<text x="239.0" y="266.0" text-anchor="middle" font-size="8" fill="white" font-weight="bold" font-family="monospace">A16</text>
<text x="239.0" y="276.0" text-anchor="middle" font-size="7" fill="white" font-family="monospace">7.07"</text>
<line x1="281.7" y1="285.0" x2="330.1" y2="285.0" stroke="#888" stroke-width="1" stroke-dasharray="3,2"/>
<text x="305.9" y="282.0" text-anchor="middle" font-size="8" fill="#888" font-family="monospace">Y=4.00"</text>
<rect x="330.1" y="250.0" width="85.4" height="70" rx="2" fill="#4A90D9" opacity="0.82"/>
<text x="372.8" y="266.0" text-anchor="middle" font-size="8" fill="white" font-weight="bold" font-family="monospace">A16</text>
<text x="372.8" y="276.0" text-anchor="middle" font-size="7" fill="white" font-family="monospace">7.07"</text>
<line x1="415.5" y1="285.0" x2="488.0" y2="285.0" stroke="#888" stroke-width="1" stroke-dasharray="3,2"/>
<text x="451.7" y="282.0" text-anchor="middle" font-size="8" fill="#888" font-family="monospace">Y=6.00"</text>
<rect x="488.0" y="250.0" width="64.0" height="70" rx="2" fill="#4A90D9" opacity="0.82"/>
<text x="520.0" y="266.0" text-anchor="middle" font-size="8" fill="white" font-weight="bold" font-family="monospace">mini</text>
<text x="520.0" y="276.0" text-anchor="middle" font-size="7" fill="white" font-family="monospace">5.30"</text>
<rect x="728.0" y="244" width="404.1" height="82" rx="4" fill="#4A90D9" opacity="0.07" stroke="#4A90D9" stroke-width="1.5"/>
<rect x="728.0" y="250.0" width="36.3" height="70" rx="2" fill="#5CB85C" opacity="0.9"/>
<text x="746.1" y="289.0" text-anchor="middle" font-size="8" font-weight="bold" fill="white" font-family="monospace">S</text>
<text x="930.0" y="232.0" text-anchor="middle" font-size="9" fill="#4A90D9" font-weight="bold" font-family="monospace">A3 [33.44"]</text>
<rect x="776.3" y="250.0" width="85.4" height="70" rx="2" fill="#4A90D9" opacity="0.82"/>
<text x="819.0" y="266.0" text-anchor="middle" font-size="8" fill="white" font-weight="bold" font-family="monospace">A16</text>
<text x="819.0" y="276.0" text-anchor="middle" font-size="7" fill="white" font-family="monospace">7.07"</text>
<line x1="861.7" y1="285.0" x2="910.1" y2="285.0" stroke="#888" stroke-width="1" stroke-dasharray="3,2"/>
<text x="885.9" y="282.0" text-anchor="middle" font-size="8" fill="#888" font-family="monospace">Y=4.00"</text>
<rect x="910.1" y="250.0" width="85.4" height="70" rx="2" fill="#4A90D9" opacity="0.82"/>
<text x="952.8" y="266.0" text-anchor="middle" font-size="8" fill="white" font-weight="bold" font-family="monospace">A16</text>
<text x="952.8" y="276.0" text-anchor="middle" font-size="7" fill="white" font-family="monospace">7.07"</text>
<line x1="995.5" y1="285.0" x2="1068.0" y2="285.0" stroke="#888" stroke-width="1" stroke-dasharray="3,2"/>
<text x="1031.7" y="282.0" text-anchor="middle" font-size="8" fill="#888" font-family="monospace">Y=6.00"</text>
<rect x="1068.0" y="250.0" width="64.0" height="70" rx="2" fill="#4A90D9" opacity="0.82"/>
<text x="1100.0" y="266.0" text-anchor="middle" font-size="8" fill="white" font-weight="bold" font-family="monospace">mini</text>
<text x="1100.0" y="276.0" text-anchor="middle" font-size="7" fill="white" font-family="monospace">5.30"</text>
<line x1="552.0" y1="340.0" x2="728.0" y2="340.0" stroke="#aaa" stroke-width="1.5" stroke-dasharray="4,3"/>
<text x="640.0" y="338.0" text-anchor="middle" font-size="9" fill="#555" font-family="monospace">X=14.560"</text>
<text x="104.0" y="338.0" text-anchor="middle" font-size="9" fill="#E84393" font-family="monospace">7.280"</text>
<text x="1176.0" y="338.0" text-anchor="middle" font-size="9" fill="#E84393" font-family="monospace">7.280"</text>


  <!-- Center alignment guides -->
  <line x1="469.1" y1="190.0" x2="350.0" y2="240" stroke="#cc2222" stroke-width="1.5" stroke-dasharray="5,3" opacity="0.8"/>
<text x="469.1" y="215.0" text-anchor="middle" font-size="8" fill="#cc2222" font-family="monospace">Δ=9.852"</text>
<line x1="1049.1" y1="190.0" x2="930.0" y2="240" stroke="#cc2222" stroke-width="1.5" stroke-dasharray="5,3" opacity="0.8"/>
<text x="1049.1" y="215.0" text-anchor="middle" font-size="8" fill="#cc2222" font-family="monospace">Δ=9.853"</text>


  <!-- Centre rail divider -->
  <line x1="60" y1="215" x2="1220" y2="215"
        stroke="#eee" stroke-width="1" stroke-dasharray="6,4"/>
  <text x="640" y="219.0" text-anchor="middle" font-size="9" fill="#ccc">← 展台中心 →</text>

  <!-- Info panel -->
  <rect x="20" y="372" width="1240" height="44" rx="4" fill="white" stroke="#ddd" stroke-width="1"/>
  <text font-size="10" fill="#444" font-family="monospace">
    <tspan x="28" y="388">
      验算：Y(组内)=4" · 通用间距原则 X=(A-B)÷C，边缘=X÷2 · mode=对比(comparison)
    </tspan>
    <tspan x="28" dy="14" fill="#2a9d2a">✓ 上下两排计算均正确，组宽、X间距、边缘、Y组内间距全部通过</tspan>
  </text>
  <!-- Note -->
  <text x="28" y="448" font-size="9" fill="#999" font-family="monospace">备注：2 vs 2 → 对比模式，中心核查</text>

  <!-- Legend -->
  <rect x="20" y="466" width="12" height="12" rx="2" fill="#4A90D9"/>
  <text x="36" y="477" font-size="10" fill="#555">A系列组（A16/mini）</text>
  <rect x="170" y="466" width="12" height="12" rx="2" fill="#9B59B6"/>
  <text x="186" y="477" font-size="10" fill="#555">B系列组（Pro/Air）</text>
  <rect x="330" y="466" width="12" height="12" rx="2" fill="#5CB85C"/>
  <text x="346" y="477" font-size="10" fill="#555">2×3 Lead Sign (3"+1"gap)</text>
  <text x="1260" y="477" text-anchor="end" font-size="9" fill="#ccc">Generated 2026-03-07</text>
</svg>