<?xml version="1.0" encoding="UTF-8"?>
<svg xmlns="http://www.w3.org/2000/svg" width="1280" height="490" viewBox="0 0 1280 490">
  <style>text { font-family: 'PingFang SC','Microsoft YaHei',Arial,sans-serif; }</style>

  <!-- Background -->
  <rect width="1280" height="490" fill="#f7f8fa"/>

  <!-- Title bar -->
  <rect x="0" y="0" width="1280" height="48" fill="#1d1d1f"/>
  <text x="20" y="19" font-size="13" fill="white" font-weight="bold">GRP26 — 144" (12-ft) · S5 · A全组+Pro对比 vs 两个中等 A 组</text>
  <text x="20" y="37" font-size="11" fill="#aaa">对比展示桌 · 全竖放 · 每组一块 2×3 标牌 · Y=5" @key144"</text>
  <rect x="1200" y="7" width="62" height="26" rx="5" fill="#2a9d2a"/>
  <text x="1231" y="25" text-anchor="middle" font-size="14" font-weight="bold" fill="white">PASS</text>

  <!-- Table surface -->
  <rect x="60" y="82" width="1160" height="266" rx="4"
        fill="white" stroke="#ccc" stroke-width="1.5"/>

  <!-- Table width ruler -->
  <line x1="60" y1="72" x2="1220" y2="72" stroke="#bbb" stroke-width="1"/>
  <line x1="60" y1="67" x2="60" y2="77" stroke="#bbb" stroke-width="1"/>
  <line x1="1220" y1="67" x2="1220" y2="77" stroke="#bbb" stroke-width="1"/>
  <text x="640" y="85" text-anchor="middle" font-size="11" fill="#555">144"</text>

  <!-- Top rail -->
  <rect x="60" y="100" width="1160" height="90" rx="3" fill="#f4f6ff" stroke="#dde" stroke-width="1"/>
<text x="60" y="95" font-size="10" fill="#555" font-family="monospace">上排：A16×4+mini×2 | Pro13+Pro11 — B=94.35" · C=2 · X=24.825" · edge=12.413"</text>
<rect x="160.0" y="104" width="554.9" height="82" rx="4" fill="#4A90D9" opacity="0.07" stroke="#4A90D9" stroke-width="1.5"/>
<rect x="160.0" y="110.0" width="24.2" height="70" rx="2" fill="#5CB85C" opacity="0.9"/>
<text x="172.1" y="149.0" text-anchor="middle" font-size="8" font-weight="bold" fill="white" font-family="monospace">S</text>
<text x="437.4" y="92.0" text-anchor="middle" font-size="9" fill="#4A90D9" font-weight="bold" font-family="monospace">A6 [68.88"]</text>
<rect x="192.2" y="110.0" width="57.0" height="70" rx="2" fill="#4A90D9" opacity="0.82"/>
<text x="220.7" y="126.0" text-anchor="middle" font-size="8" fill="white" font-weight="bold" font-family="monospace">A16</text>
<text x="220.7" y="136.0" text-anchor="middle" font-size="7" fill="white" font-family="monospace">7.07"</text>
<line x1="249.2" y1="145.0" x2="289.4" y2="145.0" stroke="#888" stroke-width="1" stroke-dasharray="3,2"/>
<text x="269.3" y="142.0" text-anchor="middle" font-size="8" fill="#888" font-family="monospace">Y=5.00"</text>
<rect x="289.4" y="110.0" width="57.0" height="70" rx="2" fill="#4A90D9" opacity="0.82"/>
<text x="317.9" y="126.0" text-anchor="middle" font-size="8" fill="white" font-weight="bold" font-family="monospace">A16</text>
<text x="317.9" y="136.0" text-anchor="middle" font-size="7" fill="white" font-family="monospace">7.07"</text>
<line x1="346.4" y1="145.0" x2="386.7" y2="145.0" stroke="#888" stroke-width="1" stroke-dasharray="3,2"/>
<text x="366.5" y="142.0" text-anchor="middle" font-size="8" fill="#888" font-family="monospace">Y=5.00"</text>
<rect x="386.7" y="110.0" width="57.0" height="70" rx="2" fill="#4A90D9" opacity="0.82"/>
<text x="415.1" y="126.0" text-anchor="middle" font-size="8" fill="white" font-weight="bold" font-family="monospace">A16</text>
<text x="415.1" y="136.0" text-anchor="middle" font-size="7" fill="white" font-family="monospace">7.07"</text>
<line x1="443.6" y1="145.0" x2="483.9" y2="145.0" stroke="#888" stroke-width="1" stroke-dasharray="3,2"/>
<text x="463.8" y="142.0" text-anchor="middle" font-size="8" fill="#888" font-family="monospace">Y=5.00"</text>
<rect x="483.9" y="110.0" width="57.0" height="70" rx="2" fill="#4A90D9" opacity="0.82"/>
<text x="512.4" y="126.0" text-anchor="middle" font-size="8" fill="white" font-weight="bold" font-family="monospace">A16</text>
<text x="512.4" y="136.0" text-anchor="middle" font-size="7" fill="white" font-family="monospace">7.07"</text>
<line x1="540.9" y1="145.0" x2="589.2" y2="145.0" stroke="#888" stroke-width="1" stroke-dasharray="3,2"/>
<text x="565.0" y="142.0" text-anchor="middle" font-size="8" fill="#888" font-family="monospace">Y=6.00"</text>
<rect x="589.2" y="110.0" width="42.7" height="70" rx="2" fill="#4A90D9" opacity="0.82"/>
<text x="610.5" y="126.0" text-anchor="middle" font-size="8" fill="white" font-weight="bold" font-family="monospace">mini</text>
<text x="610.5" y="136.0" text-anchor="middle" font-size="7" fill="white" font-family="monospace">5.30"</text>
<line x1="631.9" y1="145.0" x2="672.2" y2="145.0" stroke="#888" stroke-width="1" stroke-dasharray="3,2"/>
<text x="652.0" y="142.0" text-anchor="middle" font-size="8" fill="#888" font-family="monospace">Y=5.00"</text>
<rect x="672.2" y="110.0" width="42.7" height="70" rx="2" fill="#4A90D9" opacity="0.82"/>
<text x="693.5" y="126.0" text-anchor="middle" font-size="8" fill="white" font-weight="bold" font-family="monospace">mini</text>
<text x="693.5" y="136.0" text-anchor="middle" font-size="7" fill="white" font-family="monospace">5.30"</text>
<rect x="914.8" y="104" width="205.2" height="82" rx="4" fill="#9B59B6" opacity="0.07" stroke="#9B59B6" stroke-width="1.5"/>
<rect x="914.8" y="110.0" width="24.2" height="70" rx="2" fill="#5CB85C" opacity="0.9"/>
<text x="926.9" y="149.0" text-anchor="middle" font-size="8" font-weight="bold" fill="white" font-family="monospace">S</text>
<text x="1017.4" y="92.0" text-anchor="middle" font-size="9" fill="#9B59B6" font-weight="bold" font-family="monospace">B2pro [25.47"]</text>
<rect x="947.1" y="110.0" width="68.3" height="70" rx="2" fill="#9B59B6" opacity="0.82"/>
<text x="981.2" y="126.0" text-anchor="middle" font-size="8" fill="white" font-weight="bold" font-family="monospace">Pro13</text>
<text x="981.2" y="136.0" text-anchor="middle" font-size="7" fill="white" font-family="monospace">8.48"</text>
<line x1="1015.4" y1="145.0" x2="1063.7" y2="145.0" stroke="#888" stroke-width="1" stroke-dasharray="3,2"/>
<text x="1039.5" y="142.0" text-anchor="middle" font-size="8" fill="#888" font-family="monospace">Y=6.00"</text>
<rect x="1063.7" y="110.0" width="56.3" height="70" rx="2" fill="#9B59B6" opacity="0.82"/>
<text x="1091.9" y="126.0" text-anchor="middle" font-size="8" fill="white" font-weight="bold" font-family="monospace">Pro11</text>
<text x="1091.9" y="136.0" text-anchor="middle" font-size="7" fill="white" font-family="monospace">6.99"</text>
<line x1="714.9" y1="200.0" x2="914.8" y2="200.0" stroke="#aaa" stroke-width="1.5" stroke-dasharray="4,3"/>
<text x="814.8" y="198.0" text-anchor="middle" font-size="9" fill="#555" font-family="monospace">X=24.825"</text>
<text x="110.0" y="198.0" text-anchor="middle" font-size="9" fill="#E84393" font-family="monospace">12.413"</text>
<text x="1170.0" y="198.0" text-anchor="middle" font-size="9" fill="#E84393" font-family="monospace">12.412"</text>


  <!-- Bottom rail -->
  <rect x="60" y="240" width="1160" height="90" rx="3" fill="#f4f6ff" stroke="#dde" stroke-width="1"/>
<text x="60" y="235" font-size="10" fill="#555" font-family="monospace">下排：A16×2+mini | A16×2+mini — B=68.88" · C=2 · X=37.560" · edge=18.780"</text>
<rect x="211.3" y="244" width="277.4" height="82" rx="4" fill="#4A90D9" opacity="0.07" stroke="#4A90D9" stroke-width="1.5"/>
<rect x="211.3" y="250.0" width="24.2" height="70" rx="2" fill="#5CB85C" opacity="0.9"/>
<text x="223.4" y="289.0" text-anchor="middle" font-size="8" font-weight="bold" fill="white" font-family="monospace">S</text>
<text x="350.0" y="232.0" text-anchor="middle" font-size="9" fill="#4A90D9" font-weight="bold" font-family="monospace">A3 [34.44"]</text>
<rect x="243.5" y="250.0" width="57.0" height="70" rx="2" fill="#4A90D9" opacity="0.82"/>
<text x="272.0" y="266.0" text-anchor="middle" font-size="8" fill="white" font-weight="bold" font-family="monospace">A16</text>
<text x="272.0" y="276.0" text-anchor="middle" font-size="7" fill="white" font-family="monospace">7.07"</text>
<line x1="300.5" y1="285.0" x2="340.7" y2="285.0" stroke="#888" stroke-width="1" stroke-dasharray="3,2"/>
<text x="320.6" y="282.0" text-anchor="middle" font-size="8" fill="#888" font-family="monospace">Y=5.00"</text>
<rect x="340.7" y="250.0" width="57.0" height="70" rx="2" fill="#4A90D9" opacity="0.82"/>
<text x="369.2" y="266.0" text-anchor="middle" font-size="8" fill="white" font-weight="bold" font-family="monospace">A16</text>
<text x="369.2" y="276.0" text-anchor="middle" font-size="7" fill="white" font-family="monospace">7.07"</text>
<line x1="397.7" y1="285.0" x2="446.0" y2="285.0" stroke="#888" stroke-width="1" stroke-dasharray="3,2"/>
<text x="421.9" y="282.0" text-anchor="middle" font-size="8" fill="#888" font-family="monospace">Y=6.00"</text>
<rect x="446.0" y="250.0" width="42.7" height="70" rx="2" fill="#4A90D9" opacity="0.82"/>
<text x="467.4" y="266.0" text-anchor="middle" font-size="8" fill="white" font-weight="bold" font-family="monospace">mini</text>
<text x="467.4" y="276.0" text-anchor="middle" font-size="7" fill="white" font-family="monospace">5.30"</text>
<rect x="791.3" y="244" width="277.4" height="82" rx="4" fill="#4A90D9" opacity="0.07" stroke="#4A90D9" stroke-width="1.5"/>
<rect x="791.3" y="250.0" width="24.2" height="70" rx="2" fill="#5CB85C" opacity="0.9"/>
<text x="803.4" y="289.0" text-anchor="middle" font-size="8" font-weight="bold" fill="white" font-family="monospace">S</text>
<text x="930.0" y="232.0" text-anchor="middle" font-size="9" fill="#4A90D9" font-weight="bold" font-family="monospace">A3 [34.44"]</text>
<rect x="823.5" y="250.0" width="57.0" height="70" rx="2" fill="#4A90D9" opacity="0.82"/>
<text x="852.0" y="266.0" text-anchor="middle" font-size="8" fill="white" font-weight="bold" font-family="monospace">A16</text>
<text x="852.0" y="276.0" text-anchor="middle" font-size="7" fill="white" font-family="monospace">7.07"</text>
<line x1="880.5" y1="285.0" x2="920.7" y2="285.0" stroke="#888" stroke-width="1" stroke-dasharray="3,2"/>
<text x="900.6" y="282.0" text-anchor="middle" font-size="8" fill="#888" font-family="monospace">Y=5.00"</text>
<rect x="920.7" y="250.0" width="57.0" height="70" rx="2" fill="#4A90D9" opacity="0.82"/>
<text x="949.2" y="266.0" text-anchor="middle" font-size="8" fill="white" font-weight="bold" font-family="monospace">A16</text>
<text x="949.2" y="276.0" text-anchor="middle" font-size="7" fill="white" font-family="monospace">7.07"</text>
<line x1="977.7" y1="285.0" x2="1026.0" y2="285.0" stroke="#888" stroke-width="1" stroke-dasharray="3,2"/>
<text x="1001.9" y="282.0" text-anchor="middle" font-size="8" fill="#888" font-family="monospace">Y=6.00"</text>
<rect x="1026.0" y="250.0" width="42.7" height="70" rx="2" fill="#4A90D9" opacity="0.82"/>
<text x="1047.4" y="266.0" text-anchor="middle" font-size="8" fill="white" font-weight="bold" font-family="monospace">mini</text>
<text x="1047.4" y="276.0" text-anchor="middle" font-size="7" fill="white" font-family="monospace">5.30"</text>
<line x1="488.7" y1="340.0" x2="791.3" y2="340.0" stroke="#aaa" stroke-width="1.5" stroke-dasharray="4,3"/>
<text x="640.0" y="338.0" text-anchor="middle" font-size="9" fill="#555" font-family="monospace">X=37.560"</text>
<text x="135.6" y="338.0" text-anchor="middle" font-size="9" fill="#E84393" font-family="monospace">18.780"</text>
<text x="1144.4" y="338.0" text-anchor="middle" font-size="9" fill="#E84393" font-family="monospace">18.780"</text>


  <!-- Center alignment guides -->
  <line x1="437.4" y1="190.0" x2="350.0" y2="240" stroke="#cc2222" stroke-width="1.5" stroke-dasharray="5,3" opacity="0.8"/>
<text x="437.4" y="215.0" text-anchor="middle" font-size="8" fill="#cc2222" font-family="monospace">Δ=10.852"</text>
<line x1="1017.4" y1="190.0" x2="930.0" y2="240" stroke="#cc2222" stroke-width="1.5" stroke-dasharray="5,3" opacity="0.8"/>
<text x="1017.4" y="215.0" text-anchor="middle" font-size="8" fill="#cc2222" font-family="monospace">Δ=10.853"</text>


  <!-- Centre rail divider -->
  <line x1="60" y1="215" x2="1220" y2="215"
        stroke="#eee" stroke-width="1" stroke-dasharray="6,4"/>
  <text x="640" y="219.0" text-anchor="middle" font-size="9" fill="#ccc">← 展台中心 →</text>

  <!-- Info panel -->
  <rect x="20" y="372" width="1240" height="44" rx="4" fill="white" stroke="#ddd" stroke-width="1"/>
  <text font-size="10" fill="#444" font-family="monospace">
    <tspan x="28" y="388">
      验算：Y(组内)=5" · 通用间距原则 X=(A-B)÷C，边缘=X÷2 · mode=对比(comparison)
    </tspan>
    <tspan x="28" dy="14" fill="#2a9d2a">✓ 上下两排计算均正确，组宽、X间距、边缘、Y组内间距全部通过</tspan>
  </text>
  <!-- Note -->
  <text x="28" y="448" font-size="9" fill="#999" font-family="monospace">备注：2 vs 2 → 对比模式，中心核查</text>

  <!-- Legend -->
  <rect x="20" y="466" width="12" height="12" rx="2" fill="#4A90D9"/>
  <text x="36" y="477" font-size="10" fill="#555">A系列组（A16/mini）</text>
  <rect x="170" y="466" width="12" height="12" rx="2" fill="#9B59B6"/>
  <text x="186" y="477" font-size="10" fill="#555">B系列组（Pro/Air）</text>
  <rect x="330" y="466" width="12" height="12" rx="2" fill="#5CB85C"/>
  <text x="346" y="477" font-size="10" fill="#555">2×3 Lead Sign (3"+1"gap)</text>
  <text x="1260" y="477" text-anchor="end" font-size="9" fill="#ccc">Generated 2026-03-07</text>
</svg>