<?xml version="1.0" encoding="UTF-8"?>
<svg xmlns="http://www.w3.org/2000/svg" width="1280" height="490" viewBox="0 0 1280 490">
  <style>text { font-family: 'PingFang SC','Microsoft YaHei',Arial,sans-serif; }</style>

  <!-- Background -->
  <rect width="1280" height="490" fill="#f7f8fa"/>

  <!-- Title bar -->
  <rect x="0" y="0" width="1280" height="48" fill="#1d1d1f"/>
  <text x="20" y="19" font-size="13" fill="white" font-weight="bold">GRP33 — 180" (15-ft) · S5 · A全组+Pro对比 vs 两个中等 A 组</text>
  <text x="20" y="37" font-size="11" fill="#aaa">对比展示桌 · 全竖放 · 每组一块 2×3 标牌 · Y=5" @key180"</text>
  <rect x="1200" y="7" width="62" height="26" rx="5" fill="#2a9d2a"/>
  <text x="1231" y="25" text-anchor="middle" font-size="14" font-weight="bold" fill="white">PASS</text>

  <!-- Table surface -->
  <rect x="60" y="82" width="1160" height="266" rx="4"
        fill="white" stroke="#ccc" stroke-width="1.5"/>

  <!-- Table width ruler -->
  <line x1="60" y1="72" x2="1220" y2="72" stroke="#bbb" stroke-width="1"/>
  <line x1="60" y1="67" x2="60" y2="77" stroke="#bbb" stroke-width="1"/>
  <line x1="1220" y1="67" x2="1220" y2="77" stroke="#bbb" stroke-width="1"/>
  <text x="640" y="85" text-anchor="middle" font-size="11" fill="#555">180"</text>

  <!-- Top rail -->
  <rect x="60" y="100" width="1160" height="90" rx="3" fill="#f4f6ff" stroke="#dde" stroke-width="1"/>
<text x="60" y="95" font-size="10" fill="#555" font-family="monospace">上排：A16×4+mini×2 | Pro13+Pro11 — B=94.35" · C=2 · X=42.825" · edge=21.413"</text>
<rect x="198.0" y="104" width="443.9" height="82" rx="4" fill="#4A90D9" opacity="0.07" stroke="#4A90D9" stroke-width="1.5"/>
<rect x="198.0" y="110.0" width="19.3" height="70" rx="2" fill="#5CB85C" opacity="0.9"/>
<text x="207.7" y="149.0" text-anchor="middle" font-size="8" font-weight="bold" fill="white" font-family="monospace">S</text>
<text x="419.9" y="92.0" text-anchor="middle" font-size="9" fill="#4A90D9" font-weight="bold" font-family="monospace">A6 [68.88"]</text>
<rect x="223.8" y="110.0" width="45.6" height="70" rx="2" fill="#4A90D9" opacity="0.82"/>
<text x="246.6" y="126.0" text-anchor="middle" font-size="8" fill="white" font-weight="bold" font-family="monospace">A16</text>
<text x="246.6" y="136.0" text-anchor="middle" font-size="7" fill="white" font-family="monospace">7.07"</text>
<line x1="269.3" y1="145.0" x2="301.6" y2="145.0" stroke="#888" stroke-width="1" stroke-dasharray="3,2"/>
<text x="285.4" y="142.0" text-anchor="middle" font-size="8" fill="#888" font-family="monospace">Y=5.00"</text>
<rect x="301.6" y="110.0" width="45.6" height="70" rx="2" fill="#4A90D9" opacity="0.82"/>
<text x="324.3" y="126.0" text-anchor="middle" font-size="8" fill="white" font-weight="bold" font-family="monospace">A16</text>
<text x="324.3" y="136.0" text-anchor="middle" font-size="7" fill="white" font-family="monospace">7.07"</text>
<line x1="347.1" y1="145.0" x2="379.3" y2="145.0" stroke="#888" stroke-width="1" stroke-dasharray="3,2"/>
<text x="363.2" y="142.0" text-anchor="middle" font-size="8" fill="#888" font-family="monospace">Y=5.00"</text>
<rect x="379.3" y="110.0" width="45.6" height="70" rx="2" fill="#4A90D9" opacity="0.82"/>
<text x="402.1" y="126.0" text-anchor="middle" font-size="8" fill="white" font-weight="bold" font-family="monospace">A16</text>
<text x="402.1" y="136.0" text-anchor="middle" font-size="7" fill="white" font-family="monospace">7.07"</text>
<line x1="424.9" y1="145.0" x2="457.1" y2="145.0" stroke="#888" stroke-width="1" stroke-dasharray="3,2"/>
<text x="441.0" y="142.0" text-anchor="middle" font-size="8" fill="#888" font-family="monospace">Y=5.00"</text>
<rect x="457.1" y="110.0" width="45.6" height="70" rx="2" fill="#4A90D9" opacity="0.82"/>
<text x="479.9" y="126.0" text-anchor="middle" font-size="8" fill="white" font-weight="bold" font-family="monospace">A16</text>
<text x="479.9" y="136.0" text-anchor="middle" font-size="7" fill="white" font-family="monospace">7.07"</text>
<line x1="502.7" y1="145.0" x2="541.4" y2="145.0" stroke="#888" stroke-width="1" stroke-dasharray="3,2"/>
<text x="522.0" y="142.0" text-anchor="middle" font-size="8" fill="#888" font-family="monospace">Y=6.00"</text>
<rect x="541.4" y="110.0" width="34.2" height="70" rx="2" fill="#4A90D9" opacity="0.82"/>
<text x="558.4" y="126.0" text-anchor="middle" font-size="8" fill="white" font-weight="bold" font-family="monospace">mini</text>
<text x="558.4" y="136.0" text-anchor="middle" font-size="7" fill="white" font-family="monospace">5.30"</text>
<line x1="575.5" y1="145.0" x2="607.7" y2="145.0" stroke="#888" stroke-width="1" stroke-dasharray="3,2"/>
<text x="591.6" y="142.0" text-anchor="middle" font-size="8" fill="#888" font-family="monospace">Y=5.00"</text>
<rect x="607.7" y="110.0" width="34.2" height="70" rx="2" fill="#4A90D9" opacity="0.82"/>
<text x="624.8" y="126.0" text-anchor="middle" font-size="8" fill="white" font-weight="bold" font-family="monospace">mini</text>
<text x="624.8" y="136.0" text-anchor="middle" font-size="7" fill="white" font-family="monospace">5.30"</text>
<rect x="917.9" y="104" width="164.1" height="82" rx="4" fill="#9B59B6" opacity="0.07" stroke="#9B59B6" stroke-width="1.5"/>
<rect x="917.9" y="110.0" width="19.3" height="70" rx="2" fill="#5CB85C" opacity="0.9"/>
<text x="927.5" y="149.0" text-anchor="middle" font-size="8" font-weight="bold" fill="white" font-family="monospace">S</text>
<text x="999.9" y="92.0" text-anchor="middle" font-size="9" fill="#9B59B6" font-weight="bold" font-family="monospace">B2pro [25.47"]</text>
<rect x="943.6" y="110.0" width="54.6" height="70" rx="2" fill="#9B59B6" opacity="0.82"/>
<text x="971.0" y="126.0" text-anchor="middle" font-size="8" fill="white" font-weight="bold" font-family="monospace">Pro13</text>
<text x="971.0" y="136.0" text-anchor="middle" font-size="7" fill="white" font-family="monospace">8.48"</text>
<line x1="998.3" y1="145.0" x2="1037.0" y2="145.0" stroke="#888" stroke-width="1" stroke-dasharray="3,2"/>
<text x="1017.6" y="142.0" text-anchor="middle" font-size="8" fill="#888" font-family="monospace">Y=6.00"</text>
<rect x="1037.0" y="110.0" width="45.0" height="70" rx="2" fill="#9B59B6" opacity="0.82"/>
<text x="1059.5" y="126.0" text-anchor="middle" font-size="8" fill="white" font-weight="bold" font-family="monospace">Pro11</text>
<text x="1059.5" y="136.0" text-anchor="middle" font-size="7" fill="white" font-family="monospace">6.99"</text>
<line x1="641.9" y1="200.0" x2="917.9" y2="200.0" stroke="#aaa" stroke-width="1.5" stroke-dasharray="4,3"/>
<text x="779.9" y="198.0" text-anchor="middle" font-size="9" fill="#555" font-family="monospace">X=42.825"</text>
<text x="129.0" y="198.0" text-anchor="middle" font-size="9" fill="#E84393" font-family="monospace">21.413"</text>
<text x="1151.0" y="198.0" text-anchor="middle" font-size="9" fill="#E84393" font-family="monospace">21.412"</text>


  <!-- Bottom rail -->
  <rect x="60" y="240" width="1160" height="90" rx="3" fill="#f4f6ff" stroke="#dde" stroke-width="1"/>
<text x="60" y="235" font-size="10" fill="#555" font-family="monospace">下排：A16×2+mini | A16×2+mini — B=68.88" · C=2 · X=55.560" · edge=27.780"</text>
<rect x="239.0" y="244" width="221.9" height="82" rx="4" fill="#4A90D9" opacity="0.07" stroke="#4A90D9" stroke-width="1.5"/>
<rect x="239.0" y="250.0" width="19.3" height="70" rx="2" fill="#5CB85C" opacity="0.9"/>
<text x="248.7" y="289.0" text-anchor="middle" font-size="8" font-weight="bold" fill="white" font-family="monospace">S</text>
<text x="350.0" y="232.0" text-anchor="middle" font-size="9" fill="#4A90D9" font-weight="bold" font-family="monospace">A3 [34.44"]</text>
<rect x="264.8" y="250.0" width="45.6" height="70" rx="2" fill="#4A90D9" opacity="0.82"/>
<text x="287.6" y="266.0" text-anchor="middle" font-size="8" fill="white" font-weight="bold" font-family="monospace">A16</text>
<text x="287.6" y="276.0" text-anchor="middle" font-size="7" fill="white" font-family="monospace">7.07"</text>
<line x1="310.4" y1="285.0" x2="342.6" y2="285.0" stroke="#888" stroke-width="1" stroke-dasharray="3,2"/>
<text x="326.5" y="282.0" text-anchor="middle" font-size="8" fill="#888" font-family="monospace">Y=5.00"</text>
<rect x="342.6" y="250.0" width="45.6" height="70" rx="2" fill="#4A90D9" opacity="0.82"/>
<text x="365.4" y="266.0" text-anchor="middle" font-size="8" fill="white" font-weight="bold" font-family="monospace">A16</text>
<text x="365.4" y="276.0" text-anchor="middle" font-size="7" fill="white" font-family="monospace">7.07"</text>
<line x1="388.2" y1="285.0" x2="426.8" y2="285.0" stroke="#888" stroke-width="1" stroke-dasharray="3,2"/>
<text x="407.5" y="282.0" text-anchor="middle" font-size="8" fill="#888" font-family="monospace">Y=6.00"</text>
<rect x="426.8" y="250.0" width="34.2" height="70" rx="2" fill="#4A90D9" opacity="0.82"/>
<text x="443.9" y="266.0" text-anchor="middle" font-size="8" fill="white" font-weight="bold" font-family="monospace">mini</text>
<text x="443.9" y="276.0" text-anchor="middle" font-size="7" fill="white" font-family="monospace">5.30"</text>
<rect x="819.0" y="244" width="221.9" height="82" rx="4" fill="#4A90D9" opacity="0.07" stroke="#4A90D9" stroke-width="1.5"/>
<rect x="819.0" y="250.0" width="19.3" height="70" rx="2" fill="#5CB85C" opacity="0.9"/>
<text x="828.7" y="289.0" text-anchor="middle" font-size="8" font-weight="bold" fill="white" font-family="monospace">S</text>
<text x="930.0" y="232.0" text-anchor="middle" font-size="9" fill="#4A90D9" font-weight="bold" font-family="monospace">A3 [34.44"]</text>
<rect x="844.8" y="250.0" width="45.6" height="70" rx="2" fill="#4A90D9" opacity="0.82"/>
<text x="867.6" y="266.0" text-anchor="middle" font-size="8" fill="white" font-weight="bold" font-family="monospace">A16</text>
<text x="867.6" y="276.0" text-anchor="middle" font-size="7" fill="white" font-family="monospace">7.07"</text>
<line x1="890.4" y1="285.0" x2="922.6" y2="285.0" stroke="#888" stroke-width="1" stroke-dasharray="3,2"/>
<text x="906.5" y="282.0" text-anchor="middle" font-size="8" fill="#888" font-family="monospace">Y=5.00"</text>
<rect x="922.6" y="250.0" width="45.6" height="70" rx="2" fill="#4A90D9" opacity="0.82"/>
<text x="945.4" y="266.0" text-anchor="middle" font-size="8" fill="white" font-weight="bold" font-family="monospace">A16</text>
<text x="945.4" y="276.0" text-anchor="middle" font-size="7" fill="white" font-family="monospace">7.07"</text>
<line x1="968.2" y1="285.0" x2="1006.8" y2="285.0" stroke="#888" stroke-width="1" stroke-dasharray="3,2"/>
<text x="987.5" y="282.0" text-anchor="middle" font-size="8" fill="#888" font-family="monospace">Y=6.00"</text>
<rect x="1006.8" y="250.0" width="34.2" height="70" rx="2" fill="#4A90D9" opacity="0.82"/>
<text x="1023.9" y="266.0" text-anchor="middle" font-size="8" fill="white" font-weight="bold" font-family="monospace">mini</text>
<text x="1023.9" y="276.0" text-anchor="middle" font-size="7" fill="white" font-family="monospace">5.30"</text>
<line x1="461.0" y1="340.0" x2="819.0" y2="340.0" stroke="#aaa" stroke-width="1.5" stroke-dasharray="4,3"/>
<text x="640.0" y="338.0" text-anchor="middle" font-size="9" fill="#555" font-family="monospace">X=55.560"</text>
<text x="149.5" y="338.0" text-anchor="middle" font-size="9" fill="#E84393" font-family="monospace">27.780"</text>
<text x="1130.5" y="338.0" text-anchor="middle" font-size="9" fill="#E84393" font-family="monospace">27.780"</text>


  <!-- Center alignment guides -->
  <line x1="419.9" y1="190.0" x2="350.0" y2="240" stroke="#cc2222" stroke-width="1.5" stroke-dasharray="5,3" opacity="0.8"/>
<text x="419.9" y="215.0" text-anchor="middle" font-size="8" fill="#cc2222" font-family="monospace">Δ=10.852"</text>
<line x1="999.9" y1="190.0" x2="930.0" y2="240" stroke="#cc2222" stroke-width="1.5" stroke-dasharray="5,3" opacity="0.8"/>
<text x="999.9" y="215.0" text-anchor="middle" font-size="8" fill="#cc2222" font-family="monospace">Δ=10.853"</text>


  <!-- Centre rail divider -->
  <line x1="60" y1="215" x2="1220" y2="215"
        stroke="#eee" stroke-width="1" stroke-dasharray="6,4"/>
  <text x="640" y="219.0" text-anchor="middle" font-size="9" fill="#ccc">← 展台中心 →</text>

  <!-- Info panel -->
  <rect x="20" y="372" width="1240" height="44" rx="4" fill="white" stroke="#ddd" stroke-width="1"/>
  <text font-size="10" fill="#444" font-family="monospace">
    <tspan x="28" y="388">
      验算：Y(组内)=5" · 通用间距原则 X=(A-B)÷C，边缘=X÷2 · mode=对比(comparison)
    </tspan>
    <tspan x="28" dy="14" fill="#2a9d2a">✓ 上下两排计算均正确，组宽、X间距、边缘、Y组内间距全部通过</tspan>
  </text>
  <!-- Note -->
  <text x="28" y="448" font-size="9" fill="#999" font-family="monospace">备注：2 vs 2 → 对比模式，中心核查</text>

  <!-- Legend -->
  <rect x="20" y="466" width="12" height="12" rx="2" fill="#4A90D9"/>
  <text x="36" y="477" font-size="10" fill="#555">A系列组（A16/mini）</text>
  <rect x="170" y="466" width="12" height="12" rx="2" fill="#9B59B6"/>
  <text x="186" y="477" font-size="10" fill="#555">B系列组（Pro/Air）</text>
  <rect x="330" y="466" width="12" height="12" rx="2" fill="#5CB85C"/>
  <text x="346" y="477" font-size="10" fill="#555">2×3 Lead Sign (3"+1"gap)</text>
  <text x="1260" y="477" text-anchor="end" font-size="9" fill="#ccc">Generated 2026-03-07</text>
</svg>