<?xml version="1.0" encoding="UTF-8"?>
<svg xmlns="http://www.w3.org/2000/svg" width="1200" height="514" viewBox="0 0 1200 514">
  <style>
    text { font-family: 'PingFang SC', 'Microsoft YaHei', Arial, sans-serif; }
  </style>

  <!-- Background -->
  <rect width="1200" height="514" fill="#f7f8fa"/>

  <!-- Title bar -->
  <rect x="0" y="0" width="1200" height="50" rx="0" fill="#1d1d1f"/>
  <text x="20" y="20" font-size="13" fill="white" font-weight="bold">TC01 — 84" 系列 – 竖 × 2 vs 横 × 1</text>
  <text x="20" y="38" font-size="11" fill="#aaa">84" (7-ft) 展示桌 · 系列展示桌 · 所有设备含 2×3 产品标牌 · 查表 Y=3" / Z=5" (@84"key)</text>
  <!-- Status badge -->
  <rect x="1120" y="8" width="60" height="26" rx="5" fill="#2a9d2a"/>
  <text x="1150" y="26" text-anchor="middle" font-size="14" font-weight="bold" fill="white">PASS</text>

  <!-- Table surface -->
  <rect x="60" y="90" width="1080" height="304" rx="4"
        fill="white" stroke="#ccc" stroke-width="1.5"/>

  <!-- Rail backgrounds -->
  <rect x="60" y="110" width="1080" height="110" rx="2" fill="#e8f0fb" opacity="0.5"/>
  <rect x="60" y="264" width="1080" height="110" rx="2" fill="#fdebd8" opacity="0.5"/>

  <!-- Centre divider label -->
  <line x1="60" y1="242" x2="1140" y2="242"
        stroke="#ddd" stroke-width="1" stroke-dasharray="6,4"/>
  <text x="600" y="246" text-anchor="middle" font-size="9" fill="#bbb">
    ← 展台中心分隔线 →</text>

  <!-- Table edge rulers -->
  <line x1="60" y1="80" x2="1140" y2="80" stroke="#aaa" stroke-width="1"/>
  <line x1="60" y1="75" x2="60" y2="85" stroke="#aaa" stroke-width="1"/>
  <line x1="1140" y1="75" x2="1140" y2="85" stroke="#aaa" stroke-width="1"/>
  <text x="600" y="96" text-anchor="middle" font-size="11" fill="#555">84"</text>

  <!-- Top rail (Portrait) -->
  <text x="60" y="104" font-size="11" fill="#555" font-family="monospace">竖放 (Portrait)</text>
<rect x="259.3" y="110" width="38.6" height="110" rx="2" fill="#5CB85C" opacity="0.85"/>
<text x="278.5" y="168.0" text-anchor="middle" font-size="8" fill="white" font-family="monospace">S</text>
<rect x="310.7" y="110" width="89.9" height="110" rx="3" fill="#4A90D9" opacity="0.88"/>
<text x="355.6" y="128.0" text-anchor="middle" font-size="10" font-weight="bold" fill="white" font-family="monospace">#1</text>
<text x="355.6" y="144.0" text-anchor="middle" font-size="9" fill="white" font-family="monospace" clip-path="url(#cliptop0)">Pro 11" (6.99"P)</text>
<text x="329.9" y="233.0" text-anchor="middle" font-size="9" fill="#333" font-family="monospace">10.99"</text>
<rect x="799.1" y="110" width="38.6" height="110" rx="2" fill="#5CB85C" opacity="0.85"/>
<text x="818.3" y="168.0" text-anchor="middle" font-size="8" fill="white" font-family="monospace">S</text>
<rect x="850.5" y="110" width="90.3" height="110" rx="3" fill="#4A90D9" opacity="0.88"/>
<text x="895.6" y="128.0" text-anchor="middle" font-size="10" font-weight="bold" fill="white" font-family="monospace">#2</text>
<text x="895.6" y="144.0" text-anchor="middle" font-size="9" fill="white" font-family="monospace" clip-path="url(#cliptop1)">Air 11" (7.02"P)</text>
<text x="869.9" y="233.0" text-anchor="middle" font-size="9" fill="#333" font-family="monospace">11.02"</text>

  <!-- Top gap annotations -->
  <line x1="400.6" y1="70" x2="799.1" y2="70" stroke="#888" stroke-width="1" stroke-dasharray="3,2"/>
<text x="599.8" y="68.0" text-anchor="middle" font-size="9" fill="#666" font-family="monospace">31.00"</text>
<text x="159.6" y="68.0" text-anchor="middle" font-size="9" fill="#999" font-family="monospace">15.50"</text>
<text x="1040.4" y="68.0" text-anchor="middle" font-size="9" fill="#999" font-family="monospace">15.50"</text>


  <!-- Bottom rail (Landscape) -->
  <text x="60" y="258" font-size="11" fill="#555" font-family="monospace">竖放 (Portrait)</text>
<rect x="503.0" y="264" width="38.6" height="110" rx="2" fill="#5CB85C" opacity="0.85"/>
<text x="522.3" y="322.0" text-anchor="middle" font-size="8" fill="white" font-family="monospace">S</text>
<rect x="554.4" y="264" width="142.6" height="110" rx="3" fill="#4A90D9" opacity="0.88"/>
<text x="625.7" y="282.0" text-anchor="middle" font-size="10" font-weight="bold" fill="white" font-family="monospace">#1</text>
<text x="625.7" y="298.0" text-anchor="middle" font-size="9" fill="white" font-family="monospace" clip-path="url(#clipbottom0)">Pro 13" (11.09"P)</text>
<text x="600.0" y="387.0" text-anchor="middle" font-size="9" fill="#333" font-family="monospace">15.09"</text>

  <!-- Bottom gap annotations -->
  <text x="281.5" y="400.0" text-anchor="middle" font-size="9" fill="#999" font-family="monospace">34.45"</text>
<text x="918.5" y="400.0" text-anchor="middle" font-size="9" fill="#999" font-family="monospace">34.45"</text>


  <!-- Alignment lines (comparison only) -->
  <line x1="329.9" y1="220" x2="600.0" y2="264" stroke="#ccc" stroke-width="1.5" stroke-dasharray="2,4" opacity="0.7"/>


  <!-- Info panel -->
  <rect x="20" y="424" width="1160" height="68" rx="4"
        fill="white" stroke="#ddd" stroke-width="1"/>
  <text font-size="10" fill="#444" font-family="monospace">
    <tspan x="30" y="438">
      竖排(上)：2 台 [iPad Pro 11", iPad Air 11"]  |  X=30.995"  |  边缘 15.498"  |  总宽 22.01"  ✓ fits
    </tspan>
    <tspan x="30" dy="14">
      横排(下)：1 台 [iPad Pro 13"]  |  X=68.910"  |  边缘 34.455"  |  总宽 15.09"  ✓ fits
    </tspan>
    <tspan x="30" dy="14">模式：independent  |  类型：ipad-assortment  |  备注：两侧设备数不同，独立间距，无需对齐</tspan>
  </text>

  <!-- Warnings / pass -->
  <text font-size="10" fill="#444" font-family="monospace">
    <tspan x="30" dy="13" fill="#5CB85C">✓ 无告警</tspan>
  </text>

  <!-- Legend -->
  <rect x="20" y="492" width="12" height="12" rx="2" fill="#4A90D9"/>
  <text x="36" y="502" font-size="10" fill="#555">竖放 (Portrait)</text>
  <rect x="140" y="492" width="12" height="12" rx="2" fill="#E8874A"/>
  <text x="156" y="502" font-size="10" fill="#555">横放 (Landscape)</text>
  <rect x="280" y="492" width="12" height="12" rx="2" fill="#5CB85C"/>
  <text x="296" y="502" font-size="10" fill="#555">2×3 Product Sign (3"+1" gap)</text>
  <text x="1180" y="502" text-anchor="end" font-size="9" fill="#bbb">
    Generated: 2026-03-07
  </text>
</svg>