<?xml version="1.0" encoding="UTF-8"?>
<svg xmlns="http://www.w3.org/2000/svg" width="1200" height="514" viewBox="0 0 1200 514">
  <style>
    text { font-family: 'PingFang SC', 'Microsoft YaHei', Arial, sans-serif; }
  </style>

  <!-- Background -->
  <rect width="1200" height="514" fill="#f7f8fa"/>

  <!-- Title bar -->
  <rect x="0" y="0" width="1200" height="50" rx="0" fill="#1d1d1f"/>
  <text x="20" y="20" font-size="13" fill="white" font-weight="bold">TC02 — 84" 系列 – 竖 × 3 vs 横 × 2</text>
  <text x="20" y="38" font-size="11" fill="#aaa">84" (7-ft) 展示桌 · 系列展示桌 · 所有设备含 2×3 产品标牌 · 查表 Y=3" / Z=5" (@84"key)</text>
  <!-- Status badge -->
  <rect x="1120" y="8" width="60" height="26" rx="5" fill="#2a9d2a"/>
  <text x="1150" y="26" text-anchor="middle" font-size="14" font-weight="bold" fill="white">PASS</text>

  <!-- Table surface -->
  <rect x="60" y="90" width="1080" height="304" rx="4"
        fill="white" stroke="#ccc" stroke-width="1.5"/>

  <!-- Rail backgrounds -->
  <rect x="60" y="110" width="1080" height="110" rx="2" fill="#e8f0fb" opacity="0.5"/>
  <rect x="60" y="264" width="1080" height="110" rx="2" fill="#fdebd8" opacity="0.5"/>

  <!-- Centre divider label -->
  <line x1="60" y1="242" x2="1140" y2="242"
        stroke="#ddd" stroke-width="1" stroke-dasharray="6,4"/>
  <text x="600" y="246" text-anchor="middle" font-size="9" fill="#bbb">
    ← 展台中心分隔线 →</text>

  <!-- Table edge rulers -->
  <line x1="60" y1="80" x2="1140" y2="80" stroke="#aaa" stroke-width="1"/>
  <line x1="60" y1="75" x2="60" y2="85" stroke="#aaa" stroke-width="1"/>
  <line x1="1140" y1="75" x2="1140" y2="85" stroke="#aaa" stroke-width="1"/>
  <text x="600" y="96" text-anchor="middle" font-size="11" fill="#555">84"</text>

  <!-- Top rail (Portrait) -->
  <text x="60" y="104" font-size="11" fill="#555" font-family="monospace">竖放 (Portrait)</text>
<rect x="172.9" y="110" width="38.6" height="110" rx="2" fill="#5CB85C" opacity="0.85"/>
<text x="192.2" y="168.0" text-anchor="middle" font-size="8" fill="white" font-family="monospace">S</text>
<rect x="224.3" y="110" width="89.9" height="110" rx="3" fill="#4A90D9" opacity="0.88"/>
<text x="269.3" y="128.0" text-anchor="middle" font-size="10" font-weight="bold" fill="white" font-family="monospace">#1</text>
<text x="269.3" y="144.0" text-anchor="middle" font-size="9" fill="white" font-family="monospace" clip-path="url(#cliptop0)">Pro 11" (6.99"P)</text>
<text x="243.6" y="233.0" text-anchor="middle" font-size="9" fill="#333" font-family="monospace">10.99"</text>
<rect x="540.0" y="110" width="38.6" height="110" rx="2" fill="#5CB85C" opacity="0.85"/>
<text x="559.3" y="168.0" text-anchor="middle" font-size="8" fill="white" font-family="monospace">S</text>
<rect x="591.5" y="110" width="90.3" height="110" rx="3" fill="#4A90D9" opacity="0.88"/>
<text x="636.6" y="128.0" text-anchor="middle" font-size="10" font-weight="bold" fill="white" font-family="monospace">#2</text>
<text x="636.6" y="144.0" text-anchor="middle" font-size="9" fill="white" font-family="monospace" clip-path="url(#cliptop1)">Air 11" (7.02"P)</text>
<text x="610.9" y="233.0" text-anchor="middle" font-size="9" fill="#333" font-family="monospace">11.02"</text>
<rect x="907.5" y="110" width="38.6" height="110" rx="2" fill="#5CB85C" opacity="0.85"/>
<text x="926.8" y="168.0" text-anchor="middle" font-size="8" fill="white" font-family="monospace">S</text>
<rect x="959.0" y="110" width="68.1" height="110" rx="3" fill="#4A90D9" opacity="0.88"/>
<text x="993.0" y="128.0" text-anchor="middle" font-size="10" font-weight="bold" fill="white" font-family="monospace">#3</text>
<text x="993.0" y="144.0" text-anchor="middle" font-size="9" fill="white" font-family="monospace" clip-path="url(#cliptop2)">mini (5.30"P)</text>
<text x="967.3" y="233.0" text-anchor="middle" font-size="9" fill="#333" font-family="monospace">9.30"</text>

  <!-- Top gap annotations -->
  <line x1="314.2" y1="70" x2="540.0" y2="70" stroke="#888" stroke-width="1" stroke-dasharray="3,2"/>
<text x="427.1" y="68.0" text-anchor="middle" font-size="9" fill="#666" font-family="monospace">17.56"</text>
<line x1="681.7" y1="70" x2="907.5" y2="70" stroke="#888" stroke-width="1" stroke-dasharray="3,2"/>
<text x="794.6" y="68.0" text-anchor="middle" font-size="9" fill="#666" font-family="monospace">17.56"</text>
<text x="116.5" y="68.0" text-anchor="middle" font-size="9" fill="#999" font-family="monospace">8.78"</text>
<text x="1083.5" y="68.0" text-anchor="middle" font-size="9" fill="#999" font-family="monospace">8.78"</text>


  <!-- Bottom rail (Landscape) -->
  <text x="60" y="258" font-size="11" fill="#555" font-family="monospace">竖放 (Portrait)</text>
<rect x="233.2" y="264" width="38.6" height="110" rx="2" fill="#5CB85C" opacity="0.85"/>
<text x="252.4" y="322.0" text-anchor="middle" font-size="8" fill="white" font-family="monospace">S</text>
<rect x="284.6" y="264" width="141.9" height="110" rx="3" fill="#4A90D9" opacity="0.88"/>
<text x="355.6" y="282.0" text-anchor="middle" font-size="10" font-weight="bold" fill="white" font-family="monospace">#1</text>
<text x="355.6" y="298.0" text-anchor="middle" font-size="9" fill="white" font-family="monospace" clip-path="url(#clipbottom0)">Air 13" (11.04"P)</text>
<text x="329.8" y="387.0" text-anchor="middle" font-size="9" fill="#333" font-family="monospace">15.04"</text>
<rect x="772.8" y="264" width="38.6" height="110" rx="2" fill="#5CB85C" opacity="0.85"/>
<text x="792.1" y="322.0" text-anchor="middle" font-size="8" fill="white" font-family="monospace">S</text>
<rect x="824.3" y="264" width="142.6" height="110" rx="3" fill="#4A90D9" opacity="0.88"/>
<text x="895.6" y="282.0" text-anchor="middle" font-size="10" font-weight="bold" fill="white" font-family="monospace">#2</text>
<text x="895.6" y="298.0" text-anchor="middle" font-size="9" fill="white" font-family="monospace" clip-path="url(#clipbottom1)">Pro 13" (11.09"P)</text>
<text x="869.8" y="387.0" text-anchor="middle" font-size="9" fill="#333" font-family="monospace">15.09"</text>

  <!-- Bottom gap annotations -->
  <line x1="426.5" y1="402" x2="772.8" y2="402" stroke="#888" stroke-width="1" stroke-dasharray="3,2"/>
<text x="599.7" y="400.0" text-anchor="middle" font-size="9" fill="#666" font-family="monospace">26.94"</text>
<text x="146.6" y="400.0" text-anchor="middle" font-size="9" fill="#999" font-family="monospace">13.47"</text>
<text x="1053.4" y="400.0" text-anchor="middle" font-size="9" fill="#999" font-family="monospace">13.47"</text>


  <!-- Alignment lines (comparison only) -->
  <line x1="243.6" y1="220" x2="329.8" y2="264" stroke="#ccc" stroke-width="1.5" stroke-dasharray="2,4" opacity="0.7"/>
<line x1="610.9" y1="220" x2="869.8" y2="264" stroke="#ccc" stroke-width="1.5" stroke-dasharray="2,4" opacity="0.7"/>


  <!-- Info panel -->
  <rect x="20" y="424" width="1160" height="68" rx="4"
        fill="white" stroke="#ddd" stroke-width="1"/>
  <text font-size="10" fill="#444" font-family="monospace">
    <tspan x="30" y="438">
      竖排(上)：3 台 [iPad Pro 11", iPad Air 11", iPad mini]  |  X=17.563"  |  边缘 8.782"  |  总宽 31.31"  ✓ fits
    </tspan>
    <tspan x="30" dy="14">
      横排(下)：2 台 [iPad Air 13", iPad Pro 13"]  |  X=26.935"  |  边缘 13.468"  |  总宽 30.13"  ✓ fits
    </tspan>
    <tspan x="30" dy="14">模式：independent  |  类型：ipad-assortment  |  备注：两侧独立间距</tspan>
  </text>

  <!-- Warnings / pass -->
  <text font-size="10" fill="#444" font-family="monospace">
    <tspan x="30" dy="13" fill="#5CB85C">✓ 无告警</tspan>
  </text>

  <!-- Legend -->
  <rect x="20" y="492" width="12" height="12" rx="2" fill="#4A90D9"/>
  <text x="36" y="502" font-size="10" fill="#555">竖放 (Portrait)</text>
  <rect x="140" y="492" width="12" height="12" rx="2" fill="#E8874A"/>
  <text x="156" y="502" font-size="10" fill="#555">横放 (Landscape)</text>
  <rect x="280" y="492" width="12" height="12" rx="2" fill="#5CB85C"/>
  <text x="296" y="502" font-size="10" fill="#555">2×3 Product Sign (3"+1" gap)</text>
  <text x="1180" y="502" text-anchor="end" font-size="9" fill="#bbb">
    Generated: 2026-03-07
  </text>
</svg>