<?xml version="1.0" encoding="UTF-8"?>
<svg xmlns="http://www.w3.org/2000/svg" width="1200" height="514" viewBox="0 0 1200 514">
  <style>
    text { font-family: 'PingFang SC', 'Microsoft YaHei', Arial, sans-serif; }
  </style>

  <!-- Background -->
  <rect width="1200" height="514" fill="#f7f8fa"/>

  <!-- Title bar -->
  <rect x="0" y="0" width="1200" height="50" rx="0" fill="#1d1d1f"/>
  <text x="20" y="20" font-size="13" fill="white" font-weight="bold">TC03 — 84" 对比 – 竖 × 2 vs 横 × 2</text>
  <text x="20" y="38" font-size="11" fill="#aaa">84" (7-ft) 展示桌 · 对比展示桌 · 所有设备含 2×3 产品标牌 · 查表 Y=3" / Z=5" (@84"key)</text>
  <!-- Status badge -->
  <rect x="1120" y="8" width="60" height="26" rx="5" fill="#2a9d2a"/>
  <text x="1150" y="26" text-anchor="middle" font-size="14" font-weight="bold" fill="white">PASS</text>

  <!-- Table surface -->
  <rect x="60" y="90" width="1080" height="304" rx="4"
        fill="white" stroke="#ccc" stroke-width="1.5"/>

  <!-- Rail backgrounds -->
  <rect x="60" y="110" width="1080" height="110" rx="2" fill="#e8f0fb" opacity="0.5"/>
  <rect x="60" y="264" width="1080" height="110" rx="2" fill="#fdebd8" opacity="0.5"/>

  <!-- Centre divider label -->
  <line x1="60" y1="242" x2="1140" y2="242"
        stroke="#ddd" stroke-width="1" stroke-dasharray="6,4"/>
  <text x="600" y="246" text-anchor="middle" font-size="9" fill="#bbb">
    ← 展台中心分隔线 →</text>

  <!-- Table edge rulers -->
  <line x1="60" y1="80" x2="1140" y2="80" stroke="#aaa" stroke-width="1"/>
  <line x1="60" y1="75" x2="60" y2="85" stroke="#aaa" stroke-width="1"/>
  <line x1="1140" y1="75" x2="1140" y2="85" stroke="#aaa" stroke-width="1"/>
  <text x="600" y="96" text-anchor="middle" font-size="11" fill="#555">84"</text>

  <!-- Top rail (Portrait) -->
  <text x="60" y="104" font-size="11" fill="#555" font-family="monospace">竖放 (Portrait)</text>
<rect x="259.6" y="110" width="38.6" height="110" rx="2" fill="#5CB85C" opacity="0.85"/>
<text x="278.9" y="168.0" text-anchor="middle" font-size="8" fill="white" font-family="monospace">S</text>
<rect x="311.1" y="110" width="89.9" height="110" rx="3" fill="#4A90D9" opacity="0.88"/>
<text x="356.0" y="128.0" text-anchor="middle" font-size="10" font-weight="bold" fill="white" font-family="monospace">#1</text>
<text x="356.0" y="144.0" text-anchor="middle" font-size="9" fill="white" font-family="monospace" clip-path="url(#cliptop0)">Pro 11" (6.99"P)</text>
<text x="330.3" y="233.0" text-anchor="middle" font-size="9" fill="#333" font-family="monospace">10.99"</text>
<rect x="799.4" y="110" width="38.6" height="110" rx="2" fill="#5CB85C" opacity="0.85"/>
<text x="818.7" y="168.0" text-anchor="middle" font-size="8" fill="white" font-family="monospace">S</text>
<rect x="850.9" y="110" width="90.3" height="110" rx="3" fill="#4A90D9" opacity="0.88"/>
<text x="896.0" y="128.0" text-anchor="middle" font-size="10" font-weight="bold" fill="white" font-family="monospace">#2</text>
<text x="896.0" y="144.0" text-anchor="middle" font-size="9" fill="white" font-family="monospace" clip-path="url(#cliptop1)">Air 11" (7.02"P)</text>
<text x="870.3" y="233.0" text-anchor="middle" font-size="9" fill="#333" font-family="monospace">11.02"</text>

  <!-- Top gap annotations -->
  <line x1="400.9" y1="70" x2="799.4" y2="70" stroke="#888" stroke-width="1" stroke-dasharray="3,2"/>
<text x="600.2" y="68.0" text-anchor="middle" font-size="9" fill="#666" font-family="monospace">31.00"</text>
<text x="159.8" y="68.0" text-anchor="middle" font-size="9" fill="#999" font-family="monospace">15.53"</text>
<text x="1040.6" y="68.0" text-anchor="middle" font-size="9" fill="#999" font-family="monospace">15.47"</text>


  <!-- Bottom rail (Landscape) -->
  <text x="60" y="258" font-size="11" fill="#555" font-family="monospace">竖放 (Portrait)</text>
<rect x="241.4" y="264" width="38.6" height="110" rx="2" fill="#5CB85C" opacity="0.85"/>
<text x="260.7" y="322.0" text-anchor="middle" font-size="8" fill="white" font-family="monospace">S</text>
<rect x="292.8" y="264" width="126.4" height="110" rx="3" fill="#4A90D9" opacity="0.88"/>
<text x="356.0" y="282.0" text-anchor="middle" font-size="10" font-weight="bold" fill="white" font-family="monospace">#1</text>
<text x="356.0" y="298.0" text-anchor="middle" font-size="9" fill="white" font-family="monospace" clip-path="url(#clipbottom0)">Pro 11" (9.83"P)</text>
<text x="330.3" y="387.0" text-anchor="middle" font-size="9" fill="#333" font-family="monospace">13.83"</text>
<rect x="782.0" y="264" width="38.6" height="110" rx="2" fill="#5CB85C" opacity="0.85"/>
<text x="801.2" y="322.0" text-anchor="middle" font-size="8" fill="white" font-family="monospace">S</text>
<rect x="833.4" y="264" width="125.2" height="110" rx="3" fill="#4A90D9" opacity="0.88"/>
<text x="896.0" y="282.0" text-anchor="middle" font-size="10" font-weight="bold" fill="white" font-family="monospace">#2</text>
<text x="896.0" y="298.0" text-anchor="middle" font-size="9" fill="white" font-family="monospace" clip-path="url(#clipbottom1)">Air 11" (9.74"P)</text>
<text x="870.3" y="387.0" text-anchor="middle" font-size="9" fill="#333" font-family="monospace">13.74"</text>

  <!-- Bottom gap annotations -->
  <line x1="419.2" y1="402" x2="782.0" y2="402" stroke="#888" stroke-width="1" stroke-dasharray="3,2"/>
<text x="600.6" y="400.0" text-anchor="middle" font-size="9" fill="#666" font-family="monospace">28.22"</text>
<text x="150.7" y="400.0" text-anchor="middle" font-size="9" fill="#999" font-family="monospace">14.11"</text>
<text x="1049.3" y="400.0" text-anchor="middle" font-size="9" fill="#999" font-family="monospace">14.11"</text>


  <!-- Alignment lines (comparison only) -->
  <line x1="330.3" y1="220" x2="330.3" y2="264" stroke="#5CB85C" stroke-width="1.5" stroke-dasharray="4,3" opacity="0.7"/>
<line x1="870.3" y1="220" x2="870.3" y2="264" stroke="#5CB85C" stroke-width="1.5" stroke-dasharray="4,3" opacity="0.7"/>


  <!-- Info panel -->
  <rect x="20" y="424" width="1160" height="68" rx="4"
        fill="white" stroke="#ddd" stroke-width="1"/>
  <text font-size="10" fill="#444" font-family="monospace">
    <tspan x="30" y="438">
      竖排(上)：2 台 [iPad Pro 11", iPad Air 11"]  |  (center-aligned)  |  边缘 15.527"  |  总宽 22.01"  ✓ fits
    </tspan>
    <tspan x="30" dy="14">
      横排(下)：2 台 [iPad Pro 11", iPad Air 11"]  |  X=28.215"  |  边缘 14.107"  |  总宽 27.57"  ✓ fits
    </tspan>
    <tspan x="30" dy="14">模式：center-aligned  |  类型：ipad-comparison  |  备注：同款对比，中心对齐</tspan>
  </text>

  <!-- Warnings / pass -->
  <text font-size="10" fill="#444" font-family="monospace">
    <tspan x="30" dy="13" fill="#5CB85C">✓ 无告警</tspan>
  </text>

  <!-- Legend -->
  <rect x="20" y="492" width="12" height="12" rx="2" fill="#4A90D9"/>
  <text x="36" y="502" font-size="10" fill="#555">竖放 (Portrait)</text>
  <rect x="140" y="492" width="12" height="12" rx="2" fill="#E8874A"/>
  <text x="156" y="502" font-size="10" fill="#555">横放 (Landscape)</text>
  <rect x="280" y="492" width="12" height="12" rx="2" fill="#5CB85C"/>
  <text x="296" y="502" font-size="10" fill="#555">2×3 Product Sign (3"+1" gap)</text>
  <text x="1180" y="502" text-anchor="end" font-size="9" fill="#bbb">
    Generated: 2026-03-07
  </text>
</svg>