<?xml version="1.0" encoding="UTF-8"?>
<svg xmlns="http://www.w3.org/2000/svg" width="1200" height="514" viewBox="0 0 1200 514">
  <style>
    text { font-family: 'PingFang SC', 'Microsoft YaHei', Arial, sans-serif; }
  </style>

  <!-- Background -->
  <rect width="1200" height="514" fill="#f7f8fa"/>

  <!-- Title bar -->
  <rect x="0" y="0" width="1200" height="50" rx="0" fill="#1d1d1f"/>
  <text x="20" y="20" font-size="13" fill="white" font-weight="bold">TC04 — 84" 对比 – 竖 × 3 vs 横 × 3</text>
  <text x="20" y="38" font-size="11" fill="#aaa">84" (7-ft) 展示桌 · 对比展示桌 · 所有设备含 2×3 产品标牌 · 查表 Y=3" / Z=5" (@84"key)</text>
  <!-- Status badge -->
  <rect x="1120" y="8" width="60" height="26" rx="5" fill="#2a9d2a"/>
  <text x="1150" y="26" text-anchor="middle" font-size="14" font-weight="bold" fill="white">PASS</text>

  <!-- Table surface -->
  <rect x="60" y="90" width="1080" height="304" rx="4"
        fill="white" stroke="#ccc" stroke-width="1.5"/>

  <!-- Rail backgrounds -->
  <rect x="60" y="110" width="1080" height="110" rx="2" fill="#e8f0fb" opacity="0.5"/>
  <rect x="60" y="264" width="1080" height="110" rx="2" fill="#fdebd8" opacity="0.5"/>

  <!-- Centre divider label -->
  <line x1="60" y1="242" x2="1140" y2="242"
        stroke="#ddd" stroke-width="1" stroke-dasharray="6,4"/>
  <text x="600" y="246" text-anchor="middle" font-size="9" fill="#bbb">
    ← 展台中心分隔线 →</text>

  <!-- Table edge rulers -->
  <line x1="60" y1="80" x2="1140" y2="80" stroke="#aaa" stroke-width="1"/>
  <line x1="60" y1="75" x2="60" y2="85" stroke="#aaa" stroke-width="1"/>
  <line x1="1140" y1="75" x2="1140" y2="85" stroke="#aaa" stroke-width="1"/>
  <text x="600" y="96" text-anchor="middle" font-size="11" fill="#555">84"</text>

  <!-- Top rail (Portrait) -->
  <text x="60" y="104" font-size="11" fill="#555" font-family="monospace">竖放 (Portrait)</text>
<rect x="171.2" y="110" width="38.6" height="110" rx="2" fill="#5CB85C" opacity="0.85"/>
<text x="190.5" y="168.0" text-anchor="middle" font-size="8" fill="white" font-family="monospace">S</text>
<rect x="222.7" y="110" width="68.1" height="110" rx="3" fill="#4A90D9" opacity="0.88"/>
<text x="256.7" y="128.0" text-anchor="middle" font-size="10" font-weight="bold" fill="white" font-family="monospace">#1</text>
<text x="256.7" y="144.0" text-anchor="middle" font-size="9" fill="white" font-family="monospace" clip-path="url(#cliptop0)">mini (5.30"P)</text>
<text x="231.0" y="233.0" text-anchor="middle" font-size="9" fill="#333" font-family="monospace">9.30"</text>
<rect x="515.4" y="110" width="38.6" height="110" rx="2" fill="#5CB85C" opacity="0.85"/>
<text x="534.7" y="168.0" text-anchor="middle" font-size="8" fill="white" font-family="monospace">S</text>
<rect x="566.8" y="110" width="90.3" height="110" rx="3" fill="#4A90D9" opacity="0.88"/>
<text x="612.0" y="128.0" text-anchor="middle" font-size="10" font-weight="bold" fill="white" font-family="monospace">#2</text>
<text x="612.0" y="144.0" text-anchor="middle" font-size="9" fill="white" font-family="monospace" clip-path="url(#cliptop1)">Air 11" (7.02"P)</text>
<text x="586.2" y="233.0" text-anchor="middle" font-size="9" fill="#333" font-family="monospace">11.02"</text>
<rect x="884.6" y="110" width="38.6" height="110" rx="2" fill="#5CB85C" opacity="0.85"/>
<text x="903.9" y="168.0" text-anchor="middle" font-size="8" fill="white" font-family="monospace">S</text>
<rect x="936.0" y="110" width="89.9" height="110" rx="3" fill="#4A90D9" opacity="0.88"/>
<text x="980.9" y="128.0" text-anchor="middle" font-size="10" font-weight="bold" fill="white" font-family="monospace">#3</text>
<text x="980.9" y="144.0" text-anchor="middle" font-size="9" fill="white" font-family="monospace" clip-path="url(#cliptop2)">Pro 11" (6.99"P)</text>
<text x="955.2" y="233.0" text-anchor="middle" font-size="9" fill="#333" font-family="monospace">10.99"</text>

  <!-- Top gap annotations -->
  <line x1="290.8" y1="70" x2="515.4" y2="70" stroke="#888" stroke-width="1" stroke-dasharray="3,2"/>
<text x="403.1" y="68.0" text-anchor="middle" font-size="9" fill="#666" font-family="monospace">17.47"</text>
<line x1="657.1" y1="70" x2="884.6" y2="70" stroke="#888" stroke-width="1" stroke-dasharray="3,2"/>
<text x="770.8" y="68.0" text-anchor="middle" font-size="9" fill="#666" font-family="monospace">17.69"</text>
<text x="115.6" y="68.0" text-anchor="middle" font-size="9" fill="#999" font-family="monospace">8.65"</text>
<text x="1082.9" y="68.0" text-anchor="middle" font-size="9" fill="#999" font-family="monospace">8.88"</text>


  <!-- Bottom rail (Landscape) -->
  <text x="60" y="258" font-size="11" fill="#555" font-family="monospace">竖放 (Portrait)</text>
<rect x="155.9" y="264" width="38.6" height="110" rx="2" fill="#5CB85C" opacity="0.85"/>
<text x="175.2" y="322.0" text-anchor="middle" font-size="8" fill="white" font-family="monospace">S</text>
<rect x="207.3" y="264" width="98.9" height="110" rx="3" fill="#4A90D9" opacity="0.88"/>
<text x="256.7" y="282.0" text-anchor="middle" font-size="10" font-weight="bold" fill="white" font-family="monospace">#1</text>
<text x="256.7" y="298.0" text-anchor="middle" font-size="9" fill="white" font-family="monospace" clip-path="url(#clipbottom0)">mini (7.69"P)</text>
<text x="231.0" y="387.0" text-anchor="middle" font-size="9" fill="#333" font-family="monospace">11.69"</text>
<rect x="497.9" y="264" width="38.6" height="110" rx="2" fill="#5CB85C" opacity="0.85"/>
<text x="517.2" y="322.0" text-anchor="middle" font-size="8" fill="white" font-family="monospace">S</text>
<rect x="549.3" y="264" width="125.2" height="110" rx="3" fill="#4A90D9" opacity="0.88"/>
<text x="612.0" y="282.0" text-anchor="middle" font-size="10" font-weight="bold" fill="white" font-family="monospace">#2</text>
<text x="612.0" y="298.0" text-anchor="middle" font-size="9" fill="white" font-family="monospace" clip-path="url(#clipbottom1)">Air 11" (9.74"P)</text>
<text x="586.2" y="387.0" text-anchor="middle" font-size="9" fill="#333" font-family="monospace">13.74"</text>
<rect x="866.3" y="264" width="38.6" height="110" rx="2" fill="#5CB85C" opacity="0.85"/>
<text x="885.6" y="322.0" text-anchor="middle" font-size="8" fill="white" font-family="monospace">S</text>
<rect x="917.7" y="264" width="126.4" height="110" rx="3" fill="#4A90D9" opacity="0.88"/>
<text x="980.9" y="282.0" text-anchor="middle" font-size="10" font-weight="bold" fill="white" font-family="monospace">#3</text>
<text x="980.9" y="298.0" text-anchor="middle" font-size="9" fill="white" font-family="monospace" clip-path="url(#clipbottom2)">Pro 11" (9.83"P)</text>
<text x="955.2" y="387.0" text-anchor="middle" font-size="9" fill="#333" font-family="monospace">13.83"</text>

  <!-- Bottom gap annotations -->
  <line x1="306.2" y1="402" x2="497.9" y2="402" stroke="#888" stroke-width="1" stroke-dasharray="3,2"/>
<text x="402.0" y="400.0" text-anchor="middle" font-size="9" fill="#666" font-family="monospace">14.91"</text>
<line x1="674.6" y1="402" x2="866.3" y2="402" stroke="#888" stroke-width="1" stroke-dasharray="3,2"/>
<text x="770.4" y="400.0" text-anchor="middle" font-size="9" fill="#666" font-family="monospace">14.91"</text>
<text x="107.9" y="400.0" text-anchor="middle" font-size="9" fill="#999" font-family="monospace">7.46"</text>
<text x="1092.1" y="400.0" text-anchor="middle" font-size="9" fill="#999" font-family="monospace">7.46"</text>


  <!-- Alignment lines (comparison only) -->
  <line x1="231.0" y1="220" x2="231.0" y2="264" stroke="#5CB85C" stroke-width="1.5" stroke-dasharray="4,3" opacity="0.7"/>
<line x1="586.2" y1="220" x2="586.2" y2="264" stroke="#5CB85C" stroke-width="1.5" stroke-dasharray="4,3" opacity="0.7"/>
<line x1="955.2" y1="220" x2="955.2" y2="264" stroke="#5CB85C" stroke-width="1.5" stroke-dasharray="4,3" opacity="0.7"/>


  <!-- Info panel -->
  <rect x="20" y="424" width="1160" height="68" rx="4"
        fill="white" stroke="#ddd" stroke-width="1"/>
  <text font-size="10" fill="#444" font-family="monospace">
    <tspan x="30" y="438">
      竖排(上)：3 台 [iPad mini, iPad Air 11", iPad Pro 11"]  |  (center-aligned)  |  边缘 8.652"  |  总宽 31.31"  ✓ fits
    </tspan>
    <tspan x="30" dy="14">
      横排(下)：3 台 [iPad mini, iPad Air 11", iPad Pro 11"]  |  X=14.913"  |  边缘 7.457"  |  总宽 39.26"  ✓ fits
    </tspan>
    <tspan x="30" dy="14">模式：center-aligned  |  类型：ipad-comparison  |  备注：三款同型号对比，中心对齐</tspan>
  </text>

  <!-- Warnings / pass -->
  <text font-size="10" fill="#444" font-family="monospace">
    <tspan x="30" dy="13" fill="#5CB85C">✓ 无告警</tspan>
  </text>

  <!-- Legend -->
  <rect x="20" y="492" width="12" height="12" rx="2" fill="#4A90D9"/>
  <text x="36" y="502" font-size="10" fill="#555">竖放 (Portrait)</text>
  <rect x="140" y="492" width="12" height="12" rx="2" fill="#E8874A"/>
  <text x="156" y="502" font-size="10" fill="#555">横放 (Landscape)</text>
  <rect x="280" y="492" width="12" height="12" rx="2" fill="#5CB85C"/>
  <text x="296" y="502" font-size="10" fill="#555">2×3 Product Sign (3"+1" gap)</text>
  <text x="1180" y="502" text-anchor="end" font-size="9" fill="#bbb">
    Generated: 2026-03-07
  </text>
</svg>