<?xml version="1.0" encoding="UTF-8"?>
<svg xmlns="http://www.w3.org/2000/svg" width="1200" height="514" viewBox="0 0 1200 514">
  <style>
    text { font-family: 'PingFang SC', 'Microsoft YaHei', Arial, sans-serif; }
  </style>

  <!-- Background -->
  <rect width="1200" height="514" fill="#f7f8fa"/>

  <!-- Title bar -->
  <rect x="0" y="0" width="1200" height="50" rx="0" fill="#1d1d1f"/>
  <text x="20" y="20" font-size="13" fill="white" font-weight="bold">TC05 — 96" 系列 – 竖 × 2 vs 横 × 3</text>
  <text x="20" y="38" font-size="11" fill="#aaa">96" (8-ft) 展示桌 · 系列展示桌 · 所有设备含 2×3 产品标牌 · 查表 Y=4" / Z=6" (@96"key)</text>
  <!-- Status badge -->
  <rect x="1120" y="8" width="60" height="26" rx="5" fill="#2a9d2a"/>
  <text x="1150" y="26" text-anchor="middle" font-size="14" font-weight="bold" fill="white">PASS</text>

  <!-- Table surface -->
  <rect x="60" y="90" width="1080" height="304" rx="4"
        fill="white" stroke="#ccc" stroke-width="1.5"/>

  <!-- Rail backgrounds -->
  <rect x="60" y="110" width="1080" height="110" rx="2" fill="#e8f0fb" opacity="0.5"/>
  <rect x="60" y="264" width="1080" height="110" rx="2" fill="#fdebd8" opacity="0.5"/>

  <!-- Centre divider label -->
  <line x1="60" y1="242" x2="1140" y2="242"
        stroke="#ddd" stroke-width="1" stroke-dasharray="6,4"/>
  <text x="600" y="246" text-anchor="middle" font-size="9" fill="#bbb">
    ← 展台中心分隔线 →</text>

  <!-- Table edge rulers -->
  <line x1="60" y1="80" x2="1140" y2="80" stroke="#aaa" stroke-width="1"/>
  <line x1="60" y1="75" x2="60" y2="85" stroke="#aaa" stroke-width="1"/>
  <line x1="1140" y1="75" x2="1140" y2="85" stroke="#aaa" stroke-width="1"/>
  <text x="600" y="96" text-anchor="middle" font-size="11" fill="#555">96"</text>

  <!-- Top rail (Portrait) -->
  <text x="60" y="104" font-size="11" fill="#555" font-family="monospace">竖放 (Portrait)</text>
<rect x="259.9" y="110" width="33.8" height="110" rx="2" fill="#5CB85C" opacity="0.85"/>
<text x="276.7" y="168.0" text-anchor="middle" font-size="8" fill="white" font-family="monospace">S</text>
<rect x="304.9" y="110" width="95.4" height="110" rx="3" fill="#4A90D9" opacity="0.88"/>
<text x="352.6" y="128.0" text-anchor="middle" font-size="10" font-weight="bold" fill="white" font-family="monospace">#1</text>
<text x="352.6" y="144.0" text-anchor="middle" font-size="9" fill="white" font-family="monospace" clip-path="url(#cliptop0)">Pro 13" (8.48"P)</text>
<text x="330.1" y="233.0" text-anchor="middle" font-size="9" fill="#333" font-family="monospace">12.48"</text>
<rect x="800.0" y="110" width="33.8" height="110" rx="2" fill="#5CB85C" opacity="0.85"/>
<text x="816.8" y="168.0" text-anchor="middle" font-size="8" fill="white" font-family="monospace">S</text>
<rect x="845.0" y="110" width="95.2" height="110" rx="3" fill="#4A90D9" opacity="0.88"/>
<text x="892.6" y="128.0" text-anchor="middle" font-size="10" font-weight="bold" fill="white" font-family="monospace">#2</text>
<text x="892.6" y="144.0" text-anchor="middle" font-size="9" fill="white" font-family="monospace" clip-path="url(#cliptop1)">Air 13" (8.46"P)</text>
<text x="870.1" y="233.0" text-anchor="middle" font-size="9" fill="#333" font-family="monospace">12.46"</text>

  <!-- Top gap annotations -->
  <line x1="400.3" y1="70" x2="800.0" y2="70" stroke="#888" stroke-width="1" stroke-dasharray="3,2"/>
<text x="600.1" y="68.0" text-anchor="middle" font-size="9" fill="#666" font-family="monospace">35.53"</text>
<text x="159.9" y="68.0" text-anchor="middle" font-size="9" fill="#999" font-family="monospace">17.77"</text>
<text x="1040.1" y="68.0" text-anchor="middle" font-size="9" fill="#999" font-family="monospace">17.76"</text>


  <!-- Bottom rail (Landscape) -->
  <text x="60" y="258" font-size="11" fill="#555" font-family="monospace">竖放 (Portrait)</text>
<rect x="166.3" y="264" width="33.8" height="110" rx="2" fill="#5CB85C" opacity="0.85"/>
<text x="183.2" y="322.0" text-anchor="middle" font-size="8" fill="white" font-family="monospace">S</text>
<rect x="211.3" y="264" width="110.1" height="110" rx="3" fill="#4A90D9" opacity="0.88"/>
<text x="266.4" y="282.0" text-anchor="middle" font-size="10" font-weight="bold" fill="white" font-family="monospace">#1</text>
<text x="266.4" y="298.0" text-anchor="middle" font-size="9" fill="white" font-family="monospace" clip-path="url(#clipbottom0)">(A16) (9.79"P)</text>
<text x="243.9" y="387.0" text-anchor="middle" font-size="9" fill="#333" font-family="monospace">13.79"</text>
<rect x="534.0" y="264" width="33.8" height="110" rx="2" fill="#5CB85C" opacity="0.85"/>
<text x="550.9" y="322.0" text-anchor="middle" font-size="8" fill="white" font-family="monospace">S</text>
<rect x="579.0" y="264" width="86.5" height="110" rx="3" fill="#4A90D9" opacity="0.88"/>
<text x="622.3" y="282.0" text-anchor="middle" font-size="10" font-weight="bold" fill="white" font-family="monospace">#2</text>
<text x="622.3" y="298.0" text-anchor="middle" font-size="9" fill="white" font-family="monospace" clip-path="url(#clipbottom1)">mini (7.69"P)</text>
<text x="599.8" y="387.0" text-anchor="middle" font-size="9" fill="#333" font-family="monospace">11.69"</text>
<rect x="878.1" y="264" width="33.8" height="110" rx="2" fill="#5CB85C" opacity="0.85"/>
<text x="895.0" y="322.0" text-anchor="middle" font-size="8" fill="white" font-family="monospace">S</text>
<rect x="923.1" y="264" width="110.6" height="110" rx="3" fill="#4A90D9" opacity="0.88"/>
<text x="978.4" y="282.0" text-anchor="middle" font-size="10" font-weight="bold" fill="white" font-family="monospace">#3</text>
<text x="978.4" y="298.0" text-anchor="middle" font-size="9" fill="white" font-family="monospace" clip-path="url(#clipbottom2)">Pro 11" (9.83"P)</text>
<text x="955.9" y="387.0" text-anchor="middle" font-size="9" fill="#333" font-family="monospace">13.83"</text>

  <!-- Bottom gap annotations -->
  <line x1="321.4" y1="402" x2="534.0" y2="402" stroke="#888" stroke-width="1" stroke-dasharray="3,2"/>
<text x="427.7" y="400.0" text-anchor="middle" font-size="9" fill="#666" font-family="monospace">18.90"</text>
<line x1="665.5" y1="402" x2="878.1" y2="402" stroke="#888" stroke-width="1" stroke-dasharray="3,2"/>
<text x="771.8" y="400.0" text-anchor="middle" font-size="9" fill="#666" font-family="monospace">18.90"</text>
<text x="113.1" y="400.0" text-anchor="middle" font-size="9" fill="#999" font-family="monospace">9.45"</text>
<text x="1086.9" y="400.0" text-anchor="middle" font-size="9" fill="#999" font-family="monospace">9.45"</text>


  <!-- Alignment lines (comparison only) -->
  <line x1="330.1" y1="220" x2="243.9" y2="264" stroke="#ccc" stroke-width="1.5" stroke-dasharray="2,4" opacity="0.7"/>
<line x1="870.1" y1="220" x2="599.8" y2="264" stroke="#ccc" stroke-width="1.5" stroke-dasharray="2,4" opacity="0.7"/>


  <!-- Info panel -->
  <rect x="20" y="424" width="1160" height="68" rx="4"
        fill="white" stroke="#ddd" stroke-width="1"/>
  <text font-size="10" fill="#444" font-family="monospace">
    <tspan x="30" y="438">
      竖排(上)：2 台 [iPad Pro 13", iPad Air 13"]  |  X=35.530"  |  边缘 17.765"  |  总宽 24.94"  ✓ fits
    </tspan>
    <tspan x="30" dy="14">
      横排(下)：3 台 [iPad (A16), iPad mini, iPad Pro 11"]  |  X=18.897"  |  边缘 9.448"  |  总宽 39.31"  ✓ fits
    </tspan>
    <tspan x="30" dy="14">模式：independent  |  类型：ipad-assortment  |  备注：两侧独立间距</tspan>
  </text>

  <!-- Warnings / pass -->
  <text font-size="10" fill="#444" font-family="monospace">
    <tspan x="30" dy="13" fill="#5CB85C">✓ 无告警</tspan>
  </text>

  <!-- Legend -->
  <rect x="20" y="492" width="12" height="12" rx="2" fill="#4A90D9"/>
  <text x="36" y="502" font-size="10" fill="#555">竖放 (Portrait)</text>
  <rect x="140" y="492" width="12" height="12" rx="2" fill="#E8874A"/>
  <text x="156" y="502" font-size="10" fill="#555">横放 (Landscape)</text>
  <rect x="280" y="492" width="12" height="12" rx="2" fill="#5CB85C"/>
  <text x="296" y="502" font-size="10" fill="#555">2×3 Product Sign (3"+1" gap)</text>
  <text x="1180" y="502" text-anchor="end" font-size="9" fill="#bbb">
    Generated: 2026-03-07
  </text>
</svg>