<?xml version="1.0" encoding="UTF-8"?>
<svg xmlns="http://www.w3.org/2000/svg" width="1200" height="514" viewBox="0 0 1200 514">
  <style>
    text { font-family: 'PingFang SC', 'Microsoft YaHei', Arial, sans-serif; }
  </style>

  <!-- Background -->
  <rect width="1200" height="514" fill="#f7f8fa"/>

  <!-- Title bar -->
  <rect x="0" y="0" width="1200" height="50" rx="0" fill="#1d1d1f"/>
  <text x="20" y="20" font-size="13" fill="white" font-weight="bold">TC06 — 96" 系列 – 竖 × 4 vs 横 × 2</text>
  <text x="20" y="38" font-size="11" fill="#aaa">96" (8-ft) 展示桌 · 系列展示桌 · 所有设备含 2×3 产品标牌 · 查表 Y=4" / Z=6" (@96"key)</text>
  <!-- Status badge -->
  <rect x="1120" y="8" width="60" height="26" rx="5" fill="#2a9d2a"/>
  <text x="1150" y="26" text-anchor="middle" font-size="14" font-weight="bold" fill="white">PASS</text>

  <!-- Table surface -->
  <rect x="60" y="90" width="1080" height="304" rx="4"
        fill="white" stroke="#ccc" stroke-width="1.5"/>

  <!-- Rail backgrounds -->
  <rect x="60" y="110" width="1080" height="110" rx="2" fill="#e8f0fb" opacity="0.5"/>
  <rect x="60" y="264" width="1080" height="110" rx="2" fill="#fdebd8" opacity="0.5"/>

  <!-- Centre divider label -->
  <line x1="60" y1="242" x2="1140" y2="242"
        stroke="#ddd" stroke-width="1" stroke-dasharray="6,4"/>
  <text x="600" y="246" text-anchor="middle" font-size="9" fill="#bbb">
    ← 展台中心分隔线 →</text>

  <!-- Table edge rulers -->
  <line x1="60" y1="80" x2="1140" y2="80" stroke="#aaa" stroke-width="1"/>
  <line x1="60" y1="75" x2="60" y2="85" stroke="#aaa" stroke-width="1"/>
  <line x1="1140" y1="75" x2="1140" y2="85" stroke="#aaa" stroke-width="1"/>
  <text x="600" y="96" text-anchor="middle" font-size="11" fill="#555">96"</text>

  <!-- Top rail (Portrait) -->
  <text x="60" y="104" font-size="11" fill="#555" font-family="monospace">竖放 (Portrait)</text>
<rect x="135.4" y="110" width="33.8" height="110" rx="2" fill="#5CB85C" opacity="0.85"/>
<text x="152.3" y="168.0" text-anchor="middle" font-size="8" fill="white" font-family="monospace">S</text>
<rect x="180.4" y="110" width="78.6" height="110" rx="3" fill="#4A90D9" opacity="0.88"/>
<text x="219.7" y="128.0" text-anchor="middle" font-size="10" font-weight="bold" fill="white" font-family="monospace">#1</text>
<text x="219.7" y="144.0" text-anchor="middle" font-size="9" fill="white" font-family="monospace" clip-path="url(#cliptop0)">Pro 11" (6.99"P)</text>
<text x="197.2" y="233.0" text-anchor="middle" font-size="9" fill="#333" font-family="monospace">10.99"</text>
<rect x="409.8" y="110" width="33.8" height="110" rx="2" fill="#5CB85C" opacity="0.85"/>
<text x="426.7" y="168.0" text-anchor="middle" font-size="8" fill="white" font-family="monospace">S</text>
<rect x="454.8" y="110" width="79.0" height="110" rx="3" fill="#4A90D9" opacity="0.88"/>
<text x="494.3" y="128.0" text-anchor="middle" font-size="10" font-weight="bold" fill="white" font-family="monospace">#2</text>
<text x="494.3" y="144.0" text-anchor="middle" font-size="9" fill="white" font-family="monospace" clip-path="url(#cliptop1)">Air 11" (7.02"P)</text>
<text x="471.8" y="233.0" text-anchor="middle" font-size="9" fill="#333" font-family="monospace">11.02"</text>
<rect x="684.6" y="110" width="33.8" height="110" rx="2" fill="#5CB85C" opacity="0.85"/>
<text x="701.5" y="168.0" text-anchor="middle" font-size="8" fill="white" font-family="monospace">S</text>
<rect x="729.6" y="110" width="79.5" height="110" rx="3" fill="#4A90D9" opacity="0.88"/>
<text x="769.4" y="128.0" text-anchor="middle" font-size="10" font-weight="bold" fill="white" font-family="monospace">#3</text>
<text x="769.4" y="144.0" text-anchor="middle" font-size="9" fill="white" font-family="monospace" clip-path="url(#cliptop2)">(A16) (7.07"P)</text>
<text x="746.9" y="233.0" text-anchor="middle" font-size="9" fill="#333" font-family="monospace">11.07"</text>
<rect x="960.0" y="110" width="33.8" height="110" rx="2" fill="#5CB85C" opacity="0.85"/>
<text x="976.8" y="168.0" text-anchor="middle" font-size="8" fill="white" font-family="monospace">S</text>
<rect x="1005.0" y="110" width="59.6" height="110" rx="3" fill="#4A90D9" opacity="0.88"/>
<text x="1034.8" y="128.0" text-anchor="middle" font-size="10" font-weight="bold" fill="white" font-family="monospace">#4</text>
<text x="1034.8" y="144.0" text-anchor="middle" font-size="9" fill="white" font-family="monospace" clip-path="url(#cliptop3)">mini (5.30"P)</text>
<text x="1012.3" y="233.0" text-anchor="middle" font-size="9" fill="#333" font-family="monospace">9.30"</text>

  <!-- Top gap annotations -->
  <line x1="259.0" y1="70" x2="409.8" y2="70" stroke="#888" stroke-width="1" stroke-dasharray="3,2"/>
<text x="334.4" y="68.0" text-anchor="middle" font-size="9" fill="#666" font-family="monospace">13.41"</text>
<line x1="533.8" y1="70" x2="684.6" y2="70" stroke="#888" stroke-width="1" stroke-dasharray="3,2"/>
<text x="609.2" y="68.0" text-anchor="middle" font-size="9" fill="#666" font-family="monospace">13.41"</text>
<line x1="809.2" y1="70" x2="960.0" y2="70" stroke="#888" stroke-width="1" stroke-dasharray="3,2"/>
<text x="884.6" y="68.0" text-anchor="middle" font-size="9" fill="#666" font-family="monospace">13.41"</text>
<text x="97.7" y="68.0" text-anchor="middle" font-size="9" fill="#999" font-family="monospace">6.70"</text>
<text x="1102.3" y="68.0" text-anchor="middle" font-size="9" fill="#999" font-family="monospace">6.70"</text>


  <!-- Bottom rail (Landscape) -->
  <text x="60" y="258" font-size="11" fill="#555" font-family="monospace">竖放 (Portrait)</text>
<rect x="245.3" y="264" width="33.8" height="110" rx="2" fill="#5CB85C" opacity="0.85"/>
<text x="262.1" y="322.0" text-anchor="middle" font-size="8" fill="white" font-family="monospace">S</text>
<rect x="290.3" y="264" width="124.2" height="110" rx="3" fill="#4A90D9" opacity="0.88"/>
<text x="352.4" y="282.0" text-anchor="middle" font-size="10" font-weight="bold" fill="white" font-family="monospace">#1</text>
<text x="352.4" y="298.0" text-anchor="middle" font-size="9" fill="white" font-family="monospace" clip-path="url(#clipbottom0)">Air 13" (11.04"P)</text>
<text x="329.9" y="387.0" text-anchor="middle" font-size="9" fill="#333" font-family="monospace">15.04"</text>
<rect x="785.0" y="264" width="33.8" height="110" rx="2" fill="#5CB85C" opacity="0.85"/>
<text x="801.9" y="322.0" text-anchor="middle" font-size="8" fill="white" font-family="monospace">S</text>
<rect x="830.0" y="264" width="124.8" height="110" rx="3" fill="#4A90D9" opacity="0.88"/>
<text x="892.4" y="282.0" text-anchor="middle" font-size="10" font-weight="bold" fill="white" font-family="monospace">#2</text>
<text x="892.4" y="298.0" text-anchor="middle" font-size="9" fill="white" font-family="monospace" clip-path="url(#clipbottom1)">Pro 13" (11.09"P)</text>
<text x="869.9" y="387.0" text-anchor="middle" font-size="9" fill="#333" font-family="monospace">15.09"</text>

  <!-- Bottom gap annotations -->
  <line x1="414.5" y1="402" x2="785.0" y2="402" stroke="#888" stroke-width="1" stroke-dasharray="3,2"/>
<text x="599.7" y="400.0" text-anchor="middle" font-size="9" fill="#666" font-family="monospace">32.93"</text>
<text x="152.6" y="400.0" text-anchor="middle" font-size="9" fill="#999" font-family="monospace">16.47"</text>
<text x="1047.4" y="400.0" text-anchor="middle" font-size="9" fill="#999" font-family="monospace">16.47"</text>


  <!-- Alignment lines (comparison only) -->
  <line x1="197.2" y1="220" x2="329.9" y2="264" stroke="#ccc" stroke-width="1.5" stroke-dasharray="2,4" opacity="0.7"/>
<line x1="471.8" y1="220" x2="869.9" y2="264" stroke="#ccc" stroke-width="1.5" stroke-dasharray="2,4" opacity="0.7"/>


  <!-- Info panel -->
  <rect x="20" y="424" width="1160" height="68" rx="4"
        fill="white" stroke="#ddd" stroke-width="1"/>
  <text font-size="10" fill="#444" font-family="monospace">
    <tspan x="30" y="438">
      竖排(上)：4 台 [iPad Pro 11", iPad Air 11", iPad (A16), iPad mini]  |  X=13.405"  |  边缘 6.703"  |  总宽 42.38"  ✓ fits
    </tspan>
    <tspan x="30" dy="14">
      横排(下)：2 台 [iPad Air 13", iPad Pro 13"]  |  X=32.935"  |  边缘 16.468"  |  总宽 30.13"  ✓ fits
    </tspan>
    <tspan x="30" dy="14">模式：independent  |  类型：ipad-assortment  |  备注：两侧独立间距</tspan>
  </text>

  <!-- Warnings / pass -->
  <text font-size="10" fill="#444" font-family="monospace">
    <tspan x="30" dy="13" fill="#5CB85C">✓ 无告警</tspan>
  </text>

  <!-- Legend -->
  <rect x="20" y="492" width="12" height="12" rx="2" fill="#4A90D9"/>
  <text x="36" y="502" font-size="10" fill="#555">竖放 (Portrait)</text>
  <rect x="140" y="492" width="12" height="12" rx="2" fill="#E8874A"/>
  <text x="156" y="502" font-size="10" fill="#555">横放 (Landscape)</text>
  <rect x="280" y="492" width="12" height="12" rx="2" fill="#5CB85C"/>
  <text x="296" y="502" font-size="10" fill="#555">2×3 Product Sign (3"+1" gap)</text>
  <text x="1180" y="502" text-anchor="end" font-size="9" fill="#bbb">
    Generated: 2026-03-07
  </text>
</svg>