<?xml version="1.0" encoding="UTF-8"?>
<svg xmlns="http://www.w3.org/2000/svg" width="1200" height="514" viewBox="0 0 1200 514">
  <style>
    text { font-family: 'PingFang SC', 'Microsoft YaHei', Arial, sans-serif; }
  </style>

  <!-- Background -->
  <rect width="1200" height="514" fill="#f7f8fa"/>

  <!-- Title bar -->
  <rect x="0" y="0" width="1200" height="50" rx="0" fill="#1d1d1f"/>
  <text x="20" y="20" font-size="13" fill="white" font-weight="bold">TC10 — 120" 系列 – 竖 × 5 vs 横 × 3</text>
  <text x="20" y="38" font-size="11" fill="#aaa">120" (10-ft) 展示桌 · 系列展示桌 · 所有设备含 2×3 产品标牌 · 查表 Y=5" / Z=6" (@120"key)</text>
  <!-- Status badge -->
  <rect x="1120" y="8" width="60" height="26" rx="5" fill="#2a9d2a"/>
  <text x="1150" y="26" text-anchor="middle" font-size="14" font-weight="bold" fill="white">PASS</text>

  <!-- Table surface -->
  <rect x="60" y="90" width="1080" height="304" rx="4"
        fill="white" stroke="#ccc" stroke-width="1.5"/>

  <!-- Rail backgrounds -->
  <rect x="60" y="110" width="1080" height="110" rx="2" fill="#e8f0fb" opacity="0.5"/>
  <rect x="60" y="264" width="1080" height="110" rx="2" fill="#fdebd8" opacity="0.5"/>

  <!-- Centre divider label -->
  <line x1="60" y1="242" x2="1140" y2="242"
        stroke="#ddd" stroke-width="1" stroke-dasharray="6,4"/>
  <text x="600" y="246" text-anchor="middle" font-size="9" fill="#bbb">
    ← 展台中心分隔线 →</text>

  <!-- Table edge rulers -->
  <line x1="60" y1="80" x2="1140" y2="80" stroke="#aaa" stroke-width="1"/>
  <line x1="60" y1="75" x2="60" y2="85" stroke="#aaa" stroke-width="1"/>
  <line x1="1140" y1="75" x2="1140" y2="85" stroke="#aaa" stroke-width="1"/>
  <text x="600" y="96" text-anchor="middle" font-size="11" fill="#555">120"</text>

  <!-- Top rail (Portrait) -->
  <text x="60" y="104" font-size="11" fill="#555" font-family="monospace">竖放 (Portrait)</text>
<rect x="118.6" y="110" width="27.0" height="110" rx="2" fill="#5CB85C" opacity="0.85"/>
<text x="132.1" y="168.0" text-anchor="middle" font-size="8" fill="white" font-family="monospace">S</text>
<rect x="154.6" y="110" width="47.7" height="110" rx="3" fill="#4A90D9" opacity="0.88"/>
<text x="178.5" y="128.0" text-anchor="middle" font-size="10" font-weight="bold" fill="white" font-family="monospace">#1</text>
<text x="178.5" y="144.0" text-anchor="middle" font-size="9" fill="white" font-family="monospace" clip-path="url(#cliptop0)">mini (5.30"P)</text>
<text x="160.5" y="233.0" text-anchor="middle" font-size="9" fill="#333" font-family="monospace">9.30"</text>
<rect x="319.6" y="110" width="27.0" height="110" rx="2" fill="#5CB85C" opacity="0.85"/>
<text x="333.1" y="168.0" text-anchor="middle" font-size="8" fill="white" font-family="monospace">S</text>
<rect x="355.6" y="110" width="62.9" height="110" rx="3" fill="#4A90D9" opacity="0.88"/>
<text x="387.1" y="128.0" text-anchor="middle" font-size="10" font-weight="bold" fill="white" font-family="monospace">#2</text>
<text x="387.1" y="144.0" text-anchor="middle" font-size="9" fill="white" font-family="monospace" clip-path="url(#cliptop1)">Pro 11" (6.99"P)</text>
<text x="369.1" y="233.0" text-anchor="middle" font-size="9" fill="#333" font-family="monospace">10.99"</text>
<rect x="535.8" y="110" width="27.0" height="110" rx="2" fill="#5CB85C" opacity="0.85"/>
<text x="549.3" y="168.0" text-anchor="middle" font-size="8" fill="white" font-family="monospace">S</text>
<rect x="571.8" y="110" width="63.2" height="110" rx="3" fill="#4A90D9" opacity="0.88"/>
<text x="603.4" y="128.0" text-anchor="middle" font-size="10" font-weight="bold" fill="white" font-family="monospace">#3</text>
<text x="603.4" y="144.0" text-anchor="middle" font-size="9" fill="white" font-family="monospace" clip-path="url(#cliptop2)">Air 11" (7.02"P)</text>
<text x="585.4" y="233.0" text-anchor="middle" font-size="9" fill="#333" font-family="monospace">11.02"</text>
<rect x="752.3" y="110" width="27.0" height="110" rx="2" fill="#5CB85C" opacity="0.85"/>
<text x="765.8" y="168.0" text-anchor="middle" font-size="8" fill="white" font-family="monospace">S</text>
<rect x="788.3" y="110" width="63.6" height="110" rx="3" fill="#4A90D9" opacity="0.88"/>
<text x="820.1" y="128.0" text-anchor="middle" font-size="10" font-weight="bold" fill="white" font-family="monospace">#4</text>
<text x="820.1" y="144.0" text-anchor="middle" font-size="9" fill="white" font-family="monospace" clip-path="url(#cliptop3)">(A16) (7.07"P)</text>
<text x="802.1" y="233.0" text-anchor="middle" font-size="9" fill="#333" font-family="monospace">11.07"</text>
<rect x="969.2" y="110" width="27.0" height="110" rx="2" fill="#5CB85C" opacity="0.85"/>
<text x="982.7" y="168.0" text-anchor="middle" font-size="8" fill="white" font-family="monospace">S</text>
<rect x="1005.2" y="110" width="76.1" height="110" rx="3" fill="#4A90D9" opacity="0.88"/>
<text x="1043.3" y="128.0" text-anchor="middle" font-size="10" font-weight="bold" fill="white" font-family="monospace">#5</text>
<text x="1043.3" y="144.0" text-anchor="middle" font-size="9" fill="white" font-family="monospace" clip-path="url(#cliptop4)">Air 13" (8.46"P)</text>
<text x="1025.3" y="233.0" text-anchor="middle" font-size="9" fill="#333" font-family="monospace">12.46"</text>

  <!-- Top gap annotations -->
  <line x1="202.3" y1="70" x2="319.6" y2="70" stroke="#888" stroke-width="1" stroke-dasharray="3,2"/>
<text x="261.0" y="68.0" text-anchor="middle" font-size="9" fill="#666" font-family="monospace">13.03"</text>
<line x1="418.5" y1="70" x2="535.8" y2="70" stroke="#888" stroke-width="1" stroke-dasharray="3,2"/>
<text x="477.2" y="68.0" text-anchor="middle" font-size="9" fill="#666" font-family="monospace">13.03"</text>
<line x1="635.0" y1="70" x2="752.3" y2="70" stroke="#888" stroke-width="1" stroke-dasharray="3,2"/>
<text x="693.7" y="68.0" text-anchor="middle" font-size="9" fill="#666" font-family="monospace">13.03"</text>
<line x1="851.9" y1="70" x2="969.2" y2="70" stroke="#888" stroke-width="1" stroke-dasharray="3,2"/>
<text x="910.6" y="68.0" text-anchor="middle" font-size="9" fill="#666" font-family="monospace">13.03"</text>
<text x="89.3" y="68.0" text-anchor="middle" font-size="9" fill="#999" font-family="monospace">6.52"</text>
<text x="1110.7" y="68.0" text-anchor="middle" font-size="9" fill="#999" font-family="monospace">6.52"</text>


  <!-- Bottom rail (Landscape) -->
  <text x="60" y="258" font-size="11" fill="#555" font-family="monospace">竖放 (Portrait)</text>
<rect x="177.3" y="264" width="27.0" height="110" rx="2" fill="#5CB85C" opacity="0.85"/>
<text x="190.8" y="322.0" text-anchor="middle" font-size="8" fill="white" font-family="monospace">S</text>
<rect x="213.3" y="264" width="99.8" height="110" rx="3" fill="#4A90D9" opacity="0.88"/>
<text x="263.2" y="282.0" text-anchor="middle" font-size="10" font-weight="bold" fill="white" font-family="monospace">#1</text>
<text x="263.2" y="298.0" text-anchor="middle" font-size="9" fill="white" font-family="monospace" clip-path="url(#clipbottom0)">Pro 13" (11.09"P)</text>
<text x="245.2" y="387.0" text-anchor="middle" font-size="9" fill="#333" font-family="monospace">15.09"</text>
<rect x="547.6" y="264" width="27.0" height="110" rx="2" fill="#5CB85C" opacity="0.85"/>
<text x="561.1" y="322.0" text-anchor="middle" font-size="8" fill="white" font-family="monospace">S</text>
<rect x="583.6" y="264" width="99.4" height="110" rx="3" fill="#4A90D9" opacity="0.88"/>
<text x="633.3" y="282.0" text-anchor="middle" font-size="10" font-weight="bold" fill="white" font-family="monospace">#2</text>
<text x="633.3" y="298.0" text-anchor="middle" font-size="9" fill="white" font-family="monospace" clip-path="url(#clipbottom1)">Air 13" (11.04"P)</text>
<text x="615.3" y="387.0" text-anchor="middle" font-size="9" fill="#333" font-family="monospace">15.04"</text>
<rect x="917.5" y="264" width="27.0" height="110" rx="2" fill="#5CB85C" opacity="0.85"/>
<text x="931.0" y="322.0" text-anchor="middle" font-size="8" fill="white" font-family="monospace">S</text>
<rect x="953.5" y="264" width="69.2" height="110" rx="3" fill="#4A90D9" opacity="0.88"/>
<text x="988.1" y="282.0" text-anchor="middle" font-size="10" font-weight="bold" fill="white" font-family="monospace">#3</text>
<text x="988.1" y="298.0" text-anchor="middle" font-size="9" fill="white" font-family="monospace" clip-path="url(#clipbottom2)">mini (7.69"P)</text>
<text x="970.1" y="387.0" text-anchor="middle" font-size="9" fill="#333" font-family="monospace">11.69"</text>

  <!-- Bottom gap annotations -->
  <line x1="313.1" y1="402" x2="547.6" y2="402" stroke="#888" stroke-width="1" stroke-dasharray="3,2"/>
<text x="430.4" y="400.0" text-anchor="middle" font-size="9" fill="#666" font-family="monospace">26.06"</text>
<line x1="683.0" y1="402" x2="917.5" y2="402" stroke="#888" stroke-width="1" stroke-dasharray="3,2"/>
<text x="800.3" y="400.0" text-anchor="middle" font-size="9" fill="#666" font-family="monospace">26.06"</text>
<text x="118.6" y="400.0" text-anchor="middle" font-size="9" fill="#999" font-family="monospace">13.03"</text>
<text x="1081.4" y="400.0" text-anchor="middle" font-size="9" fill="#999" font-family="monospace">13.03"</text>


  <!-- Alignment lines (comparison only) -->
  <line x1="160.5" y1="220" x2="245.2" y2="264" stroke="#ccc" stroke-width="1.5" stroke-dasharray="2,4" opacity="0.7"/>
<line x1="369.1" y1="220" x2="615.3" y2="264" stroke="#ccc" stroke-width="1.5" stroke-dasharray="2,4" opacity="0.7"/>
<line x1="585.4" y1="220" x2="970.1" y2="264" stroke="#ccc" stroke-width="1.5" stroke-dasharray="2,4" opacity="0.7"/>


  <!-- Info panel -->
  <rect x="20" y="424" width="1160" height="68" rx="4"
        fill="white" stroke="#ddd" stroke-width="1"/>
  <text font-size="10" fill="#444" font-family="monospace">
    <tspan x="30" y="438">
      竖排(上)：5 台 [iPad mini, iPad Pro 11", iPad Air 11", iPad (A16), iPad Air 13"]  |  X=13.032"  |  边缘 6.516"  |  总宽 54.84"  ✓ fits
    </tspan>
    <tspan x="30" dy="14">
      横排(下)：3 台 [iPad Pro 13", iPad Air 13", iPad mini]  |  X=26.060"  |  边缘 13.030"  |  总宽 41.82"  ✓ fits
    </tspan>
    <tspan x="30" dy="14">模式：independent  |  类型：ipad-assortment  |  备注：两侧独立间距</tspan>
  </text>

  <!-- Warnings / pass -->
  <text font-size="10" fill="#444" font-family="monospace">
    <tspan x="30" dy="13" fill="#5CB85C">✓ 无告警</tspan>
  </text>

  <!-- Legend -->
  <rect x="20" y="492" width="12" height="12" rx="2" fill="#4A90D9"/>
  <text x="36" y="502" font-size="10" fill="#555">竖放 (Portrait)</text>
  <rect x="140" y="492" width="12" height="12" rx="2" fill="#E8874A"/>
  <text x="156" y="502" font-size="10" fill="#555">横放 (Landscape)</text>
  <rect x="280" y="492" width="12" height="12" rx="2" fill="#5CB85C"/>
  <text x="296" y="502" font-size="10" fill="#555">2×3 Product Sign (3"+1" gap)</text>
  <text x="1180" y="502" text-anchor="end" font-size="9" fill="#bbb">
    Generated: 2026-03-07
  </text>
</svg>