<?xml version="1.0" encoding="UTF-8"?>
<svg xmlns="http://www.w3.org/2000/svg" width="1200" height="514" viewBox="0 0 1200 514">
  <style>
    text { font-family: 'PingFang SC', 'Microsoft YaHei', Arial, sans-serif; }
  </style>

  <!-- Background -->
  <rect width="1200" height="514" fill="#f7f8fa"/>

  <!-- Title bar -->
  <rect x="0" y="0" width="1200" height="50" rx="0" fill="#1d1d1f"/>
  <text x="20" y="20" font-size="13" fill="white" font-weight="bold">TC11 — 120" 对比 – 竖 × 4 vs 横 × 4</text>
  <text x="20" y="38" font-size="11" fill="#aaa">120" (10-ft) 展示桌 · 对比展示桌 · 所有设备含 2×3 产品标牌 · 查表 Y=5" / Z=6" (@120"key)</text>
  <!-- Status badge -->
  <rect x="1120" y="8" width="60" height="26" rx="5" fill="#2a9d2a"/>
  <text x="1150" y="26" text-anchor="middle" font-size="14" font-weight="bold" fill="white">PASS</text>

  <!-- Table surface -->
  <rect x="60" y="90" width="1080" height="304" rx="4"
        fill="white" stroke="#ccc" stroke-width="1.5"/>

  <!-- Rail backgrounds -->
  <rect x="60" y="110" width="1080" height="110" rx="2" fill="#e8f0fb" opacity="0.5"/>
  <rect x="60" y="264" width="1080" height="110" rx="2" fill="#fdebd8" opacity="0.5"/>

  <!-- Centre divider label -->
  <line x1="60" y1="242" x2="1140" y2="242"
        stroke="#ddd" stroke-width="1" stroke-dasharray="6,4"/>
  <text x="600" y="246" text-anchor="middle" font-size="9" fill="#bbb">
    ← 展台中心分隔线 →</text>

  <!-- Table edge rulers -->
  <line x1="60" y1="80" x2="1140" y2="80" stroke="#aaa" stroke-width="1"/>
  <line x1="60" y1="75" x2="60" y2="85" stroke="#aaa" stroke-width="1"/>
  <line x1="1140" y1="75" x2="1140" y2="85" stroke="#aaa" stroke-width="1"/>
  <text x="600" y="96" text-anchor="middle" font-size="11" fill="#555">120"</text>

  <!-- Top rail (Portrait) -->
  <text x="60" y="104" font-size="11" fill="#555" font-family="monospace">竖放 (Portrait)</text>
<rect x="148.1" y="110" width="27.0" height="110" rx="2" fill="#5CB85C" opacity="0.85"/>
<text x="161.6" y="168.0" text-anchor="middle" font-size="8" fill="white" font-family="monospace">S</text>
<rect x="184.1" y="110" width="62.9" height="110" rx="3" fill="#4A90D9" opacity="0.88"/>
<text x="215.6" y="128.0" text-anchor="middle" font-size="10" font-weight="bold" fill="white" font-family="monospace">#1</text>
<text x="215.6" y="144.0" text-anchor="middle" font-size="9" fill="white" font-family="monospace" clip-path="url(#cliptop0)">Pro 11" (6.99"P)</text>
<text x="197.6" y="233.0" text-anchor="middle" font-size="9" fill="#333" font-family="monospace">10.99"</text>
<rect x="422.7" y="110" width="27.0" height="110" rx="2" fill="#5CB85C" opacity="0.85"/>
<text x="436.2" y="168.0" text-anchor="middle" font-size="8" fill="white" font-family="monospace">S</text>
<rect x="458.7" y="110" width="63.2" height="110" rx="3" fill="#4A90D9" opacity="0.88"/>
<text x="490.3" y="128.0" text-anchor="middle" font-size="10" font-weight="bold" fill="white" font-family="monospace">#2</text>
<text x="490.3" y="144.0" text-anchor="middle" font-size="9" fill="white" font-family="monospace" clip-path="url(#cliptop1)">Air 11" (7.02"P)</text>
<text x="472.3" y="233.0" text-anchor="middle" font-size="9" fill="#333" font-family="monospace">11.02"</text>
<rect x="697.0" y="110" width="27.0" height="110" rx="2" fill="#5CB85C" opacity="0.85"/>
<text x="710.5" y="168.0" text-anchor="middle" font-size="8" fill="white" font-family="monospace">S</text>
<rect x="733.0" y="110" width="63.6" height="110" rx="3" fill="#4A90D9" opacity="0.88"/>
<text x="764.8" y="128.0" text-anchor="middle" font-size="10" font-weight="bold" fill="white" font-family="monospace">#3</text>
<text x="764.8" y="144.0" text-anchor="middle" font-size="9" fill="white" font-family="monospace" clip-path="url(#cliptop2)">(A16) (7.07"P)</text>
<text x="746.8" y="233.0" text-anchor="middle" font-size="9" fill="#333" font-family="monospace">11.07"</text>
<rect x="970.2" y="110" width="27.0" height="110" rx="2" fill="#5CB85C" opacity="0.85"/>
<text x="983.7" y="168.0" text-anchor="middle" font-size="8" fill="white" font-family="monospace">S</text>
<rect x="1006.2" y="110" width="47.7" height="110" rx="3" fill="#4A90D9" opacity="0.88"/>
<text x="1030.1" y="128.0" text-anchor="middle" font-size="10" font-weight="bold" fill="white" font-family="monospace">#4</text>
<text x="1030.1" y="144.0" text-anchor="middle" font-size="9" fill="white" font-family="monospace" clip-path="url(#cliptop3)">mini (5.30"P)</text>
<text x="1012.1" y="233.0" text-anchor="middle" font-size="9" fill="#333" font-family="monospace">9.30"</text>

  <!-- Top gap annotations -->
  <line x1="247.0" y1="70" x2="422.7" y2="70" stroke="#888" stroke-width="1" stroke-dasharray="3,2"/>
<text x="334.8" y="68.0" text-anchor="middle" font-size="9" fill="#666" font-family="monospace">19.52"</text>
<line x1="521.8" y1="70" x2="697.0" y2="70" stroke="#888" stroke-width="1" stroke-dasharray="3,2"/>
<text x="609.4" y="68.0" text-anchor="middle" font-size="9" fill="#666" font-family="monospace">19.46"</text>
<line x1="796.6" y1="70" x2="970.2" y2="70" stroke="#888" stroke-width="1" stroke-dasharray="3,2"/>
<text x="883.4" y="68.0" text-anchor="middle" font-size="9" fill="#666" font-family="monospace">19.29"</text>
<text x="104.0" y="68.0" text-anchor="middle" font-size="9" fill="#999" font-family="monospace">9.79"</text>
<text x="1097.0" y="68.0" text-anchor="middle" font-size="9" fill="#999" font-family="monospace">9.56"</text>


  <!-- Bottom rail (Landscape) -->
  <text x="60" y="258" font-size="11" fill="#555" font-family="monospace">竖放 (Portrait)</text>
<rect x="135.3" y="264" width="27.0" height="110" rx="2" fill="#5CB85C" opacity="0.85"/>
<text x="148.8" y="322.0" text-anchor="middle" font-size="8" fill="white" font-family="monospace">S</text>
<rect x="171.3" y="264" width="88.5" height="110" rx="3" fill="#4A90D9" opacity="0.88"/>
<text x="215.6" y="282.0" text-anchor="middle" font-size="10" font-weight="bold" fill="white" font-family="monospace">#1</text>
<text x="215.6" y="298.0" text-anchor="middle" font-size="9" fill="white" font-family="monospace" clip-path="url(#clipbottom0)">Pro 11" (9.83"P)</text>
<text x="197.6" y="387.0" text-anchor="middle" font-size="9" fill="#333" font-family="monospace">13.83"</text>
<rect x="410.4" y="264" width="27.0" height="110" rx="2" fill="#5CB85C" opacity="0.85"/>
<text x="423.9" y="322.0" text-anchor="middle" font-size="8" fill="white" font-family="monospace">S</text>
<rect x="446.4" y="264" width="87.7" height="110" rx="3" fill="#4A90D9" opacity="0.88"/>
<text x="490.3" y="282.0" text-anchor="middle" font-size="10" font-weight="bold" fill="white" font-family="monospace">#2</text>
<text x="490.3" y="298.0" text-anchor="middle" font-size="9" fill="white" font-family="monospace" clip-path="url(#clipbottom1)">Air 11" (9.74"P)</text>
<text x="472.3" y="387.0" text-anchor="middle" font-size="9" fill="#333" font-family="monospace">13.74"</text>
<rect x="684.7" y="264" width="27.0" height="110" rx="2" fill="#5CB85C" opacity="0.85"/>
<text x="698.2" y="322.0" text-anchor="middle" font-size="8" fill="white" font-family="monospace">S</text>
<rect x="720.7" y="264" width="88.1" height="110" rx="3" fill="#4A90D9" opacity="0.88"/>
<text x="764.8" y="282.0" text-anchor="middle" font-size="10" font-weight="bold" fill="white" font-family="monospace">#3</text>
<text x="764.8" y="298.0" text-anchor="middle" font-size="9" fill="white" font-family="monospace" clip-path="url(#clipbottom2)">(A16) (9.79"P)</text>
<text x="746.8" y="387.0" text-anchor="middle" font-size="9" fill="#333" font-family="monospace">13.79"</text>
<rect x="959.5" y="264" width="27.0" height="110" rx="2" fill="#5CB85C" opacity="0.85"/>
<text x="973.0" y="322.0" text-anchor="middle" font-size="8" fill="white" font-family="monospace">S</text>
<rect x="995.5" y="264" width="69.2" height="110" rx="3" fill="#4A90D9" opacity="0.88"/>
<text x="1030.1" y="282.0" text-anchor="middle" font-size="10" font-weight="bold" fill="white" font-family="monospace">#4</text>
<text x="1030.1" y="298.0" text-anchor="middle" font-size="9" fill="white" font-family="monospace" clip-path="url(#clipbottom3)">mini (7.69"P)</text>
<text x="1012.1" y="387.0" text-anchor="middle" font-size="9" fill="#333" font-family="monospace">11.69"</text>

  <!-- Bottom gap annotations -->
  <line x1="259.8" y1="402" x2="410.4" y2="402" stroke="#888" stroke-width="1" stroke-dasharray="3,2"/>
<text x="335.1" y="400.0" text-anchor="middle" font-size="9" fill="#666" font-family="monospace">16.74"</text>
<line x1="534.1" y1="402" x2="684.7" y2="402" stroke="#888" stroke-width="1" stroke-dasharray="3,2"/>
<text x="609.4" y="400.0" text-anchor="middle" font-size="9" fill="#666" font-family="monospace">16.74"</text>
<line x1="808.8" y1="402" x2="959.5" y2="402" stroke="#888" stroke-width="1" stroke-dasharray="3,2"/>
<text x="884.2" y="400.0" text-anchor="middle" font-size="9" fill="#666" font-family="monospace">16.74"</text>
<text x="97.7" y="400.0" text-anchor="middle" font-size="9" fill="#999" font-family="monospace">8.37"</text>
<text x="1102.3" y="400.0" text-anchor="middle" font-size="9" fill="#999" font-family="monospace">8.37"</text>


  <!-- Alignment lines (comparison only) -->
  <line x1="197.6" y1="220" x2="197.6" y2="264" stroke="#5CB85C" stroke-width="1.5" stroke-dasharray="4,3" opacity="0.7"/>
<line x1="472.3" y1="220" x2="472.3" y2="264" stroke="#5CB85C" stroke-width="1.5" stroke-dasharray="4,3" opacity="0.7"/>
<line x1="746.8" y1="220" x2="746.8" y2="264" stroke="#5CB85C" stroke-width="1.5" stroke-dasharray="4,3" opacity="0.7"/>
<line x1="1012.1" y1="220" x2="1012.1" y2="264" stroke="#5CB85C" stroke-width="1.5" stroke-dasharray="4,3" opacity="0.7"/>


  <!-- Info panel -->
  <rect x="20" y="424" width="1160" height="68" rx="4"
        fill="white" stroke="#ddd" stroke-width="1"/>
  <text font-size="10" fill="#444" font-family="monospace">
    <tspan x="30" y="438">
      竖排(上)：4 台 [iPad Pro 11", iPad Air 11", iPad (A16), iPad mini]  |  (center-aligned)  |  边缘 9.789"  |  总宽 42.38"  ✓ fits
    </tspan>
    <tspan x="30" dy="14">
      横排(下)：4 台 [iPad Pro 11", iPad Air 11", iPad (A16), iPad mini]  |  X=16.738"  |  边缘 8.369"  |  总宽 53.05"  ✓ fits
    </tspan>
    <tspan x="30" dy="14">模式：center-aligned  |  类型：ipad-comparison  |  备注：四款对比，中心对齐</tspan>
  </text>

  <!-- Warnings / pass -->
  <text font-size="10" fill="#444" font-family="monospace">
    <tspan x="30" dy="13" fill="#5CB85C">✓ 无告警</tspan>
  </text>

  <!-- Legend -->
  <rect x="20" y="492" width="12" height="12" rx="2" fill="#4A90D9"/>
  <text x="36" y="502" font-size="10" fill="#555">竖放 (Portrait)</text>
  <rect x="140" y="492" width="12" height="12" rx="2" fill="#E8874A"/>
  <text x="156" y="502" font-size="10" fill="#555">横放 (Landscape)</text>
  <rect x="280" y="492" width="12" height="12" rx="2" fill="#5CB85C"/>
  <text x="296" y="502" font-size="10" fill="#555">2×3 Product Sign (3"+1" gap)</text>
  <text x="1180" y="502" text-anchor="end" font-size="9" fill="#bbb">
    Generated: 2026-03-07
  </text>
</svg>