<?xml version="1.0" encoding="UTF-8"?>
<svg xmlns="http://www.w3.org/2000/svg" width="1200" height="514" viewBox="0 0 1200 514">
  <style>
    text { font-family: 'PingFang SC', 'Microsoft YaHei', Arial, sans-serif; }
  </style>

  <!-- Background -->
  <rect width="1200" height="514" fill="#f7f8fa"/>

  <!-- Title bar -->
  <rect x="0" y="0" width="1200" height="50" rx="0" fill="#1d1d1f"/>
  <text x="20" y="20" font-size="13" fill="white" font-weight="bold">TC12 — 120" 对比 – 竖 × 3 vs 横 × 3（大尺寸）</text>
  <text x="20" y="38" font-size="11" fill="#aaa">120" (10-ft) 展示桌 · 对比展示桌 · 所有设备含 2×3 产品标牌 · 查表 Y=5" / Z=6" (@120"key)</text>
  <!-- Status badge -->
  <rect x="1120" y="8" width="60" height="26" rx="5" fill="#2a9d2a"/>
  <text x="1150" y="26" text-anchor="middle" font-size="14" font-weight="bold" fill="white">PASS</text>

  <!-- Table surface -->
  <rect x="60" y="90" width="1080" height="304" rx="4"
        fill="white" stroke="#ccc" stroke-width="1.5"/>

  <!-- Rail backgrounds -->
  <rect x="60" y="110" width="1080" height="110" rx="2" fill="#e8f0fb" opacity="0.5"/>
  <rect x="60" y="264" width="1080" height="110" rx="2" fill="#fdebd8" opacity="0.5"/>

  <!-- Centre divider label -->
  <line x1="60" y1="242" x2="1140" y2="242"
        stroke="#ddd" stroke-width="1" stroke-dasharray="6,4"/>
  <text x="600" y="246" text-anchor="middle" font-size="9" fill="#bbb">
    ← 展台中心分隔线 →</text>

  <!-- Table edge rulers -->
  <line x1="60" y1="80" x2="1140" y2="80" stroke="#aaa" stroke-width="1"/>
  <line x1="60" y1="75" x2="60" y2="85" stroke="#aaa" stroke-width="1"/>
  <line x1="1140" y1="75" x2="1140" y2="85" stroke="#aaa" stroke-width="1"/>
  <text x="600" y="96" text-anchor="middle" font-size="11" fill="#555">120"</text>

  <!-- Top rail (Portrait) -->
  <text x="60" y="104" font-size="11" fill="#555" font-family="monospace">竖放 (Portrait)</text>
<rect x="185.8" y="110" width="27.0" height="110" rx="2" fill="#5CB85C" opacity="0.85"/>
<text x="199.3" y="168.0" text-anchor="middle" font-size="8" fill="white" font-family="monospace">S</text>
<rect x="221.8" y="110" width="76.3" height="110" rx="3" fill="#4A90D9" opacity="0.88"/>
<text x="260.0" y="128.0" text-anchor="middle" font-size="10" font-weight="bold" fill="white" font-family="monospace">#1</text>
<text x="260.0" y="144.0" text-anchor="middle" font-size="9" fill="white" font-family="monospace" clip-path="url(#cliptop0)">Pro 13" (8.48"P)</text>
<text x="242.0" y="233.0" text-anchor="middle" font-size="9" fill="#333" font-family="monospace">12.48"</text>
<rect x="549.6" y="110" width="27.0" height="110" rx="2" fill="#5CB85C" opacity="0.85"/>
<text x="563.1" y="168.0" text-anchor="middle" font-size="8" fill="white" font-family="monospace">S</text>
<rect x="585.6" y="110" width="76.1" height="110" rx="3" fill="#4A90D9" opacity="0.88"/>
<text x="623.7" y="128.0" text-anchor="middle" font-size="10" font-weight="bold" fill="white" font-family="monospace">#2</text>
<text x="623.7" y="144.0" text-anchor="middle" font-size="9" fill="white" font-family="monospace" clip-path="url(#cliptop1)">Air 13" (8.46"P)</text>
<text x="605.7" y="233.0" text-anchor="middle" font-size="9" fill="#333" font-family="monospace">12.46"</text>
<rect x="914.3" y="110" width="27.0" height="110" rx="2" fill="#5CB85C" opacity="0.85"/>
<text x="927.8" y="168.0" text-anchor="middle" font-size="8" fill="white" font-family="monospace">S</text>
<rect x="950.3" y="110" width="62.9" height="110" rx="3" fill="#4A90D9" opacity="0.88"/>
<text x="981.7" y="128.0" text-anchor="middle" font-size="10" font-weight="bold" fill="white" font-family="monospace">#3</text>
<text x="981.7" y="144.0" text-anchor="middle" font-size="9" fill="white" font-family="monospace" clip-path="url(#cliptop2)">Pro 11" (6.99"P)</text>
<text x="963.7" y="233.0" text-anchor="middle" font-size="9" fill="#333" font-family="monospace">10.99"</text>

  <!-- Top gap annotations -->
  <line x1="298.1" y1="70" x2="549.6" y2="70" stroke="#888" stroke-width="1" stroke-dasharray="3,2"/>
<text x="423.9" y="68.0" text-anchor="middle" font-size="9" fill="#666" font-family="monospace">27.94"</text>
<line x1="661.7" y1="70" x2="914.3" y2="70" stroke="#888" stroke-width="1" stroke-dasharray="3,2"/>
<text x="788.0" y="68.0" text-anchor="middle" font-size="9" fill="#666" font-family="monospace">28.06"</text>
<text x="122.9" y="68.0" text-anchor="middle" font-size="9" fill="#999" font-family="monospace">13.98"</text>
<text x="1076.6" y="68.0" text-anchor="middle" font-size="9" fill="#999" font-family="monospace">14.09"</text>


  <!-- Bottom rail (Landscape) -->
  <text x="60" y="258" font-size="11" fill="#555" font-family="monospace">竖放 (Portrait)</text>
<rect x="174.1" y="264" width="27.0" height="110" rx="2" fill="#5CB85C" opacity="0.85"/>
<text x="187.6" y="322.0" text-anchor="middle" font-size="8" fill="white" font-family="monospace">S</text>
<rect x="210.1" y="264" width="99.8" height="110" rx="3" fill="#4A90D9" opacity="0.88"/>
<text x="260.0" y="282.0" text-anchor="middle" font-size="10" font-weight="bold" fill="white" font-family="monospace">#1</text>
<text x="260.0" y="298.0" text-anchor="middle" font-size="9" fill="white" font-family="monospace" clip-path="url(#clipbottom0)">Pro 13" (11.09"P)</text>
<text x="242.0" y="387.0" text-anchor="middle" font-size="9" fill="#333" font-family="monospace">15.09"</text>
<rect x="538.0" y="264" width="27.0" height="110" rx="2" fill="#5CB85C" opacity="0.85"/>
<text x="551.5" y="322.0" text-anchor="middle" font-size="8" fill="white" font-family="monospace">S</text>
<rect x="574.0" y="264" width="99.4" height="110" rx="3" fill="#4A90D9" opacity="0.88"/>
<text x="623.7" y="282.0" text-anchor="middle" font-size="10" font-weight="bold" fill="white" font-family="monospace">#2</text>
<text x="623.7" y="298.0" text-anchor="middle" font-size="9" fill="white" font-family="monospace" clip-path="url(#clipbottom1)">Air 13" (11.04"P)</text>
<text x="605.7" y="387.0" text-anchor="middle" font-size="9" fill="#333" font-family="monospace">15.04"</text>
<rect x="901.5" y="264" width="27.0" height="110" rx="2" fill="#5CB85C" opacity="0.85"/>
<text x="915.0" y="322.0" text-anchor="middle" font-size="8" fill="white" font-family="monospace">S</text>
<rect x="937.5" y="264" width="88.5" height="110" rx="3" fill="#4A90D9" opacity="0.88"/>
<text x="981.7" y="282.0" text-anchor="middle" font-size="10" font-weight="bold" fill="white" font-family="monospace">#3</text>
<text x="981.7" y="298.0" text-anchor="middle" font-size="9" fill="white" font-family="monospace" clip-path="url(#clipbottom2)">Pro 11" (9.83"P)</text>
<text x="963.7" y="387.0" text-anchor="middle" font-size="9" fill="#333" font-family="monospace">13.83"</text>

  <!-- Bottom gap annotations -->
  <line x1="309.9" y1="402" x2="538.0" y2="402" stroke="#888" stroke-width="1" stroke-dasharray="3,2"/>
<text x="423.9" y="400.0" text-anchor="middle" font-size="9" fill="#666" font-family="monospace">25.35"</text>
<line x1="673.4" y1="402" x2="901.5" y2="402" stroke="#888" stroke-width="1" stroke-dasharray="3,2"/>
<text x="787.4" y="400.0" text-anchor="middle" font-size="9" fill="#666" font-family="monospace">25.35"</text>
<text x="117.0" y="400.0" text-anchor="middle" font-size="9" fill="#999" font-family="monospace">12.67"</text>
<text x="1083.0" y="400.0" text-anchor="middle" font-size="9" fill="#999" font-family="monospace">12.67"</text>


  <!-- Alignment lines (comparison only) -->
  <line x1="242.0" y1="220" x2="242.0" y2="264" stroke="#5CB85C" stroke-width="1.5" stroke-dasharray="4,3" opacity="0.7"/>
<line x1="605.7" y1="220" x2="605.7" y2="264" stroke="#5CB85C" stroke-width="1.5" stroke-dasharray="4,3" opacity="0.7"/>
<line x1="963.7" y1="220" x2="963.7" y2="264" stroke="#5CB85C" stroke-width="1.5" stroke-dasharray="4,3" opacity="0.7"/>


  <!-- Info panel -->
  <rect x="20" y="424" width="1160" height="68" rx="4"
        fill="white" stroke="#ddd" stroke-width="1"/>
  <text font-size="10" fill="#444" font-family="monospace">
    <tspan x="30" y="438">
      竖排(上)：3 台 [iPad Pro 13", iPad Air 13", iPad Pro 11"]  |  (center-aligned)  |  边缘 13.978"  |  总宽 35.93"  ✓ fits
    </tspan>
    <tspan x="30" dy="14">
      横排(下)：3 台 [iPad Pro 13", iPad Air 13", iPad Pro 11"]  |  X=25.347"  |  边缘 12.673"  |  总宽 43.96"  ✓ fits
    </tspan>
    <tspan x="30" dy="14">模式：center-aligned  |  类型：ipad-comparison  |  备注：大屏对比，中心对齐</tspan>
  </text>

  <!-- Warnings / pass -->
  <text font-size="10" fill="#444" font-family="monospace">
    <tspan x="30" dy="13" fill="#5CB85C">✓ 无告警</tspan>
  </text>

  <!-- Legend -->
  <rect x="20" y="492" width="12" height="12" rx="2" fill="#4A90D9"/>
  <text x="36" y="502" font-size="10" fill="#555">竖放 (Portrait)</text>
  <rect x="140" y="492" width="12" height="12" rx="2" fill="#E8874A"/>
  <text x="156" y="502" font-size="10" fill="#555">横放 (Landscape)</text>
  <rect x="280" y="492" width="12" height="12" rx="2" fill="#5CB85C"/>
  <text x="296" y="502" font-size="10" fill="#555">2×3 Product Sign (3"+1" gap)</text>
  <text x="1180" y="502" text-anchor="end" font-size="9" fill="#bbb">
    Generated: 2026-03-07
  </text>
</svg>