<?xml version="1.0" encoding="UTF-8"?>
<svg xmlns="http://www.w3.org/2000/svg" width="1200" height="514" viewBox="0 0 1200 514">
  <style>
    text { font-family: 'PingFang SC', 'Microsoft YaHei', Arial, sans-serif; }
  </style>

  <!-- Background -->
  <rect width="1200" height="514" fill="#f7f8fa"/>

  <!-- Title bar -->
  <rect x="0" y="0" width="1200" height="50" rx="0" fill="#1d1d1f"/>
  <text x="20" y="20" font-size="13" fill="white" font-weight="bold">TC15 — 144" 对比 – 竖 × 5 vs 横 × 5</text>
  <text x="20" y="38" font-size="11" fill="#aaa">144" (12-ft) 展示桌 · 对比展示桌 · 所有设备含 2×3 产品标牌 · 查表 Y=5" / Z=6" (@144"key)</text>
  <!-- Status badge -->
  <rect x="1120" y="8" width="60" height="26" rx="5" fill="#2a9d2a"/>
  <text x="1150" y="26" text-anchor="middle" font-size="14" font-weight="bold" fill="white">PASS</text>

  <!-- Table surface -->
  <rect x="60" y="90" width="1080" height="304" rx="4"
        fill="white" stroke="#ccc" stroke-width="1.5"/>

  <!-- Rail backgrounds -->
  <rect x="60" y="110" width="1080" height="110" rx="2" fill="#e8f0fb" opacity="0.5"/>
  <rect x="60" y="264" width="1080" height="110" rx="2" fill="#fdebd8" opacity="0.5"/>

  <!-- Centre divider label -->
  <line x1="60" y1="242" x2="1140" y2="242"
        stroke="#ddd" stroke-width="1" stroke-dasharray="6,4"/>
  <text x="600" y="246" text-anchor="middle" font-size="9" fill="#bbb">
    ← 展台中心分隔线 →</text>

  <!-- Table edge rulers -->
  <line x1="60" y1="80" x2="1140" y2="80" stroke="#aaa" stroke-width="1"/>
  <line x1="60" y1="75" x2="60" y2="85" stroke="#aaa" stroke-width="1"/>
  <line x1="1140" y1="75" x2="1140" y2="85" stroke="#aaa" stroke-width="1"/>
  <text x="600" y="96" text-anchor="middle" font-size="11" fill="#555">144"</text>

  <!-- Top rail (Portrait) -->
  <text x="60" y="104" font-size="11" fill="#555" font-family="monospace">竖放 (Portrait)</text>
<rect x="127.6" y="110" width="22.5" height="110" rx="2" fill="#5CB85C" opacity="0.85"/>
<text x="138.8" y="168.0" text-anchor="middle" font-size="8" fill="white" font-family="monospace">S</text>
<rect x="157.6" y="110" width="52.4" height="110" rx="3" fill="#4A90D9" opacity="0.88"/>
<text x="183.8" y="128.0" text-anchor="middle" font-size="10" font-weight="bold" fill="white" font-family="monospace">#1</text>
<text x="183.8" y="144.0" text-anchor="middle" font-size="9" fill="white" font-family="monospace" clip-path="url(#cliptop0)">Pro 11" (6.99"P)</text>
<text x="168.8" y="233.0" text-anchor="middle" font-size="9" fill="#333" font-family="monospace">10.99"</text>
<rect x="344.7" y="110" width="22.5" height="110" rx="2" fill="#5CB85C" opacity="0.85"/>
<text x="356.0" y="168.0" text-anchor="middle" font-size="8" fill="white" font-family="monospace">S</text>
<rect x="374.7" y="110" width="52.6" height="110" rx="3" fill="#4A90D9" opacity="0.88"/>
<text x="401.0" y="128.0" text-anchor="middle" font-size="10" font-weight="bold" fill="white" font-family="monospace">#2</text>
<text x="401.0" y="144.0" text-anchor="middle" font-size="9" fill="white" font-family="monospace" clip-path="url(#cliptop1)">Air 11" (7.02"P)</text>
<text x="386.0" y="233.0" text-anchor="middle" font-size="9" fill="#333" font-family="monospace">11.02"</text>
<rect x="561.1" y="110" width="22.5" height="110" rx="2" fill="#5CB85C" opacity="0.85"/>
<text x="572.4" y="168.0" text-anchor="middle" font-size="8" fill="white" font-family="monospace">S</text>
<rect x="591.1" y="110" width="63.5" height="110" rx="3" fill="#4A90D9" opacity="0.88"/>
<text x="622.8" y="128.0" text-anchor="middle" font-size="10" font-weight="bold" fill="white" font-family="monospace">#3</text>
<text x="622.8" y="144.0" text-anchor="middle" font-size="9" fill="white" font-family="monospace" clip-path="url(#cliptop2)">Air 13" (8.46"P)</text>
<text x="607.8" y="233.0" text-anchor="middle" font-size="9" fill="#333" font-family="monospace">12.46"</text>
<rect x="788.3" y="110" width="22.5" height="110" rx="2" fill="#5CB85C" opacity="0.85"/>
<text x="799.6" y="168.0" text-anchor="middle" font-size="8" fill="white" font-family="monospace">S</text>
<rect x="818.3" y="110" width="53.0" height="110" rx="3" fill="#4A90D9" opacity="0.88"/>
<text x="844.8" y="128.0" text-anchor="middle" font-size="10" font-weight="bold" fill="white" font-family="monospace">#4</text>
<text x="844.8" y="144.0" text-anchor="middle" font-size="9" fill="white" font-family="monospace" clip-path="url(#cliptop3)">(A16) (7.07"P)</text>
<text x="829.8" y="233.0" text-anchor="middle" font-size="9" fill="#333" font-family="monospace">11.07"</text>
<rect x="1004.4" y="110" width="22.5" height="110" rx="2" fill="#5CB85C" opacity="0.85"/>
<text x="1015.6" y="168.0" text-anchor="middle" font-size="8" fill="white" font-family="monospace">S</text>
<rect x="1034.4" y="110" width="39.8" height="110" rx="3" fill="#4A90D9" opacity="0.88"/>
<text x="1054.2" y="128.0" text-anchor="middle" font-size="10" font-weight="bold" fill="white" font-family="monospace">#5</text>
<text x="1054.2" y="144.0" text-anchor="middle" font-size="9" fill="white" font-family="monospace" clip-path="url(#cliptop4)">mini (5.30"P)</text>
<text x="1039.2" y="233.0" text-anchor="middle" font-size="9" fill="#333" font-family="monospace">9.30"</text>

  <!-- Top gap annotations -->
  <line x1="210.0" y1="70" x2="344.7" y2="70" stroke="#888" stroke-width="1" stroke-dasharray="3,2"/>
<text x="277.4" y="68.0" text-anchor="middle" font-size="9" fill="#666" font-family="monospace">17.96"</text>
<line x1="427.4" y1="70" x2="561.1" y2="70" stroke="#888" stroke-width="1" stroke-dasharray="3,2"/>
<text x="494.2" y="68.0" text-anchor="middle" font-size="9" fill="#666" font-family="monospace">17.83"</text>
<line x1="654.6" y1="70" x2="788.3" y2="70" stroke="#888" stroke-width="1" stroke-dasharray="3,2"/>
<text x="721.4" y="68.0" text-anchor="middle" font-size="9" fill="#666" font-family="monospace">17.83"</text>
<line x1="871.3" y1="70" x2="1004.4" y2="70" stroke="#888" stroke-width="1" stroke-dasharray="3,2"/>
<text x="937.8" y="68.0" text-anchor="middle" font-size="9" fill="#666" font-family="monospace">17.74"</text>
<text x="93.8" y="68.0" text-anchor="middle" font-size="9" fill="#999" font-family="monospace">9.01"</text>
<text x="1107.1" y="68.0" text-anchor="middle" font-size="9" fill="#999" font-family="monospace">8.79"</text>


  <!-- Bottom rail (Landscape) -->
  <text x="60" y="258" font-size="11" fill="#555" font-family="monospace">竖放 (Portrait)</text>
<rect x="116.9" y="264" width="22.5" height="110" rx="2" fill="#5CB85C" opacity="0.85"/>
<text x="128.2" y="322.0" text-anchor="middle" font-size="8" fill="white" font-family="monospace">S</text>
<rect x="146.9" y="264" width="73.7" height="110" rx="3" fill="#4A90D9" opacity="0.88"/>
<text x="183.8" y="282.0" text-anchor="middle" font-size="10" font-weight="bold" fill="white" font-family="monospace">#1</text>
<text x="183.8" y="298.0" text-anchor="middle" font-size="9" fill="white" font-family="monospace" clip-path="url(#clipbottom0)">Pro 11" (9.83"P)</text>
<text x="168.8" y="387.0" text-anchor="middle" font-size="9" fill="#333" font-family="monospace">13.83"</text>
<rect x="334.5" y="264" width="22.5" height="110" rx="2" fill="#5CB85C" opacity="0.85"/>
<text x="345.8" y="322.0" text-anchor="middle" font-size="8" fill="white" font-family="monospace">S</text>
<rect x="364.5" y="264" width="73.0" height="110" rx="3" fill="#4A90D9" opacity="0.88"/>
<text x="401.0" y="282.0" text-anchor="middle" font-size="10" font-weight="bold" fill="white" font-family="monospace">#2</text>
<text x="401.0" y="298.0" text-anchor="middle" font-size="9" fill="white" font-family="monospace" clip-path="url(#clipbottom1)">Air 11" (9.74"P)</text>
<text x="386.0" y="387.0" text-anchor="middle" font-size="9" fill="#333" font-family="monospace">13.74"</text>
<rect x="551.4" y="264" width="22.5" height="110" rx="2" fill="#5CB85C" opacity="0.85"/>
<text x="562.7" y="322.0" text-anchor="middle" font-size="8" fill="white" font-family="monospace">S</text>
<rect x="581.4" y="264" width="82.8" height="110" rx="3" fill="#4A90D9" opacity="0.88"/>
<text x="622.8" y="282.0" text-anchor="middle" font-size="10" font-weight="bold" fill="white" font-family="monospace">#3</text>
<text x="622.8" y="298.0" text-anchor="middle" font-size="9" fill="white" font-family="monospace" clip-path="url(#clipbottom2)">Air 13" (11.04"P)</text>
<text x="607.8" y="387.0" text-anchor="middle" font-size="9" fill="#333" font-family="monospace">15.04"</text>
<rect x="778.1" y="264" width="22.5" height="110" rx="2" fill="#5CB85C" opacity="0.85"/>
<text x="789.4" y="322.0" text-anchor="middle" font-size="8" fill="white" font-family="monospace">S</text>
<rect x="808.1" y="264" width="73.4" height="110" rx="3" fill="#4A90D9" opacity="0.88"/>
<text x="844.8" y="282.0" text-anchor="middle" font-size="10" font-weight="bold" fill="white" font-family="monospace">#4</text>
<text x="844.8" y="298.0" text-anchor="middle" font-size="9" fill="white" font-family="monospace" clip-path="url(#clipbottom3)">(A16) (9.79"P)</text>
<text x="829.8" y="387.0" text-anchor="middle" font-size="9" fill="#333" font-family="monospace">13.79"</text>
<rect x="995.4" y="264" width="22.5" height="110" rx="2" fill="#5CB85C" opacity="0.85"/>
<text x="1006.6" y="322.0" text-anchor="middle" font-size="8" fill="white" font-family="monospace">S</text>
<rect x="1025.4" y="264" width="57.7" height="110" rx="3" fill="#4A90D9" opacity="0.88"/>
<text x="1054.2" y="282.0" text-anchor="middle" font-size="10" font-weight="bold" fill="white" font-family="monospace">#5</text>
<text x="1054.2" y="298.0" text-anchor="middle" font-size="9" fill="white" font-family="monospace" clip-path="url(#clipbottom4)">mini (7.69"P)</text>
<text x="1039.2" y="387.0" text-anchor="middle" font-size="9" fill="#333" font-family="monospace">11.69"</text>

  <!-- Bottom gap annotations -->
  <line x1="220.7" y1="402" x2="334.5" y2="402" stroke="#888" stroke-width="1" stroke-dasharray="3,2"/>
<text x="277.6" y="400.0" text-anchor="middle" font-size="9" fill="#666" font-family="monospace">15.18"</text>
<line x1="437.6" y1="402" x2="551.4" y2="402" stroke="#888" stroke-width="1" stroke-dasharray="3,2"/>
<text x="494.5" y="400.0" text-anchor="middle" font-size="9" fill="#666" font-family="monospace">15.18"</text>
<line x1="664.2" y1="402" x2="778.1" y2="402" stroke="#888" stroke-width="1" stroke-dasharray="3,2"/>
<text x="721.2" y="400.0" text-anchor="middle" font-size="9" fill="#666" font-family="monospace">15.18"</text>
<line x1="881.5" y1="402" x2="995.4" y2="402" stroke="#888" stroke-width="1" stroke-dasharray="3,2"/>
<text x="938.5" y="400.0" text-anchor="middle" font-size="9" fill="#666" font-family="monospace">15.18"</text>
<text x="88.5" y="400.0" text-anchor="middle" font-size="9" fill="#999" font-family="monospace">7.59"</text>
<text x="1111.5" y="400.0" text-anchor="middle" font-size="9" fill="#999" font-family="monospace">7.59"</text>


  <!-- Alignment lines (comparison only) -->
  <line x1="168.8" y1="220" x2="168.8" y2="264" stroke="#5CB85C" stroke-width="1.5" stroke-dasharray="4,3" opacity="0.7"/>
<line x1="386.0" y1="220" x2="386.0" y2="264" stroke="#5CB85C" stroke-width="1.5" stroke-dasharray="4,3" opacity="0.7"/>
<line x1="607.8" y1="220" x2="607.8" y2="264" stroke="#5CB85C" stroke-width="1.5" stroke-dasharray="4,3" opacity="0.7"/>
<line x1="829.8" y1="220" x2="829.8" y2="264" stroke="#5CB85C" stroke-width="1.5" stroke-dasharray="4,3" opacity="0.7"/>
<line x1="1039.2" y1="220" x2="1039.2" y2="264" stroke="#5CB85C" stroke-width="1.5" stroke-dasharray="4,3" opacity="0.7"/>


  <!-- Info panel -->
  <rect x="20" y="424" width="1160" height="68" rx="4"
        fill="white" stroke="#ddd" stroke-width="1"/>
  <text font-size="10" fill="#444" font-family="monospace">
    <tspan x="30" y="438">
      竖排(上)：5 台 [iPad Pro 11", iPad Air 11", iPad Air 13", iPad (A16), iPad mini]  |  (center-aligned)  |  边缘 9.011"  |  总宽 54.84"  ✓ fits
    </tspan>
    <tspan x="30" dy="14">
      横排(下)：5 台 [iPad Pro 11", iPad Air 11", iPad Air 13", iPad (A16), iPad mini]  |  X=15.182"  |  边缘 7.591"  |  总宽 68.09"  ✓ fits
    </tspan>
    <tspan x="30" dy="14">模式：center-aligned  |  类型：ipad-comparison  |  备注：五款对比，中心对齐</tspan>
  </text>

  <!-- Warnings / pass -->
  <text font-size="10" fill="#444" font-family="monospace">
    <tspan x="30" dy="13" fill="#5CB85C">✓ 无告警</tspan>
  </text>

  <!-- Legend -->
  <rect x="20" y="492" width="12" height="12" rx="2" fill="#4A90D9"/>
  <text x="36" y="502" font-size="10" fill="#555">竖放 (Portrait)</text>
  <rect x="140" y="492" width="12" height="12" rx="2" fill="#E8874A"/>
  <text x="156" y="502" font-size="10" fill="#555">横放 (Landscape)</text>
  <rect x="280" y="492" width="12" height="12" rx="2" fill="#5CB85C"/>
  <text x="296" y="502" font-size="10" fill="#555">2×3 Product Sign (3"+1" gap)</text>
  <text x="1180" y="502" text-anchor="end" font-size="9" fill="#bbb">
    Generated: 2026-03-07
  </text>
</svg>