<?xml version="1.0" encoding="UTF-8"?>
<svg xmlns="http://www.w3.org/2000/svg" width="1200" height="514" viewBox="0 0 1200 514">
  <style>
    text { font-family: 'PingFang SC', 'Microsoft YaHei', Arial, sans-serif; }
  </style>

  <!-- Background -->
  <rect width="1200" height="514" fill="#f7f8fa"/>

  <!-- Title bar -->
  <rect x="0" y="0" width="1200" height="50" rx="0" fill="#1d1d1f"/>
  <text x="20" y="20" font-size="13" fill="white" font-weight="bold">TC16 — 144" 对比 – 竖 × 3 vs 横 × 3</text>
  <text x="20" y="38" font-size="11" fill="#aaa">144" (12-ft) 展示桌 · 对比展示桌 · 所有设备含 2×3 产品标牌 · 查表 Y=5" / Z=6" (@144"key)</text>
  <!-- Status badge -->
  <rect x="1120" y="8" width="60" height="26" rx="5" fill="#2a9d2a"/>
  <text x="1150" y="26" text-anchor="middle" font-size="14" font-weight="bold" fill="white">PASS</text>

  <!-- Table surface -->
  <rect x="60" y="90" width="1080" height="304" rx="4"
        fill="white" stroke="#ccc" stroke-width="1.5"/>

  <!-- Rail backgrounds -->
  <rect x="60" y="110" width="1080" height="110" rx="2" fill="#e8f0fb" opacity="0.5"/>
  <rect x="60" y="264" width="1080" height="110" rx="2" fill="#fdebd8" opacity="0.5"/>

  <!-- Centre divider label -->
  <line x1="60" y1="242" x2="1140" y2="242"
        stroke="#ddd" stroke-width="1" stroke-dasharray="6,4"/>
  <text x="600" y="246" text-anchor="middle" font-size="9" fill="#bbb">
    ← 展台中心分隔线 →</text>

  <!-- Table edge rulers -->
  <line x1="60" y1="80" x2="1140" y2="80" stroke="#aaa" stroke-width="1"/>
  <line x1="60" y1="75" x2="60" y2="85" stroke="#aaa" stroke-width="1"/>
  <line x1="1140" y1="75" x2="1140" y2="85" stroke="#aaa" stroke-width="1"/>
  <text x="600" y="96" text-anchor="middle" font-size="11" fill="#555">144"</text>

  <!-- Top rail (Portrait) -->
  <text x="60" y="104" font-size="11" fill="#555" font-family="monospace">竖放 (Portrait)</text>
<rect x="194.9" y="110" width="22.5" height="110" rx="2" fill="#5CB85C" opacity="0.85"/>
<text x="206.1" y="168.0" text-anchor="middle" font-size="8" fill="white" font-family="monospace">S</text>
<rect x="224.9" y="110" width="63.6" height="110" rx="3" fill="#4A90D9" opacity="0.88"/>
<text x="256.7" y="128.0" text-anchor="middle" font-size="10" font-weight="bold" fill="white" font-family="monospace">#1</text>
<text x="256.7" y="144.0" text-anchor="middle" font-size="9" fill="white" font-family="monospace" clip-path="url(#cliptop0)">Pro 13" (8.48"P)</text>
<text x="241.7" y="233.0" text-anchor="middle" font-size="9" fill="#333" font-family="monospace">12.48"</text>
<rect x="558.1" y="110" width="22.5" height="110" rx="2" fill="#5CB85C" opacity="0.85"/>
<text x="569.4" y="168.0" text-anchor="middle" font-size="8" fill="white" font-family="monospace">S</text>
<rect x="588.1" y="110" width="63.5" height="110" rx="3" fill="#4A90D9" opacity="0.88"/>
<text x="619.9" y="128.0" text-anchor="middle" font-size="10" font-weight="bold" fill="white" font-family="monospace">#2</text>
<text x="619.9" y="144.0" text-anchor="middle" font-size="9" fill="white" font-family="monospace" clip-path="url(#cliptop1)">Air 13" (8.46"P)</text>
<text x="604.9" y="233.0" text-anchor="middle" font-size="9" fill="#333" font-family="monospace">12.46"</text>
<rect x="921.7" y="110" width="22.5" height="110" rx="2" fill="#5CB85C" opacity="0.85"/>
<text x="932.9" y="168.0" text-anchor="middle" font-size="8" fill="white" font-family="monospace">S</text>
<rect x="951.7" y="110" width="53.0" height="110" rx="3" fill="#4A90D9" opacity="0.88"/>
<text x="978.2" y="128.0" text-anchor="middle" font-size="10" font-weight="bold" fill="white" font-family="monospace">#3</text>
<text x="978.2" y="144.0" text-anchor="middle" font-size="9" fill="white" font-family="monospace" clip-path="url(#cliptop2)">(A16) (7.07"P)</text>
<text x="963.2" y="233.0" text-anchor="middle" font-size="9" fill="#333" font-family="monospace">11.07"</text>

  <!-- Top gap annotations -->
  <line x1="288.5" y1="70" x2="558.1" y2="70" stroke="#888" stroke-width="1" stroke-dasharray="3,2"/>
<text x="423.3" y="68.0" text-anchor="middle" font-size="9" fill="#666" font-family="monospace">35.95"</text>
<line x1="651.6" y1="70" x2="921.7" y2="70" stroke="#888" stroke-width="1" stroke-dasharray="3,2"/>
<text x="786.6" y="68.0" text-anchor="middle" font-size="9" fill="#666" font-family="monospace">36.01"</text>
<text x="127.4" y="68.0" text-anchor="middle" font-size="9" fill="#999" font-family="monospace">17.98"</text>
<text x="1072.3" y="68.0" text-anchor="middle" font-size="9" fill="#999" font-family="monospace">18.04"</text>


  <!-- Bottom rail (Landscape) -->
  <text x="60" y="258" font-size="11" fill="#555" font-family="monospace">竖放 (Portrait)</text>
<rect x="185.1" y="264" width="22.5" height="110" rx="2" fill="#5CB85C" opacity="0.85"/>
<text x="196.3" y="322.0" text-anchor="middle" font-size="8" fill="white" font-family="monospace">S</text>
<rect x="215.1" y="264" width="83.2" height="110" rx="3" fill="#4A90D9" opacity="0.88"/>
<text x="256.7" y="282.0" text-anchor="middle" font-size="10" font-weight="bold" fill="white" font-family="monospace">#1</text>
<text x="256.7" y="298.0" text-anchor="middle" font-size="9" fill="white" font-family="monospace" clip-path="url(#clipbottom0)">Pro 13" (11.09"P)</text>
<text x="241.7" y="387.0" text-anchor="middle" font-size="9" fill="#333" font-family="monospace">15.09"</text>
<rect x="548.5" y="264" width="22.5" height="110" rx="2" fill="#5CB85C" opacity="0.85"/>
<text x="559.7" y="322.0" text-anchor="middle" font-size="8" fill="white" font-family="monospace">S</text>
<rect x="578.5" y="264" width="82.8" height="110" rx="3" fill="#4A90D9" opacity="0.88"/>
<text x="619.9" y="282.0" text-anchor="middle" font-size="10" font-weight="bold" fill="white" font-family="monospace">#2</text>
<text x="619.9" y="298.0" text-anchor="middle" font-size="9" fill="white" font-family="monospace" clip-path="url(#clipbottom1)">Air 13" (11.04"P)</text>
<text x="604.9" y="387.0" text-anchor="middle" font-size="9" fill="#333" font-family="monospace">15.04"</text>
<rect x="911.5" y="264" width="22.5" height="110" rx="2" fill="#5CB85C" opacity="0.85"/>
<text x="922.7" y="322.0" text-anchor="middle" font-size="8" fill="white" font-family="monospace">S</text>
<rect x="941.5" y="264" width="73.4" height="110" rx="3" fill="#4A90D9" opacity="0.88"/>
<text x="978.2" y="282.0" text-anchor="middle" font-size="10" font-weight="bold" fill="white" font-family="monospace">#3</text>
<text x="978.2" y="298.0" text-anchor="middle" font-size="9" fill="white" font-family="monospace" clip-path="url(#clipbottom2)">(A16) (9.79"P)</text>
<text x="963.2" y="387.0" text-anchor="middle" font-size="9" fill="#333" font-family="monospace">13.79"</text>

  <!-- Bottom gap annotations -->
  <line x1="298.3" y1="402" x2="548.5" y2="402" stroke="#888" stroke-width="1" stroke-dasharray="3,2"/>
<text x="423.4" y="400.0" text-anchor="middle" font-size="9" fill="#666" font-family="monospace">33.36"</text>
<line x1="661.3" y1="402" x2="911.5" y2="402" stroke="#888" stroke-width="1" stroke-dasharray="3,2"/>
<text x="786.4" y="400.0" text-anchor="middle" font-size="9" fill="#666" font-family="monospace">33.36"</text>
<text x="122.5" y="400.0" text-anchor="middle" font-size="9" fill="#999" font-family="monospace">16.68"</text>
<text x="1077.4" y="400.0" text-anchor="middle" font-size="9" fill="#999" font-family="monospace">16.68"</text>


  <!-- Alignment lines (comparison only) -->
  <line x1="241.7" y1="220" x2="241.7" y2="264" stroke="#5CB85C" stroke-width="1.5" stroke-dasharray="4,3" opacity="0.7"/>
<line x1="604.9" y1="220" x2="604.9" y2="264" stroke="#5CB85C" stroke-width="1.5" stroke-dasharray="4,3" opacity="0.7"/>
<line x1="963.2" y1="220" x2="963.2" y2="264" stroke="#5CB85C" stroke-width="1.5" stroke-dasharray="4,3" opacity="0.7"/>


  <!-- Info panel -->
  <rect x="20" y="424" width="1160" height="68" rx="4"
        fill="white" stroke="#ddd" stroke-width="1"/>
  <text font-size="10" fill="#444" font-family="monospace">
    <tspan x="30" y="438">
      竖排(上)：3 台 [iPad Pro 13", iPad Air 13", iPad (A16)]  |  (center-aligned)  |  边缘 17.985"  |  总宽 36.01"  ✓ fits
    </tspan>
    <tspan x="30" dy="14">
      横排(下)：3 台 [iPad Pro 13", iPad Air 13", iPad (A16)]  |  X=33.360"  |  边缘 16.680"  |  总宽 43.92"  ✓ fits
    </tspan>
    <tspan x="30" dy="14">模式：center-aligned  |  类型：ipad-comparison  |  备注：三款大屏对比，中心对齐</tspan>
  </text>

  <!-- Warnings / pass -->
  <text font-size="10" fill="#444" font-family="monospace">
    <tspan x="30" dy="13" fill="#5CB85C">✓ 无告警</tspan>
  </text>

  <!-- Legend -->
  <rect x="20" y="492" width="12" height="12" rx="2" fill="#4A90D9"/>
  <text x="36" y="502" font-size="10" fill="#555">竖放 (Portrait)</text>
  <rect x="140" y="492" width="12" height="12" rx="2" fill="#E8874A"/>
  <text x="156" y="502" font-size="10" fill="#555">横放 (Landscape)</text>
  <rect x="280" y="492" width="12" height="12" rx="2" fill="#5CB85C"/>
  <text x="296" y="502" font-size="10" fill="#555">2×3 Product Sign (3"+1" gap)</text>
  <text x="1180" y="502" text-anchor="end" font-size="9" fill="#bbb">
    Generated: 2026-03-07
  </text>
</svg>