<?xml version="1.0" encoding="UTF-8"?>
<svg xmlns="http://www.w3.org/2000/svg" width="1200" height="514" viewBox="0 0 1200 514">
  <style>
    text { font-family: 'PingFang SC', 'Microsoft YaHei', Arial, sans-serif; }
  </style>

  <!-- Background -->
  <rect width="1200" height="514" fill="#f7f8fa"/>

  <!-- Title bar -->
  <rect x="0" y="0" width="1200" height="50" rx="0" fill="#1d1d1f"/>
  <text x="20" y="20" font-size="13" fill="white" font-weight="bold">TC17 — 180" 系列 – 竖 × 5 vs 横 × 3</text>
  <text x="20" y="38" font-size="11" fill="#aaa">180" (15-ft) 展示桌 · 系列展示桌 · 所有设备含 2×3 产品标牌 · 查表 Y=5" / Z=6" (@180"key)</text>
  <!-- Status badge -->
  <rect x="1120" y="8" width="60" height="26" rx="5" fill="#2a9d2a"/>
  <text x="1150" y="26" text-anchor="middle" font-size="14" font-weight="bold" fill="white">PASS</text>

  <!-- Table surface -->
  <rect x="60" y="90" width="1080" height="304" rx="4"
        fill="white" stroke="#ccc" stroke-width="1.5"/>

  <!-- Rail backgrounds -->
  <rect x="60" y="110" width="1080" height="110" rx="2" fill="#e8f0fb" opacity="0.5"/>
  <rect x="60" y="264" width="1080" height="110" rx="2" fill="#fdebd8" opacity="0.5"/>

  <!-- Centre divider label -->
  <line x1="60" y1="242" x2="1140" y2="242"
        stroke="#ddd" stroke-width="1" stroke-dasharray="6,4"/>
  <text x="600" y="246" text-anchor="middle" font-size="9" fill="#bbb">
    ← 展台中心分隔线 →</text>

  <!-- Table edge rulers -->
  <line x1="60" y1="80" x2="1140" y2="80" stroke="#aaa" stroke-width="1"/>
  <line x1="60" y1="75" x2="60" y2="85" stroke="#aaa" stroke-width="1"/>
  <line x1="1140" y1="75" x2="1140" y2="85" stroke="#aaa" stroke-width="1"/>
  <text x="600" y="96" text-anchor="middle" font-size="11" fill="#555">180"</text>

  <!-- Top rail (Portrait) -->
  <text x="60" y="104" font-size="11" fill="#555" font-family="monospace">竖放 (Portrait)</text>
<rect x="134.2" y="110" width="18.0" height="110" rx="2" fill="#5CB85C" opacity="0.85"/>
<text x="143.2" y="168.0" text-anchor="middle" font-size="8" fill="white" font-family="monospace">S</text>
<rect x="158.2" y="110" width="50.9" height="110" rx="3" fill="#4A90D9" opacity="0.88"/>
<text x="183.7" y="128.0" text-anchor="middle" font-size="10" font-weight="bold" fill="white" font-family="monospace">#1</text>
<text x="183.7" y="144.0" text-anchor="middle" font-size="9" fill="white" font-family="monospace" clip-path="url(#cliptop0)">Pro 13" (8.48"P)</text>
<text x="171.7" y="233.0" text-anchor="middle" font-size="9" fill="#333" font-family="monospace">12.48"</text>
<rect x="357.5" y="110" width="18.0" height="110" rx="2" fill="#5CB85C" opacity="0.85"/>
<text x="366.5" y="168.0" text-anchor="middle" font-size="8" fill="white" font-family="monospace">S</text>
<rect x="381.5" y="110" width="50.8" height="110" rx="3" fill="#4A90D9" opacity="0.88"/>
<text x="406.9" y="128.0" text-anchor="middle" font-size="10" font-weight="bold" fill="white" font-family="monospace">#2</text>
<text x="406.9" y="144.0" text-anchor="middle" font-size="9" fill="white" font-family="monospace" clip-path="url(#cliptop1)">Air 13" (8.46"P)</text>
<text x="394.9" y="233.0" text-anchor="middle" font-size="9" fill="#333" font-family="monospace">12.46"</text>
<rect x="580.7" y="110" width="18.0" height="110" rx="2" fill="#5CB85C" opacity="0.85"/>
<text x="589.7" y="168.0" text-anchor="middle" font-size="8" fill="white" font-family="monospace">S</text>
<rect x="604.7" y="110" width="42.4" height="110" rx="3" fill="#4A90D9" opacity="0.88"/>
<text x="626.0" y="128.0" text-anchor="middle" font-size="10" font-weight="bold" fill="white" font-family="monospace">#3</text>
<text x="626.0" y="144.0" text-anchor="middle" font-size="9" fill="white" font-family="monospace" clip-path="url(#cliptop2)">(A16) (7.07"P)</text>
<text x="614.0" y="233.0" text-anchor="middle" font-size="9" fill="#333" font-family="monospace">11.07"</text>
<rect x="795.6" y="110" width="18.0" height="110" rx="2" fill="#5CB85C" opacity="0.85"/>
<text x="804.6" y="168.0" text-anchor="middle" font-size="8" fill="white" font-family="monospace">S</text>
<rect x="819.6" y="110" width="31.8" height="110" rx="3" fill="#4A90D9" opacity="0.88"/>
<text x="835.5" y="128.0" text-anchor="middle" font-size="10" font-weight="bold" fill="white" font-family="monospace">#4</text>
<text x="823.5" y="233.0" text-anchor="middle" font-size="9" fill="#333" font-family="monospace">9.30"</text>
<rect x="999.8" y="110" width="18.0" height="110" rx="2" fill="#5CB85C" opacity="0.85"/>
<text x="1008.8" y="168.0" text-anchor="middle" font-size="8" fill="white" font-family="monospace">S</text>
<rect x="1023.8" y="110" width="41.9" height="110" rx="3" fill="#4A90D9" opacity="0.88"/>
<text x="1044.8" y="128.0" text-anchor="middle" font-size="10" font-weight="bold" fill="white" font-family="monospace">#5</text>
<text x="1044.8" y="144.0" text-anchor="middle" font-size="9" fill="white" font-family="monospace" clip-path="url(#cliptop4)">Pro 11" (6.99"P)</text>
<text x="1032.8" y="233.0" text-anchor="middle" font-size="9" fill="#333" font-family="monospace">10.99"</text>

  <!-- Top gap annotations -->
  <line x1="209.1" y1="70" x2="357.5" y2="70" stroke="#888" stroke-width="1" stroke-dasharray="3,2"/>
<text x="283.3" y="68.0" text-anchor="middle" font-size="9" fill="#666" font-family="monospace">24.74"</text>
<line x1="432.3" y1="70" x2="580.7" y2="70" stroke="#888" stroke-width="1" stroke-dasharray="3,2"/>
<text x="506.5" y="68.0" text-anchor="middle" font-size="9" fill="#666" font-family="monospace">24.74"</text>
<line x1="647.2" y1="70" x2="795.6" y2="70" stroke="#888" stroke-width="1" stroke-dasharray="3,2"/>
<text x="721.4" y="68.0" text-anchor="middle" font-size="9" fill="#666" font-family="monospace">24.74"</text>
<line x1="851.4" y1="70" x2="999.8" y2="70" stroke="#888" stroke-width="1" stroke-dasharray="3,2"/>
<text x="925.6" y="68.0" text-anchor="middle" font-size="9" fill="#666" font-family="monospace">24.74"</text>
<text x="97.1" y="68.0" text-anchor="middle" font-size="9" fill="#999" font-family="monospace">12.37"</text>
<text x="1102.9" y="68.0" text-anchor="middle" font-size="9" fill="#999" font-family="monospace">12.37"</text>


  <!-- Bottom rail (Landscape) -->
  <text x="60" y="258" font-size="11" fill="#555" font-family="monospace">竖放 (Portrait)</text>
<rect x="197.4" y="264" width="18.0" height="110" rx="2" fill="#5CB85C" opacity="0.85"/>
<text x="206.4" y="322.0" text-anchor="middle" font-size="8" fill="white" font-family="monospace">S</text>
<rect x="221.4" y="264" width="58.4" height="110" rx="3" fill="#4A90D9" opacity="0.88"/>
<text x="250.6" y="282.0" text-anchor="middle" font-size="10" font-weight="bold" fill="white" font-family="monospace">#1</text>
<text x="250.6" y="298.0" text-anchor="middle" font-size="9" fill="white" font-family="monospace" clip-path="url(#clipbottom0)">Air 11" (9.74"P)</text>
<text x="238.6" y="387.0" text-anchor="middle" font-size="9" fill="#333" font-family="monospace">13.74"</text>
<rect x="554.6" y="264" width="18.0" height="110" rx="2" fill="#5CB85C" opacity="0.85"/>
<text x="563.6" y="322.0" text-anchor="middle" font-size="8" fill="white" font-family="monospace">S</text>
<rect x="578.6" y="264" width="66.2" height="110" rx="3" fill="#4A90D9" opacity="0.88"/>
<text x="611.7" y="282.0" text-anchor="middle" font-size="10" font-weight="bold" fill="white" font-family="monospace">#2</text>
<text x="611.7" y="298.0" text-anchor="middle" font-size="9" fill="white" font-family="monospace" clip-path="url(#clipbottom1)">Air 13" (11.04"P)</text>
<text x="599.7" y="387.0" text-anchor="middle" font-size="9" fill="#333" font-family="monospace">15.04"</text>
<rect x="919.6" y="264" width="18.0" height="110" rx="2" fill="#5CB85C" opacity="0.85"/>
<text x="928.6" y="322.0" text-anchor="middle" font-size="8" fill="white" font-family="monospace">S</text>
<rect x="943.6" y="264" width="59.0" height="110" rx="3" fill="#4A90D9" opacity="0.88"/>
<text x="973.1" y="282.0" text-anchor="middle" font-size="10" font-weight="bold" fill="white" font-family="monospace">#3</text>
<text x="973.1" y="298.0" text-anchor="middle" font-size="9" fill="white" font-family="monospace" clip-path="url(#clipbottom2)">Pro 11" (9.83"P)</text>
<text x="961.1" y="387.0" text-anchor="middle" font-size="9" fill="#333" font-family="monospace">13.83"</text>

  <!-- Bottom gap annotations -->
  <line x1="279.8" y1="402" x2="554.6" y2="402" stroke="#888" stroke-width="1" stroke-dasharray="3,2"/>
<text x="417.2" y="400.0" text-anchor="middle" font-size="9" fill="#666" font-family="monospace">45.80"</text>
<line x1="644.8" y1="402" x2="919.6" y2="402" stroke="#888" stroke-width="1" stroke-dasharray="3,2"/>
<text x="782.2" y="400.0" text-anchor="middle" font-size="9" fill="#666" font-family="monospace">45.80"</text>
<text x="128.7" y="400.0" text-anchor="middle" font-size="9" fill="#999" font-family="monospace">22.90"</text>
<text x="1071.3" y="400.0" text-anchor="middle" font-size="9" fill="#999" font-family="monospace">22.90"</text>


  <!-- Alignment lines (comparison only) -->
  <line x1="171.7" y1="220" x2="238.6" y2="264" stroke="#ccc" stroke-width="1.5" stroke-dasharray="2,4" opacity="0.7"/>
<line x1="394.9" y1="220" x2="599.7" y2="264" stroke="#ccc" stroke-width="1.5" stroke-dasharray="2,4" opacity="0.7"/>
<line x1="613.9" y1="220" x2="961.1" y2="264" stroke="#ccc" stroke-width="1.5" stroke-dasharray="2,4" opacity="0.7"/>


  <!-- Info panel -->
  <rect x="20" y="424" width="1160" height="68" rx="4"
        fill="white" stroke="#ddd" stroke-width="1"/>
  <text font-size="10" fill="#444" font-family="monospace">
    <tspan x="30" y="438">
      竖排(上)：5 台 [iPad Pro 13", iPad Air 13", iPad (A16), iPad mini, iPad Pro 11"]  |  X=24.740"  |  边缘 12.370"  |  总宽 56.30"  ✓ fits
    </tspan>
    <tspan x="30" dy="14">
      横排(下)：3 台 [iPad Air 11", iPad Air 13", iPad Pro 11"]  |  X=45.797"  |  边缘 22.898"  |  总宽 42.61"  ✓ fits
    </tspan>
    <tspan x="30" dy="14">模式：independent  |  类型：ipad-assortment  |  备注：两侧独立间距</tspan>
  </text>

  <!-- Warnings / pass -->
  <text font-size="10" fill="#444" font-family="monospace">
    <tspan x="30" dy="13" fill="#5CB85C">✓ 无告警</tspan>
  </text>

  <!-- Legend -->
  <rect x="20" y="492" width="12" height="12" rx="2" fill="#4A90D9"/>
  <text x="36" y="502" font-size="10" fill="#555">竖放 (Portrait)</text>
  <rect x="140" y="492" width="12" height="12" rx="2" fill="#E8874A"/>
  <text x="156" y="502" font-size="10" fill="#555">横放 (Landscape)</text>
  <rect x="280" y="492" width="12" height="12" rx="2" fill="#5CB85C"/>
  <text x="296" y="502" font-size="10" fill="#555">2×3 Product Sign (3"+1" gap)</text>
  <text x="1180" y="502" text-anchor="end" font-size="9" fill="#bbb">
    Generated: 2026-03-07
  </text>
</svg>