<?xml version="1.0" encoding="UTF-8"?>
<svg xmlns="http://www.w3.org/2000/svg" width="1200" height="514" viewBox="0 0 1200 514">
  <style>
    text { font-family: 'PingFang SC', 'Microsoft YaHei', Arial, sans-serif; }
  </style>

  <!-- Background -->
  <rect width="1200" height="514" fill="#f7f8fa"/>

  <!-- Title bar -->
  <rect x="0" y="0" width="1200" height="50" rx="0" fill="#1d1d1f"/>
  <text x="20" y="20" font-size="13" fill="white" font-weight="bold">TC18 — 180" 系列 – 竖 × 3 vs 横 × 5</text>
  <text x="20" y="38" font-size="11" fill="#aaa">180" (15-ft) 展示桌 · 系列展示桌 · 所有设备含 2×3 产品标牌 · 查表 Y=5" / Z=6" (@180"key)</text>
  <!-- Status badge -->
  <rect x="1120" y="8" width="60" height="26" rx="5" fill="#2a9d2a"/>
  <text x="1150" y="26" text-anchor="middle" font-size="14" font-weight="bold" fill="white">PASS</text>

  <!-- Table surface -->
  <rect x="60" y="90" width="1080" height="304" rx="4"
        fill="white" stroke="#ccc" stroke-width="1.5"/>

  <!-- Rail backgrounds -->
  <rect x="60" y="110" width="1080" height="110" rx="2" fill="#e8f0fb" opacity="0.5"/>
  <rect x="60" y="264" width="1080" height="110" rx="2" fill="#fdebd8" opacity="0.5"/>

  <!-- Centre divider label -->
  <line x1="60" y1="242" x2="1140" y2="242"
        stroke="#ddd" stroke-width="1" stroke-dasharray="6,4"/>
  <text x="600" y="246" text-anchor="middle" font-size="9" fill="#bbb">
    ← 展台中心分隔线 →</text>

  <!-- Table edge rulers -->
  <line x1="60" y1="80" x2="1140" y2="80" stroke="#aaa" stroke-width="1"/>
  <line x1="60" y1="75" x2="60" y2="85" stroke="#aaa" stroke-width="1"/>
  <line x1="1140" y1="75" x2="1140" y2="85" stroke="#aaa" stroke-width="1"/>
  <text x="600" y="96" text-anchor="middle" font-size="11" fill="#555">180"</text>

  <!-- Top rail (Portrait) -->
  <text x="60" y="104" font-size="11" fill="#555" font-family="monospace">竖放 (Portrait)</text>
<rect x="208.7" y="110" width="18.0" height="110" rx="2" fill="#5CB85C" opacity="0.85"/>
<text x="217.7" y="168.0" text-anchor="middle" font-size="8" fill="white" font-family="monospace">S</text>
<rect x="232.7" y="110" width="42.1" height="110" rx="3" fill="#4A90D9" opacity="0.88"/>
<text x="253.8" y="128.0" text-anchor="middle" font-size="10" font-weight="bold" fill="white" font-family="monospace">#1</text>
<text x="253.8" y="144.0" text-anchor="middle" font-size="9" fill="white" font-family="monospace" clip-path="url(#cliptop0)">Air 11" (7.02"P)</text>
<text x="241.8" y="233.0" text-anchor="middle" font-size="9" fill="#333" font-family="monospace">11.02"</text>
<rect x="572.2" y="110" width="18.0" height="110" rx="2" fill="#5CB85C" opacity="0.85"/>
<text x="581.2" y="168.0" text-anchor="middle" font-size="8" fill="white" font-family="monospace">S</text>
<rect x="596.2" y="110" width="41.9" height="110" rx="3" fill="#4A90D9" opacity="0.88"/>
<text x="617.2" y="128.0" text-anchor="middle" font-size="10" font-weight="bold" fill="white" font-family="monospace">#2</text>
<text x="617.2" y="144.0" text-anchor="middle" font-size="9" fill="white" font-family="monospace" clip-path="url(#cliptop1)">Pro 11" (6.99"P)</text>
<text x="605.2" y="233.0" text-anchor="middle" font-size="9" fill="#333" font-family="monospace">10.99"</text>
<rect x="935.5" y="110" width="18.0" height="110" rx="2" fill="#5CB85C" opacity="0.85"/>
<text x="944.5" y="168.0" text-anchor="middle" font-size="8" fill="white" font-family="monospace">S</text>
<rect x="959.5" y="110" width="31.8" height="110" rx="3" fill="#4A90D9" opacity="0.88"/>
<text x="975.4" y="128.0" text-anchor="middle" font-size="10" font-weight="bold" fill="white" font-family="monospace">#3</text>
<text x="963.4" y="233.0" text-anchor="middle" font-size="9" fill="#333" font-family="monospace">9.30"</text>

  <!-- Top gap annotations -->
  <line x1="274.8" y1="70" x2="572.2" y2="70" stroke="#888" stroke-width="1" stroke-dasharray="3,2"/>
<text x="423.5" y="68.0" text-anchor="middle" font-size="9" fill="#666" font-family="monospace">49.56"</text>
<line x1="638.1" y1="70" x2="935.5" y2="70" stroke="#888" stroke-width="1" stroke-dasharray="3,2"/>
<text x="786.8" y="68.0" text-anchor="middle" font-size="9" fill="#666" font-family="monospace">49.56"</text>
<text x="134.3" y="68.0" text-anchor="middle" font-size="9" fill="#999" font-family="monospace">24.78"</text>
<text x="1065.7" y="68.0" text-anchor="middle" font-size="9" fill="#999" font-family="monospace">24.78"</text>


  <!-- Bottom rail (Landscape) -->
  <text x="60" y="258" font-size="11" fill="#555" font-family="monospace">竖放 (Portrait)</text>
<rect x="126.4" y="264" width="18.0" height="110" rx="2" fill="#5CB85C" opacity="0.85"/>
<text x="135.4" y="322.0" text-anchor="middle" font-size="8" fill="white" font-family="monospace">S</text>
<rect x="150.4" y="264" width="66.5" height="110" rx="3" fill="#4A90D9" opacity="0.88"/>
<text x="183.7" y="282.0" text-anchor="middle" font-size="10" font-weight="bold" fill="white" font-family="monospace">#1</text>
<text x="183.7" y="298.0" text-anchor="middle" font-size="9" fill="white" font-family="monospace" clip-path="url(#clipbottom0)">Pro 13" (11.09"P)</text>
<text x="171.7" y="387.0" text-anchor="middle" font-size="9" fill="#333" font-family="monospace">15.09"</text>
<rect x="349.7" y="264" width="18.0" height="110" rx="2" fill="#5CB85C" opacity="0.85"/>
<text x="358.7" y="322.0" text-anchor="middle" font-size="8" fill="white" font-family="monospace">S</text>
<rect x="373.7" y="264" width="66.2" height="110" rx="3" fill="#4A90D9" opacity="0.88"/>
<text x="406.8" y="282.0" text-anchor="middle" font-size="10" font-weight="bold" fill="white" font-family="monospace">#2</text>
<text x="406.8" y="298.0" text-anchor="middle" font-size="9" fill="white" font-family="monospace" clip-path="url(#clipbottom1)">Air 13" (11.04"P)</text>
<text x="394.8" y="387.0" text-anchor="middle" font-size="9" fill="#333" font-family="monospace">15.04"</text>
<rect x="572.7" y="264" width="18.0" height="110" rx="2" fill="#5CB85C" opacity="0.85"/>
<text x="581.7" y="322.0" text-anchor="middle" font-size="8" fill="white" font-family="monospace">S</text>
<rect x="596.7" y="264" width="58.7" height="110" rx="3" fill="#4A90D9" opacity="0.88"/>
<text x="626.1" y="282.0" text-anchor="middle" font-size="10" font-weight="bold" fill="white" font-family="monospace">#3</text>
<text x="626.1" y="298.0" text-anchor="middle" font-size="9" fill="white" font-family="monospace" clip-path="url(#clipbottom2)">(A16) (9.79"P)</text>
<text x="614.1" y="387.0" text-anchor="middle" font-size="9" fill="#333" font-family="monospace">13.79"</text>
<rect x="788.3" y="264" width="18.0" height="110" rx="2" fill="#5CB85C" opacity="0.85"/>
<text x="797.3" y="322.0" text-anchor="middle" font-size="8" fill="white" font-family="monospace">S</text>
<rect x="812.3" y="264" width="46.1" height="110" rx="3" fill="#4A90D9" opacity="0.88"/>
<text x="835.3" y="282.0" text-anchor="middle" font-size="10" font-weight="bold" fill="white" font-family="monospace">#4</text>
<text x="835.3" y="298.0" text-anchor="middle" font-size="9" fill="white" font-family="monospace" clip-path="url(#clipbottom3)">mini (7.69"P)</text>
<text x="823.3" y="387.0" text-anchor="middle" font-size="9" fill="#333" font-family="monospace">11.69"</text>
<rect x="991.2" y="264" width="18.0" height="110" rx="2" fill="#5CB85C" opacity="0.85"/>
<text x="1000.2" y="322.0" text-anchor="middle" font-size="8" fill="white" font-family="monospace">S</text>
<rect x="1015.2" y="264" width="58.4" height="110" rx="3" fill="#4A90D9" opacity="0.88"/>
<text x="1044.4" y="282.0" text-anchor="middle" font-size="10" font-weight="bold" fill="white" font-family="monospace">#5</text>
<text x="1044.4" y="298.0" text-anchor="middle" font-size="9" fill="white" font-family="monospace" clip-path="url(#clipbottom4)">Air 11" (9.74"P)</text>
<text x="1032.4" y="387.0" text-anchor="middle" font-size="9" fill="#333" font-family="monospace">13.74"</text>

  <!-- Bottom gap annotations -->
  <line x1="216.9" y1="402" x2="349.7" y2="402" stroke="#888" stroke-width="1" stroke-dasharray="3,2"/>
<text x="283.3" y="400.0" text-anchor="middle" font-size="9" fill="#666" font-family="monospace">22.13"</text>
<line x1="439.9" y1="402" x2="572.7" y2="402" stroke="#888" stroke-width="1" stroke-dasharray="3,2"/>
<text x="506.3" y="400.0" text-anchor="middle" font-size="9" fill="#666" font-family="monospace">22.13"</text>
<line x1="655.5" y1="402" x2="788.3" y2="402" stroke="#888" stroke-width="1" stroke-dasharray="3,2"/>
<text x="721.9" y="400.0" text-anchor="middle" font-size="9" fill="#666" font-family="monospace">22.13"</text>
<line x1="858.4" y1="402" x2="991.2" y2="402" stroke="#888" stroke-width="1" stroke-dasharray="3,2"/>
<text x="924.8" y="400.0" text-anchor="middle" font-size="9" fill="#666" font-family="monospace">22.13"</text>
<text x="93.2" y="400.0" text-anchor="middle" font-size="9" fill="#999" font-family="monospace">11.07"</text>
<text x="1106.8" y="400.0" text-anchor="middle" font-size="9" fill="#999" font-family="monospace">11.06"</text>


  <!-- Alignment lines (comparison only) -->
  <line x1="241.8" y1="220" x2="171.7" y2="264" stroke="#ccc" stroke-width="1.5" stroke-dasharray="2,4" opacity="0.7"/>
<line x1="605.2" y1="220" x2="394.8" y2="264" stroke="#ccc" stroke-width="1.5" stroke-dasharray="2,4" opacity="0.7"/>
<line x1="963.4" y1="220" x2="614.1" y2="264" stroke="#ccc" stroke-width="1.5" stroke-dasharray="2,4" opacity="0.7"/>


  <!-- Info panel -->
  <rect x="20" y="424" width="1160" height="68" rx="4"
        fill="white" stroke="#ddd" stroke-width="1"/>
  <text font-size="10" fill="#444" font-family="monospace">
    <tspan x="30" y="438">
      竖排(上)：3 台 [iPad Air 11", iPad Pro 11", iPad mini]  |  X=49.563"  |  边缘 24.782"  |  总宽 31.31"  ✓ fits
    </tspan>
    <tspan x="30" dy="14">
      横排(下)：5 台 [iPad Pro 13", iPad Air 13", iPad (A16), iPad mini, iPad Air 11"]  |  X=22.130"  |  边缘 11.065"  |  总宽 69.35"  ✓ fits
    </tspan>
    <tspan x="30" dy="14">模式：independent  |  类型：ipad-assortment  |  备注：两侧独立间距</tspan>
  </text>

  <!-- Warnings / pass -->
  <text font-size="10" fill="#444" font-family="monospace">
    <tspan x="30" dy="13" fill="#5CB85C">✓ 无告警</tspan>
  </text>

  <!-- Legend -->
  <rect x="20" y="492" width="12" height="12" rx="2" fill="#4A90D9"/>
  <text x="36" y="502" font-size="10" fill="#555">竖放 (Portrait)</text>
  <rect x="140" y="492" width="12" height="12" rx="2" fill="#E8874A"/>
  <text x="156" y="502" font-size="10" fill="#555">横放 (Landscape)</text>
  <rect x="280" y="492" width="12" height="12" rx="2" fill="#5CB85C"/>
  <text x="296" y="502" font-size="10" fill="#555">2×3 Product Sign (3"+1" gap)</text>
  <text x="1180" y="502" text-anchor="end" font-size="9" fill="#bbb">
    Generated: 2026-03-07
  </text>
</svg>