<?xml version="1.0" encoding="UTF-8"?>
<svg xmlns="http://www.w3.org/2000/svg" width="1200" height="514" viewBox="0 0 1200 514">
  <style>
    text { font-family: 'PingFang SC', 'Microsoft YaHei', Arial, sans-serif; }
  </style>

  <!-- Background -->
  <rect width="1200" height="514" fill="#f7f8fa"/>

  <!-- Title bar -->
  <rect x="0" y="0" width="1200" height="50" rx="0" fill="#1d1d1f"/>
  <text x="20" y="20" font-size="13" fill="white" font-weight="bold">TC19 — 180" 对比 – 竖 × 6 vs 横 × 6（全线产品）</text>
  <text x="20" y="38" font-size="11" fill="#aaa">180" (15-ft) 展示桌 · 对比展示桌 · 所有设备含 2×3 产品标牌 · 查表 Y=5" / Z=6" (@180"key)</text>
  <!-- Status badge -->
  <rect x="1120" y="8" width="60" height="26" rx="5" fill="#2a9d2a"/>
  <text x="1150" y="26" text-anchor="middle" font-size="14" font-weight="bold" fill="white">PASS</text>

  <!-- Table surface -->
  <rect x="60" y="90" width="1080" height="304" rx="4"
        fill="white" stroke="#ccc" stroke-width="1.5"/>

  <!-- Rail backgrounds -->
  <rect x="60" y="110" width="1080" height="110" rx="2" fill="#e8f0fb" opacity="0.5"/>
  <rect x="60" y="264" width="1080" height="110" rx="2" fill="#fdebd8" opacity="0.5"/>

  <!-- Centre divider label -->
  <line x1="60" y1="242" x2="1140" y2="242"
        stroke="#ddd" stroke-width="1" stroke-dasharray="6,4"/>
  <text x="600" y="246" text-anchor="middle" font-size="9" fill="#bbb">
    ← 展台中心分隔线 →</text>

  <!-- Table edge rulers -->
  <line x1="60" y1="80" x2="1140" y2="80" stroke="#aaa" stroke-width="1"/>
  <line x1="60" y1="75" x2="60" y2="85" stroke="#aaa" stroke-width="1"/>
  <line x1="1140" y1="75" x2="1140" y2="85" stroke="#aaa" stroke-width="1"/>
  <text x="600" y="96" text-anchor="middle" font-size="11" fill="#555">180"</text>

  <!-- Top rail (Portrait) -->
  <text x="60" y="104" font-size="11" fill="#555" font-family="monospace">竖放 (Portrait)</text>
<rect x="116.9" y="110" width="18.0" height="110" rx="2" fill="#5CB85C" opacity="0.85"/>
<text x="125.9" y="168.0" text-anchor="middle" font-size="8" fill="white" font-family="monospace">S</text>
<rect x="140.9" y="110" width="41.9" height="110" rx="3" fill="#4A90D9" opacity="0.88"/>
<text x="161.9" y="128.0" text-anchor="middle" font-size="10" font-weight="bold" fill="white" font-family="monospace">#1</text>
<text x="161.9" y="144.0" text-anchor="middle" font-size="9" fill="white" font-family="monospace" clip-path="url(#cliptop0)">Pro 11" (6.99"P)</text>
<text x="149.9" y="233.0" text-anchor="middle" font-size="9" fill="#333" font-family="monospace">10.99"</text>
<rect x="296.4" y="110" width="18.0" height="110" rx="2" fill="#5CB85C" opacity="0.85"/>
<text x="305.4" y="168.0" text-anchor="middle" font-size="8" fill="white" font-family="monospace">S</text>
<rect x="320.4" y="110" width="42.1" height="110" rx="3" fill="#4A90D9" opacity="0.88"/>
<text x="341.4" y="128.0" text-anchor="middle" font-size="10" font-weight="bold" fill="white" font-family="monospace">#2</text>
<text x="341.4" y="144.0" text-anchor="middle" font-size="9" fill="white" font-family="monospace" clip-path="url(#cliptop1)">Air 11" (7.02"P)</text>
<text x="329.4" y="233.0" text-anchor="middle" font-size="9" fill="#333" font-family="monospace">11.02"</text>
<rect x="475.6" y="110" width="18.0" height="110" rx="2" fill="#5CB85C" opacity="0.85"/>
<text x="484.6" y="168.0" text-anchor="middle" font-size="8" fill="white" font-family="monospace">S</text>
<rect x="499.6" y="110" width="42.4" height="110" rx="3" fill="#4A90D9" opacity="0.88"/>
<text x="520.8" y="128.0" text-anchor="middle" font-size="10" font-weight="bold" fill="white" font-family="monospace">#3</text>
<text x="520.8" y="144.0" text-anchor="middle" font-size="9" fill="white" font-family="monospace" clip-path="url(#cliptop2)">(A16) (7.07"P)</text>
<text x="508.8" y="233.0" text-anchor="middle" font-size="9" fill="#333" font-family="monospace">11.07"</text>
<rect x="654.2" y="110" width="18.0" height="110" rx="2" fill="#5CB85C" opacity="0.85"/>
<text x="663.2" y="168.0" text-anchor="middle" font-size="8" fill="white" font-family="monospace">S</text>
<rect x="678.2" y="110" width="31.8" height="110" rx="3" fill="#4A90D9" opacity="0.88"/>
<text x="694.1" y="128.0" text-anchor="middle" font-size="10" font-weight="bold" fill="white" font-family="monospace">#4</text>
<text x="682.1" y="233.0" text-anchor="middle" font-size="9" fill="#333" font-family="monospace">9.30"</text>
<rect x="821.7" y="110" width="18.0" height="110" rx="2" fill="#5CB85C" opacity="0.85"/>
<text x="830.7" y="168.0" text-anchor="middle" font-size="8" fill="white" font-family="monospace">S</text>
<rect x="845.7" y="110" width="50.8" height="110" rx="3" fill="#4A90D9" opacity="0.88"/>
<text x="871.1" y="128.0" text-anchor="middle" font-size="10" font-weight="bold" fill="white" font-family="monospace">#5</text>
<text x="871.1" y="144.0" text-anchor="middle" font-size="9" fill="white" font-family="monospace" clip-path="url(#cliptop4)">Air 13" (8.46"P)</text>
<text x="859.1" y="233.0" text-anchor="middle" font-size="9" fill="#333" font-family="monospace">12.46"</text>
<rect x="1008.9" y="110" width="18.0" height="110" rx="2" fill="#5CB85C" opacity="0.85"/>
<text x="1017.9" y="168.0" text-anchor="middle" font-size="8" fill="white" font-family="monospace">S</text>
<rect x="1032.9" y="110" width="50.9" height="110" rx="3" fill="#4A90D9" opacity="0.88"/>
<text x="1058.3" y="128.0" text-anchor="middle" font-size="10" font-weight="bold" fill="white" font-family="monospace">#6</text>
<text x="1058.3" y="144.0" text-anchor="middle" font-size="9" fill="white" font-family="monospace" clip-path="url(#cliptop5)">Pro 13" (8.48"P)</text>
<text x="1046.3" y="233.0" text-anchor="middle" font-size="9" fill="#333" font-family="monospace">12.48"</text>

  <!-- Top gap annotations -->
  <line x1="182.9" y1="70" x2="296.4" y2="70" stroke="#888" stroke-width="1" stroke-dasharray="3,2"/>
<text x="239.6" y="68.0" text-anchor="middle" font-size="9" fill="#666" font-family="monospace">18.92"</text>
<line x1="362.5" y1="70" x2="475.6" y2="70" stroke="#888" stroke-width="1" stroke-dasharray="3,2"/>
<text x="419.1" y="68.0" text-anchor="middle" font-size="9" fill="#666" font-family="monospace">18.86"</text>
<line x1="542.0" y1="70" x2="654.2" y2="70" stroke="#888" stroke-width="1" stroke-dasharray="3,2"/>
<text x="598.1" y="68.0" text-anchor="middle" font-size="9" fill="#666" font-family="monospace">18.69"</text>
<line x1="710.0" y1="70" x2="821.7" y2="70" stroke="#888" stroke-width="1" stroke-dasharray="3,2"/>
<text x="765.9" y="68.0" text-anchor="middle" font-size="9" fill="#666" font-family="monospace">18.62"</text>
<line x1="896.5" y1="70" x2="1008.9" y2="70" stroke="#888" stroke-width="1" stroke-dasharray="3,2"/>
<text x="952.7" y="68.0" text-anchor="middle" font-size="9" fill="#666" font-family="monospace">18.73"</text>
<text x="88.5" y="68.0" text-anchor="middle" font-size="9" fill="#999" font-family="monospace">9.49"</text>
<text x="1111.9" y="68.0" text-anchor="middle" font-size="9" fill="#999" font-family="monospace">9.37"</text>


  <!-- Bottom rail (Landscape) -->
  <text x="60" y="258" font-size="11" fill="#555" font-family="monospace">竖放 (Portrait)</text>
<rect x="108.4" y="264" width="18.0" height="110" rx="2" fill="#5CB85C" opacity="0.85"/>
<text x="117.4" y="322.0" text-anchor="middle" font-size="8" fill="white" font-family="monospace">S</text>
<rect x="132.4" y="264" width="59.0" height="110" rx="3" fill="#4A90D9" opacity="0.88"/>
<text x="161.9" y="282.0" text-anchor="middle" font-size="10" font-weight="bold" fill="white" font-family="monospace">#1</text>
<text x="161.9" y="298.0" text-anchor="middle" font-size="9" fill="white" font-family="monospace" clip-path="url(#clipbottom0)">Pro 11" (9.83"P)</text>
<text x="149.9" y="387.0" text-anchor="middle" font-size="9" fill="#333" font-family="monospace">13.83"</text>
<rect x="288.2" y="264" width="18.0" height="110" rx="2" fill="#5CB85C" opacity="0.85"/>
<text x="297.2" y="322.0" text-anchor="middle" font-size="8" fill="white" font-family="monospace">S</text>
<rect x="312.2" y="264" width="58.4" height="110" rx="3" fill="#4A90D9" opacity="0.88"/>
<text x="341.4" y="282.0" text-anchor="middle" font-size="10" font-weight="bold" fill="white" font-family="monospace">#2</text>
<text x="341.4" y="298.0" text-anchor="middle" font-size="9" fill="white" font-family="monospace" clip-path="url(#clipbottom1)">Air 11" (9.74"P)</text>
<text x="329.4" y="387.0" text-anchor="middle" font-size="9" fill="#333" font-family="monospace">13.74"</text>
<rect x="467.5" y="264" width="18.0" height="110" rx="2" fill="#5CB85C" opacity="0.85"/>
<text x="476.5" y="322.0" text-anchor="middle" font-size="8" fill="white" font-family="monospace">S</text>
<rect x="491.5" y="264" width="58.7" height="110" rx="3" fill="#4A90D9" opacity="0.88"/>
<text x="520.8" y="282.0" text-anchor="middle" font-size="10" font-weight="bold" fill="white" font-family="monospace">#3</text>
<text x="520.8" y="298.0" text-anchor="middle" font-size="9" fill="white" font-family="monospace" clip-path="url(#clipbottom2)">(A16) (9.79"P)</text>
<text x="508.8" y="387.0" text-anchor="middle" font-size="9" fill="#333" font-family="monospace">13.79"</text>
<rect x="647.0" y="264" width="18.0" height="110" rx="2" fill="#5CB85C" opacity="0.85"/>
<text x="656.0" y="322.0" text-anchor="middle" font-size="8" fill="white" font-family="monospace">S</text>
<rect x="671.0" y="264" width="46.1" height="110" rx="3" fill="#4A90D9" opacity="0.88"/>
<text x="694.1" y="282.0" text-anchor="middle" font-size="10" font-weight="bold" fill="white" font-family="monospace">#4</text>
<text x="694.1" y="298.0" text-anchor="middle" font-size="9" fill="white" font-family="monospace" clip-path="url(#clipbottom3)">mini (7.69"P)</text>
<text x="682.1" y="387.0" text-anchor="middle" font-size="9" fill="#333" font-family="monospace">11.69"</text>
<rect x="814.0" y="264" width="18.0" height="110" rx="2" fill="#5CB85C" opacity="0.85"/>
<text x="823.0" y="322.0" text-anchor="middle" font-size="8" fill="white" font-family="monospace">S</text>
<rect x="838.0" y="264" width="66.2" height="110" rx="3" fill="#4A90D9" opacity="0.88"/>
<text x="871.1" y="282.0" text-anchor="middle" font-size="10" font-weight="bold" fill="white" font-family="monospace">#5</text>
<text x="871.1" y="298.0" text-anchor="middle" font-size="9" fill="white" font-family="monospace" clip-path="url(#clipbottom4)">Air 13" (11.04"P)</text>
<text x="859.1" y="387.0" text-anchor="middle" font-size="9" fill="#333" font-family="monospace">15.04"</text>
<rect x="1001.0" y="264" width="18.0" height="110" rx="2" fill="#5CB85C" opacity="0.85"/>
<text x="1010.0" y="322.0" text-anchor="middle" font-size="8" fill="white" font-family="monospace">S</text>
<rect x="1025.0" y="264" width="66.5" height="110" rx="3" fill="#4A90D9" opacity="0.88"/>
<text x="1058.3" y="282.0" text-anchor="middle" font-size="10" font-weight="bold" fill="white" font-family="monospace">#6</text>
<text x="1058.3" y="298.0" text-anchor="middle" font-size="9" fill="white" font-family="monospace" clip-path="url(#clipbottom5)">Pro 13" (11.09"P)</text>
<text x="1046.3" y="387.0" text-anchor="middle" font-size="9" fill="#333" font-family="monospace">15.09"</text>

  <!-- Bottom gap annotations -->
  <line x1="191.4" y1="402" x2="288.2" y2="402" stroke="#888" stroke-width="1" stroke-dasharray="3,2"/>
<text x="239.8" y="400.0" text-anchor="middle" font-size="9" fill="#666" font-family="monospace">16.14"</text>
<line x1="370.7" y1="402" x2="467.5" y2="402" stroke="#888" stroke-width="1" stroke-dasharray="3,2"/>
<text x="419.1" y="400.0" text-anchor="middle" font-size="9" fill="#666" font-family="monospace">16.14"</text>
<line x1="550.2" y1="402" x2="647.0" y2="402" stroke="#888" stroke-width="1" stroke-dasharray="3,2"/>
<text x="598.6" y="400.0" text-anchor="middle" font-size="9" fill="#666" font-family="monospace">16.14"</text>
<line x1="717.2" y1="402" x2="814.0" y2="402" stroke="#888" stroke-width="1" stroke-dasharray="3,2"/>
<text x="765.6" y="400.0" text-anchor="middle" font-size="9" fill="#666" font-family="monospace">16.14"</text>
<line x1="904.2" y1="402" x2="1001.0" y2="402" stroke="#888" stroke-width="1" stroke-dasharray="3,2"/>
<text x="952.6" y="400.0" text-anchor="middle" font-size="9" fill="#666" font-family="monospace">16.14"</text>
<text x="84.2" y="400.0" text-anchor="middle" font-size="9" fill="#999" font-family="monospace">8.07"</text>
<text x="1115.8" y="400.0" text-anchor="middle" font-size="9" fill="#999" font-family="monospace">8.07"</text>


  <!-- Alignment lines (comparison only) -->
  <line x1="149.9" y1="220" x2="149.9" y2="264" stroke="#5CB85C" stroke-width="1.5" stroke-dasharray="4,3" opacity="0.7"/>
<line x1="329.4" y1="220" x2="329.4" y2="264" stroke="#5CB85C" stroke-width="1.5" stroke-dasharray="4,3" opacity="0.7"/>
<line x1="508.8" y1="220" x2="508.8" y2="264" stroke="#5CB85C" stroke-width="1.5" stroke-dasharray="4,3" opacity="0.7"/>
<line x1="682.1" y1="220" x2="682.1" y2="264" stroke="#5CB85C" stroke-width="1.5" stroke-dasharray="4,3" opacity="0.7"/>
<line x1="859.1" y1="220" x2="859.1" y2="264" stroke="#5CB85C" stroke-width="1.5" stroke-dasharray="4,3" opacity="0.7"/>
<line x1="1046.3" y1="220" x2="1046.3" y2="264" stroke="#5CB85C" stroke-width="1.5" stroke-dasharray="4,3" opacity="0.7"/>


  <!-- Info panel -->
  <rect x="20" y="424" width="1160" height="68" rx="4"
        fill="white" stroke="#ddd" stroke-width="1"/>
  <text font-size="10" fill="#444" font-family="monospace">
    <tspan x="30" y="438">
      竖排(上)：6 台 [iPad Pro 11", iPad Air 11", iPad (A16), iPad mini, iPad Air 13", iPad Pro 13"]  |  (center-aligned)  |  边缘 9.488"  |  总宽 67.32"  ✓ fits
    </tspan>
    <tspan x="30" dy="14">
      横排(下)：6 台 [iPad Pro 11", iPad Air 11", iPad (A16), iPad mini, iPad Air 13", iPad Pro 13"]  |  X=16.137"  |  边缘 8.068"  |  总宽 83.18"  ✓ fits
    </tspan>
    <tspan x="30" dy="14">模式：center-aligned  |  类型：ipad-comparison  |  备注：全线六款对比，中心对齐</tspan>
  </text>

  <!-- Warnings / pass -->
  <text font-size="10" fill="#444" font-family="monospace">
    <tspan x="30" dy="13" fill="#5CB85C">✓ 无告警</tspan>
  </text>

  <!-- Legend -->
  <rect x="20" y="492" width="12" height="12" rx="2" fill="#4A90D9"/>
  <text x="36" y="502" font-size="10" fill="#555">竖放 (Portrait)</text>
  <rect x="140" y="492" width="12" height="12" rx="2" fill="#E8874A"/>
  <text x="156" y="502" font-size="10" fill="#555">横放 (Landscape)</text>
  <rect x="280" y="492" width="12" height="12" rx="2" fill="#5CB85C"/>
  <text x="296" y="502" font-size="10" fill="#555">2×3 Product Sign (3"+1" gap)</text>
  <text x="1180" y="502" text-anchor="end" font-size="9" fill="#bbb">
    Generated: 2026-03-07
  </text>
</svg>